0
SECTION
2
HEADER
9
$INSUNITS
70
4
0
ENDSEC
0
SECTION
2
TABLES
0
TABLE
2
LTYPE
0
LTYPE
72
65
70
64
2
CONTINUOUS
3
______
73
0
40
0
0
ENDTAB
0
TABLE
2
LAYER
0
ENDTAB
0
ENDSEC
0
SECTION
2
ENTITIES
0
LINE
8
0
10
31
20
-199
11
49
21
-199
0
LINE
8
0
10
49
20
-199
11
49
21
-181
0
LINE
8
0
10
49
20
-181
11
31
21
-181
0
LINE
8
0
10
31
20
-181
11
31
21
-199
0
LINE
8
0
10
31
20
-180
11
49
21
-180
0
LINE
8
0
10
49
20
-180
11
49
21
-162
0
LINE
8
0
10
49
20
-162
11
31
21
-162
0
LINE
8
0
10
31
20
-162
11
31
21
-180
0
LINE
8
0
10
31
20
-161
11
49
21
-161
0
LINE
8
0
10
49
20
-161
11
49
21
-143
0
LINE
8
0
10
49
20
-143
11
31
21
-143
0
LINE
8
0
10
31
20
-143
11
31
21
-161
0
LINE
8
0
10
31
20
-142
11
49
21
-142
0
LINE
8
0
10
49
20
-142
11
49
21
-124
0
LINE
8
0
10
49
20
-124
11
31
21
-124
0
LINE
8
0
10
31
20
-124
11
31
21
-142
0
LINE
8
0
10
50
20
-187.57
11
68
21
-187.57
0
LINE
8
0
10
68
20
-187.57
11
68
21
-169.57
0
LINE
8
0
10
68
20
-169.57
11
50
21
-169.57
0
LINE
8
0
10
50
20
-169.57
11
50
21
-187.57
0
LINE
8
0
10
50
20
-168.57
11
68
21
-168.57
0
LINE
8
0
10
68
20
-168.57
11
68
21
-150.57
0
LINE
8
0
10
68
20
-150.57
11
50
21
-150.57
0
LINE
8
0
10
50
20
-150.57
11
50
21
-168.57
0
LINE
8
0
10
50
20
-149.57
11
68
21
-149.57
0
LINE
8
0
10
68
20
-149.57
11
68
21
-131.57
0
LINE
8
0
10
68
20
-131.57
11
50
21
-131.57
0
LINE
8
0
10
50
20
-131.57
11
50
21
-149.57
0
LINE
8
0
10
50
20
-130.57
11
68
21
-130.57
0
LINE
8
0
10
68
20
-130.57
11
68
21
-112.57
0
LINE
8
0
10
68
20
-112.57
11
50
21
-112.57
0
LINE
8
0
10
50
20
-112.57
11
50
21
-130.57
0
LINE
8
0
10
69
20
-185.665
11
87
21
-185.665
0
LINE
8
0
10
87
20
-185.665
11
87
21
-167.665
0
LINE
8
0
10
87
20
-167.665
11
69
21
-167.665
0
LINE
8
0
10
69
20
-167.665
11
69
21
-185.665
0
LINE
8
0
10
69
20
-166.665
11
87
21
-166.665
0
LINE
8
0
10
87
20
-166.665
11
87
21
-148.665
0
LINE
8
0
10
87
20
-148.665
11
69
21
-148.665
0
LINE
8
0
10
69
20
-148.665
11
69
21
-166.665
0
LINE
8
0
10
69
20
-147.665
11
87
21
-147.665
0
LINE
8
0
10
87
20
-147.665
11
87
21
-129.665
0
LINE
8
0
10
87
20
-129.665
11
69
21
-129.665
0
LINE
8
0
10
69
20
-129.665
11
69
21
-147.665
0
LINE
8
0
10
69
20
-128.665
11
87
21
-128.665
0
LINE
8
0
10
87
20
-128.665
11
87
21
-110.665
0
LINE
8
0
10
87
20
-110.665
11
69
21
-110.665
0
LINE
8
0
10
69
20
-110.665
11
69
21
-128.665
0
LINE
8
0
10
88
20
-181.855
11
106
21
-181.855
0
LINE
8
0
10
106
20
-181.855
11
106
21
-163.855
0
LINE
8
0
10
106
20
-163.855
11
88
21
-163.855
0
LINE
8
0
10
88
20
-163.855
11
88
21
-181.855
0
LINE
8
0
10
88
20
-162.855
11
106
21
-162.855
0
LINE
8
0
10
106
20
-162.855
11
106
21
-144.855
0
LINE
8
0
10
106
20
-144.855
11
88
21
-144.855
0
LINE
8
0
10
88
20
-144.855
11
88
21
-162.855
0
LINE
8
0
10
88
20
-143.855
11
106
21
-143.855
0
LINE
8
0
10
106
20
-143.855
11
106
21
-125.855
0
LINE
8
0
10
106
20
-125.855
11
88
21
-125.855
0
LINE
8
0
10
88
20
-125.855
11
88
21
-143.855
0
LINE
8
0
10
88
20
-124.855
11
106
21
-124.855
0
LINE
8
0
10
106
20
-124.855
11
106
21
-106.855
0
LINE
8
0
10
106
20
-106.855
11
88
21
-106.855
0
LINE
8
0
10
88
20
-106.855
11
88
21
-124.855
0
LINE
8
0
10
107
20
-185.665
11
125
21
-185.665
0
LINE
8
0
10
125
20
-185.665
11
125
21
-167.665
0
LINE
8
0
10
125
20
-167.665
11
107
21
-167.665
0
LINE
8
0
10
107
20
-167.665
11
107
21
-185.665
0
LINE
8
0
10
107
20
-166.665
11
125
21
-166.665
0
LINE
8
0
10
125
20
-166.665
11
125
21
-148.665
0
LINE
8
0
10
125
20
-148.665
11
107
21
-148.665
0
LINE
8
0
10
107
20
-148.665
11
107
21
-166.665
0
LINE
8
0
10
107
20
-147.665
11
125
21
-147.665
0
LINE
8
0
10
125
20
-147.665
11
125
21
-129.665
0
LINE
8
0
10
125
20
-129.665
11
107
21
-129.665
0
LINE
8
0
10
107
20
-129.665
11
107
21
-147.665
0
LINE
8
0
10
107
20
-128.665
11
125
21
-128.665
0
LINE
8
0
10
125
20
-128.665
11
125
21
-110.665
0
LINE
8
0
10
125
20
-110.665
11
107
21
-110.665
0
LINE
8
0
10
107
20
-110.665
11
107
21
-128.665
0
LINE
8
0
10
126
20
-187.57
11
144
21
-187.57
0
LINE
8
0
10
144
20
-187.57
11
144
21
-169.57
0
LINE
8
0
10
144
20
-169.57
11
126
21
-169.57
0
LINE
8
0
10
126
20
-169.57
11
126
21
-187.57
0
LINE
8
0
10
126
20
-168.57
11
144
21
-168.57
0
LINE
8
0
10
144
20
-168.57
11
144
21
-150.57
0
LINE
8
0
10
144
20
-150.57
11
126
21
-150.57
0
LINE
8
0
10
126
20
-150.57
11
126
21
-168.57
0
LINE
8
0
10
126
20
-149.57
11
144
21
-149.57
0
LINE
8
0
10
144
20
-149.57
11
144
21
-131.57
0
LINE
8
0
10
144
20
-131.57
11
126
21
-131.57
0
LINE
8
0
10
126
20
-131.57
11
126
21
-149.57
0
LINE
8
0
10
126
20
-130.57
11
144
21
-130.57
0
LINE
8
0
10
144
20
-130.57
11
144
21
-112.57
0
LINE
8
0
10
144
20
-112.57
11
126
21
-112.57
0
LINE
8
0
10
126
20
-112.57
11
126
21
-130.57
0
LINE
8
0
10
95.2721893
20
-204.8141412
11
112.9987289
21
-207.9398084
0
LINE
8
0
10
112.9987289
20
-207.9398084
11
116.1243961
21
-190.2132688
0
LINE
8
0
10
116.1243961
20
-190.2132688
11
98.3978565
21
-187.0876016
0
LINE
8
0
10
98.3978565
20
-187.0876016
11
95.2721893
21
-204.8141412
0
LINE
8
0
10
114.2718938
20
-208.2360243
11
140.3518911
21
-215.2241385
0
LINE
8
0
10
118.9306367
20
-190.8493595
11
145.010634
21
-197.8374737
0
LINE
8
0
10
141.6012808
20
-215.6083507
11
158.515748
21
-221.7647133
0
LINE
8
0
10
158.515748
20
-221.7647133
11
164.6721106
21
-204.8502461
0
LINE
8
0
10
164.6721106
20
-204.8502461
11
147.7576434
21
-198.6938835
0
LINE
8
0
10
147.7576434
20
-198.6938835
11
141.6012808
21
-215.6083507
0
LINE
8
0
10
339
20
-199
11
357
21
-199
0
LINE
8
0
10
357
20
-199
11
357
21
-181
0
LINE
8
0
10
357
20
-181
11
339
21
-181
0
LINE
8
0
10
339
20
-181
11
339
21
-199
0
LINE
8
0
10
339
20
-180
11
357
21
-180
0
LINE
8
0
10
357
20
-180
11
357
21
-162
0
LINE
8
0
10
357
20
-162
11
339
21
-162
0
LINE
8
0
10
339
20
-162
11
339
21
-180
0
LINE
8
0
10
339
20
-161
11
357
21
-161
0
LINE
8
0
10
357
20
-161
11
357
21
-143
0
LINE
8
0
10
357
20
-143
11
339
21
-143
0
LINE
8
0
10
339
20
-143
11
339
21
-161
0
LINE
8
0
10
339
20
-142
11
357
21
-142
0
LINE
8
0
10
357
20
-142
11
357
21
-124
0
LINE
8
0
10
357
20
-124
11
339
21
-124
0
LINE
8
0
10
339
20
-124
11
339
21
-142
0
LINE
8
0
10
320
20
-187.57
11
338
21
-187.57
0
LINE
8
0
10
338
20
-187.57
11
338
21
-169.57
0
LINE
8
0
10
338
20
-169.57
11
320
21
-169.57
0
LINE
8
0
10
320
20
-169.57
11
320
21
-187.57
0
LINE
8
0
10
320
20
-168.57
11
338
21
-168.57
0
LINE
8
0
10
338
20
-168.57
11
338
21
-150.57
0
LINE
8
0
10
338
20
-150.57
11
320
21
-150.57
0
LINE
8
0
10
320
20
-150.57
11
320
21
-168.57
0
LINE
8
0
10
320
20
-149.57
11
338
21
-149.57
0
LINE
8
0
10
338
20
-149.57
11
338
21
-131.57
0
LINE
8
0
10
338
20
-131.57
11
320
21
-131.57
0
LINE
8
0
10
320
20
-131.57
11
320
21
-149.57
0
LINE
8
0
10
320
20
-130.57
11
338
21
-130.57
0
LINE
8
0
10
338
20
-130.57
11
338
21
-112.57
0
LINE
8
0
10
338
20
-112.57
11
320
21
-112.57
0
LINE
8
0
10
320
20
-112.57
11
320
21
-130.57
0
LINE
8
0
10
301
20
-185.665
11
319
21
-185.665
0
LINE
8
0
10
319
20
-185.665
11
319
21
-167.665
0
LINE
8
0
10
319
20
-167.665
11
301
21
-167.665
0
LINE
8
0
10
301
20
-167.665
11
301
21
-185.665
0
LINE
8
0
10
301
20
-166.665
11
319
21
-166.665
0
LINE
8
0
10
319
20
-166.665
11
319
21
-148.665
0
LINE
8
0
10
319
20
-148.665
11
301
21
-148.665
0
LINE
8
0
10
301
20
-148.665
11
301
21
-166.665
0
LINE
8
0
10
301
20
-147.665
11
319
21
-147.665
0
LINE
8
0
10
319
20
-147.665
11
319
21
-129.665
0
LINE
8
0
10
319
20
-129.665
11
301
21
-129.665
0
LINE
8
0
10
301
20
-129.665
11
301
21
-147.665
0
LINE
8
0
10
301
20
-128.665
11
319
21
-128.665
0
LINE
8
0
10
319
20
-128.665
11
319
21
-110.665
0
LINE
8
0
10
319
20
-110.665
11
301
21
-110.665
0
LINE
8
0
10
301
20
-110.665
11
301
21
-128.665
0
LINE
8
0
10
282
20
-181.855
11
300
21
-181.855
0
LINE
8
0
10
300
20
-181.855
11
300
21
-163.855
0
LINE
8
0
10
300
20
-163.855
11
282
21
-163.855
0
LINE
8
0
10
282
20
-163.855
11
282
21
-181.855
0
LINE
8
0
10
282
20
-162.855
11
300
21
-162.855
0
LINE
8
0
10
300
20
-162.855
11
300
21
-144.855
0
LINE
8
0
10
300
20
-144.855
11
282
21
-144.855
0
LINE
8
0
10
282
20
-144.855
11
282
21
-162.855
0
LINE
8
0
10
282
20
-143.855
11
300
21
-143.855
0
LINE
8
0
10
300
20
-143.855
11
300
21
-125.855
0
LINE
8
0
10
300
20
-125.855
11
282
21
-125.855
0
LINE
8
0
10
282
20
-125.855
11
282
21
-143.855
0
LINE
8
0
10
282
20
-124.855
11
300
21
-124.855
0
LINE
8
0
10
300
20
-124.855
11
300
21
-106.855
0
LINE
8
0
10
300
20
-106.855
11
282
21
-106.855
0
LINE
8
0
10
282
20
-106.855
11
282
21
-124.855
0
LINE
8
0
10
263
20
-185.665
11
281
21
-185.665
0
LINE
8
0
10
281
20
-185.665
11
281
21
-167.665
0
LINE
8
0
10
281
20
-167.665
11
263
21
-167.665
0
LINE
8
0
10
263
20
-167.665
11
263
21
-185.665
0
LINE
8
0
10
263
20
-166.665
11
281
21
-166.665
0
LINE
8
0
10
281
20
-166.665
11
281
21
-148.665
0
LINE
8
0
10
281
20
-148.665
11
263
21
-148.665
0
LINE
8
0
10
263
20
-148.665
11
263
21
-166.665
0
LINE
8
0
10
263
20
-147.665
11
281
21
-147.665
0
LINE
8
0
10
281
20
-147.665
11
281
21
-129.665
0
LINE
8
0
10
281
20
-129.665
11
263
21
-129.665
0
LINE
8
0
10
263
20
-129.665
11
263
21
-147.665
0
LINE
8
0
10
263
20
-128.665
11
281
21
-128.665
0
LINE
8
0
10
281
20
-128.665
11
281
21
-110.665
0
LINE
8
0
10
281
20
-110.665
11
263
21
-110.665
0
LINE
8
0
10
263
20
-110.665
11
263
21
-128.665
0
LINE
8
0
10
244
20
-187.57
11
262
21
-187.57
0
LINE
8
0
10
262
20
-187.57
11
262
21
-169.57
0
LINE
8
0
10
262
20
-169.57
11
244
21
-169.57
0
LINE
8
0
10
244
20
-169.57
11
244
21
-187.57
0
LINE
8
0
10
244
20
-168.57
11
262
21
-168.57
0
LINE
8
0
10
262
20
-168.57
11
262
21
-150.57
0
LINE
8
0
10
262
20
-150.57
11
244
21
-150.57
0
LINE
8
0
10
244
20
-150.57
11
244
21
-168.57
0
LINE
8
0
10
244
20
-149.57
11
262
21
-149.57
0
LINE
8
0
10
262
20
-149.57
11
262
21
-131.57
0
LINE
8
0
10
262
20
-131.57
11
244
21
-131.57
0
LINE
8
0
10
244
20
-131.57
11
244
21
-149.57
0
LINE
8
0
10
244
20
-130.57
11
262
21
-130.57
0
LINE
8
0
10
262
20
-130.57
11
262
21
-112.57
0
LINE
8
0
10
262
20
-112.57
11
244
21
-112.57
0
LINE
8
0
10
244
20
-112.57
11
244
21
-130.57
0
LINE
8
0
10
275.0012711
20
-207.9398084
11
292.7278107
21
-204.8141412
0
LINE
8
0
10
292.7278107
20
-204.8141412
11
289.6021435
21
-187.0876016
0
LINE
8
0
10
289.6021435
20
-187.0876016
11
271.8756039
21
-190.2132688
0
LINE
8
0
10
271.8756039
20
-190.2132688
11
275.0012711
21
-207.9398084
0
LINE
8
0
10
247.6481089
20
-215.2241385
11
273.7281062
21
-208.2360243
0
LINE
8
0
10
242.989366
20
-197.8374737
11
269.0693633
21
-190.8493595
0
LINE
8
0
10
229.484252
20
-221.7647133
11
246.3987192
21
-215.6083507
0
LINE
8
0
10
246.3987192
20
-215.6083507
11
240.2423566
21
-198.6938835
0
LINE
8
0
10
240.2423566
20
-198.6938835
11
223.3278894
21
-204.8502461
0
LINE
8
0
10
223.3278894
20
-204.8502461
11
229.484252
21
-221.7647133
0
LINE
8
0
10
140.3518911
20
-215.2241385
11
145.010634
21
-197.8374737
0
LINE
8
0
10
118.9306367
20
-190.8493595
11
114.2718938
21
-208.2360243
0
LINE
8
0
10
273.7281062
20
-208.2360243
11
269.0693633
21
-190.8493595
0
LINE
8
0
10
242.989366
20
-197.8374737
11
247.6481089
21
-215.2241385
0
LINE
8
0
10
94.3577898
20
-208.74
11
30.7053367
21
-208.74
0
ARC
8
0
10
30.7053367
20
-200.24
40
8.5
50
180.0870195
51
270
0
LINE
8
0
10
22.2053454
20
-200.2521864
11
22.0696824
21
-105.6271864
0
ARC
8
0
10
30.5696736
20
-105.615
40
8.5
50
90
51
180.0766406
0
LINE
8
0
10
30.5696736
20
-97.115
11
144.3830455
21
-97.115
0
ARC
8
0
10
144.3830455
20
-105.615
40
8.5
50
359.9489781
51
450
0
LINE
8
0
10
152.8830421
20
-105.6225693
11
152.8023402
21
-196.2466874
0
LINE
8
0
10
166.5420803
20
-201.247544
11
152.8023402
21
-196.2466874
0
ARC
8
0
10
165.3450098
20
-204.5364681
40
3.5
50
339.9999998
51
430.0000001
0
LINE
8
0
10
162.1184501
20
-223.634683
11
168.6339339
21
-205.7335386
0
ARC
8
0
10
158.829526
20
-222.4376125
40
3.5
50
249.9999998
51
340.0000001
0
LINE
8
0
10
139.8749091
20
-219.2633182
11
157.6324555
21
-225.7265366
0
LINE
8
0
10
112.6170868
20
-211.9596068
11
139.8749091
21
-219.2633182
0
LINE
8
0
10
94.3577898
20
-208.74
11
112.6170868
21
-211.9596068
0
LINE
8
0
10
293.6422105
20
-208.74
11
357.2946633
21
-208.74
0
ARC
8
0
10
357.2946633
20
-200.24
40
8.5
50
270
51
359.9129805
0
LINE
8
0
10
365.7946546
20
-200.2521864
11
365.9303176
21
-105.6271864
0
ARC
8
0
10
357.4303264
20
-105.615
40
8.5
50
359.9233594
51
450
0
LINE
8
0
10
357.4303264
20
-97.115
11
243.6169546
21
-97.115
0
ARC
8
0
10
243.6169545
20
-105.615
40
8.5
50
90
51
180.0510219
0
LINE
8
0
10
235.1169579
20
-105.6225693
11
235.1976598
21
-196.2466875
0
LINE
8
0
10
235.1976598
20
-196.2466875
11
221.4579197
21
-201.2475439
0
ARC
8
0
10
222.6549902
20
-204.5364681
40
3.5
50
110.0000002
51
200.000001
0
LINE
8
0
10
219.3660661
20
-205.7335386
11
225.8815499
21
-223.634683
0
ARC
8
0
10
229.170474
20
-222.4376125
40
3.5
50
199.9999999
51
290.0000002
0
LINE
8
0
10
230.3675445
20
-225.7265366
11
248.1250906
21
-219.2633183
0
LINE
8
0
10
248.1250906
20
-219.2633183
11
275.3829129
21
-211.9596068
0
LINE
8
0
10
275.3829129
20
-211.9596068
11
293.6422105
21
-208.74
0
LINE
8
0
10
94.5327671
20
-206.74
11
30.7053367
21
-206.74
0
ARC
8
0
10
30.7053367
20
-200.24
40
6.5
50
180.082145
51
270
0
LINE
8
0
10
24.2053433
20
-200.249319
11
24.0696803
21
-105.624319
0
ARC
8
0
10
30.5696736
20
-105.615
40
6.5
50
90
51
180.0766406
0
LINE
8
0
10
30.5696736
20
-99.115
11
144.3830455
21
-99.115
0
ARC
8
0
10
144.3830455
20
-105.615
40
6.5
50
359.9489781
51
450
0
LINE
8
0
10
150.8830429
20
-105.6207883
11
150.8010928
21
-197.6466485
0
LINE
8
0
10
165.85804
20
-203.1269292
11
150.8010928
21
-197.6466485
0
ARC
8
0
10
165.3450098
20
-204.5364681
40
1.5
50
339.9999998
51
430.0000001
0
LINE
8
0
10
160.2390649
20
-222.9506427
11
166.7545487
21
-205.0494983
0
ARC
8
0
10
158.829526
20
-222.4376125
40
1.5
50
249.9999998
51
340.0000001
0
LINE
8
0
10
140.4768932
20
-217.354067
11
158.3164958
21
-223.8471514
0
LINE
8
0
10
113.0503787
20
-210.0051546
11
140.4768932
21
-217.354067
0
LINE
8
0
10
94.5327671
20
-206.74
11
113.0503787
21
-210.0051546
0
LINE
8
0
10
293.4672329
20
-206.74
11
357.2946633
21
-206.74
0
ARC
8
0
10
357.2946633
20
-200.24
40
6.5
50
270
51
359.917855
0
LINE
8
0
10
363.7946567
20
-200.249319
11
363.9303197
21
-105.624319
0
ARC
8
0
10
357.4303264
20
-105.615
40
6.5
50
359.9233594
51
450
0
LINE
8
0
10
357.4303264
20
-99.115
11
243.6169546
21
-99.115
0
ARC
8
0
10
243.6169545
20
-105.615
40
6.5
50
90
51
180.0510219
0
LINE
8
0
10
237.1169571
20
-105.6207883
11
237.1989072
21
-197.6466485
0
LINE
8
0
10
237.1989072
20
-197.6466485
11
222.14196
21
-203.1269292
0
ARC
8
0
10
222.6549902
20
-204.5364681
40
1.5
50
110.0000002
51
200.000001
0
LINE
8
0
10
221.2454513
20
-205.0494983
11
227.7609351
21
-222.9506427
0
ARC
8
0
10
229.170474
20
-222.4376125
40
1.5
50
199.9999999
51
290.0000002
0
LINE
8
0
10
229.6835042
20
-223.8471514
11
247.5231068
21
-217.354067
0
LINE
8
0
10
247.5231068
20
-217.354067
11
274.9496213
21
-210.0051546
0
LINE
8
0
10
274.9496213
20
-210.0051546
11
293.4672329
21
-206.74
0
ENDSEC
0
EOF