M48
; DRILL file {KiCad 9.0.6-1.fc43} date 2026-01-18T20:08:38+0100
; FORMAT={-:-/ absolute / metric / decimal}
; #@! TF.CreationDate,2026-01-18T20:08:38+01:00
; #@! TF.GenerationSoftware,Kicad,Pcbnew,9.0.6-1.fc43
; #@! TF.FileFunction,NonPlated,1,2,NPTH
FMAT,2
METRIC
; #@! TA.AperFunction,NonPlated,NPTH,ComponentDrill
T1C1.500
; #@! TA.AperFunction,NonPlated,NPTH,ComponentDrill
T2C1.900
; #@! TA.AperFunction,NonPlated,NPTH,ComponentDrill
T3C2.200
; #@! TA.AperFunction,NonPlated,NPTH,ComponentDrill
T4C3.000
; #@! TA.AperFunction,NonPlated,NPTH,ComponentDrill
T5C4.100
; #@! TA.AperFunction,NonPlated,NPTH,ComponentDrill
T6C5.000
%
G90
G05
T1
X238.85Y-107.57
X245.85Y-107.57
T2
X230.09Y-211.967
X239.637Y-208.492
X247.92Y-121.57
X247.92Y-140.57
X247.92Y-159.57
X247.92Y-178.57
X253.452Y-204.352
X258.08Y-121.57
X258.08Y-140.57
X258.08Y-159.57
X258.08Y-178.57
X263.266Y-201.722
X266.92Y-119.665
X266.92Y-138.665
X266.92Y-157.665
X266.92Y-176.665
X277.08Y-119.665
X277.08Y-138.665
X277.08Y-157.665
X277.08Y-176.665
X277.299Y-198.396
X285.92Y-115.855
X285.92Y-134.855
X285.92Y-153.855
X285.92Y-172.855
X287.305Y-196.632
X296.08Y-115.855
X296.08Y-134.855
X296.08Y-153.855
X296.08Y-172.855
X304.92Y-119.665
X304.92Y-138.665
X304.92Y-157.665
X304.92Y-176.665
X315.08Y-119.665
X315.08Y-138.665
X315.08Y-157.665
X315.08Y-176.665
X323.92Y-121.57
X323.92Y-140.57
X323.92Y-159.57
X323.92Y-178.57
X334.08Y-121.57
X334.08Y-140.57
X334.08Y-159.57
X334.08Y-178.57
X342.92Y-133.0
X342.92Y-152.0
X342.92Y-171.0
X342.92Y-190.0
X353.08Y-133.0
X353.08Y-152.0
X353.08Y-171.0
X353.08Y-190.0
T3
X245.5Y-131.07
X245.5Y-169.07
X248.705Y-213.173
X355.5Y-142.5
X355.5Y-180.5
T4
X232.828Y-204.638
X234.214Y-215.872
X238.279Y-204.995
X239.312Y-211.313
X250.46Y-126.65
X250.46Y-145.65
X250.46Y-164.65
X250.46Y-183.65
X253.0Y-115.62
X253.0Y-134.62
X253.0Y-153.62
X253.0Y-172.62
X256.81Y-124.11
X256.81Y-143.11
X256.81Y-162.11
X256.81Y-181.11
X256.819Y-197.289
X257.22Y-208.601
X258.0Y-117.82
X258.0Y-136.82
X258.0Y-155.82
X258.0Y-174.82
X262.218Y-198.12
X262.696Y-204.504
X269.46Y-124.745
X269.46Y-143.745
X269.46Y-162.745
X269.46Y-181.745
X272.0Y-113.715
X272.0Y-132.715
X272.0Y-151.715
X272.0Y-170.715
X275.81Y-122.205
X275.81Y-141.205
X275.81Y-160.205
X275.81Y-179.205
X277.0Y-115.915
X277.0Y-134.915
X277.0Y-153.915
X277.0Y-172.915
X280.682Y-202.958
X281.268Y-191.654
X286.495Y-199.354
X286.575Y-192.952
X288.46Y-120.935
X288.46Y-139.935
X288.46Y-158.935
X288.46Y-177.935
X291.0Y-109.905
X291.0Y-128.905
X291.0Y-147.905
X291.0Y-166.905
X294.81Y-118.395
X294.81Y-137.395
X294.81Y-156.395
X294.81Y-175.395
X296.0Y-112.105
X296.0Y-131.105
X296.0Y-150.105
X296.0Y-169.105
X307.46Y-124.745
X307.46Y-143.745
X307.46Y-162.745
X307.46Y-181.745
X310.0Y-113.715
X310.0Y-132.715
X310.0Y-151.715
X310.0Y-170.715
X313.81Y-122.205
X313.81Y-141.205
X313.81Y-160.205
X313.81Y-179.205
X315.0Y-115.915
X315.0Y-134.915
X315.0Y-153.915
X315.0Y-172.915
X326.46Y-126.65
X326.46Y-145.65
X326.46Y-164.65
X326.46Y-183.65
X329.0Y-115.62
X329.0Y-134.62
X329.0Y-153.62
X329.0Y-172.62
X332.81Y-124.11
X332.81Y-143.11
X332.81Y-162.11
X332.81Y-181.11
X334.0Y-117.82
X334.0Y-136.82
X334.0Y-155.82
X334.0Y-174.82
X345.46Y-138.08
X345.46Y-157.08
X345.46Y-176.08
X345.46Y-195.08
X348.0Y-127.05
X348.0Y-146.05
X348.0Y-165.05
X348.0Y-184.05
X351.81Y-135.54
X351.81Y-154.54
X351.81Y-173.54
X351.81Y-192.54
X353.0Y-129.25
X353.0Y-148.25
X353.0Y-167.25
X353.0Y-186.25
T5
X234.863Y-210.229
X253.0Y-121.57
X253.0Y-140.57
X253.0Y-159.57
X253.0Y-178.57
X258.359Y-203.037
X272.0Y-119.665
X272.0Y-138.665
X272.0Y-157.665
X272.0Y-176.665
X282.302Y-197.514
X291.0Y-115.855
X291.0Y-134.855
X291.0Y-153.855
X291.0Y-172.855
X310.0Y-119.665
X310.0Y-138.665
X310.0Y-157.665
X310.0Y-176.665
X329.0Y-121.57
X329.0Y-140.57
X329.0Y-159.57
X329.0Y-178.57
X348.0Y-133.0
X348.0Y-152.0
X348.0Y-171.0
X348.0Y-190.0
T6
X234.863Y-210.229
X253.0Y-121.57
X253.0Y-140.57
X253.0Y-159.57
X253.0Y-178.57
X258.359Y-203.037
X272.0Y-119.665
X272.0Y-138.665
X272.0Y-157.665
X272.0Y-176.665
X282.302Y-197.514
X291.0Y-115.855
X291.0Y-134.855
X291.0Y-153.855
X291.0Y-172.855
X310.0Y-119.665
X310.0Y-138.665
X310.0Y-157.665
X310.0Y-176.665
X329.0Y-121.57
X329.0Y-140.57
X329.0Y-159.57
X329.0Y-178.57
X348.0Y-133.0
X348.0Y-152.0
X348.0Y-171.0
X348.0Y-190.0
M30
