%TF.GenerationSoftware,KiCad,Pcbnew,9.0.6-1.fc43*%
%TF.CreationDate,2026-01-18T20:08:42+01:00*%
%TF.ProjectId,rightPCB,72696768-7450-4434-922e-6b696361645f,v1.0.0*%
%TF.SameCoordinates,Original*%
%TF.FileFunction,Copper,L2,Bot*%
%TF.FilePolarity,Positive*%
%FSLAX46Y46*%
G04 Gerber Fmt 4.6, Leading zero omitted, Abs format (unit mm)*
G04 Created by KiCad (PCBNEW 9.0.6-1.fc43) date 2026-01-18 20:08:42*
%MOMM*%
%LPD*%
G01*
G04 APERTURE LIST*
G04 Aperture macros list*
%AMRoundRect*
0 Rectangle with rounded corners*
0 $1 Rounding radius*
0 $2 $3 $4 $5 $6 $7 $8 $9 X,Y pos of 4 corners*
0 Add a 4 corners polygon primitive as box body*
4,1,4,$2,$3,$4,$5,$6,$7,$8,$9,$2,$3,0*
0 Add four circle primitives for the rounded corners*
1,1,$1+$1,$2,$3*
1,1,$1+$1,$4,$5*
1,1,$1+$1,$6,$7*
1,1,$1+$1,$8,$9*
0 Add four rect primitives between the rounded corners*
20,1,$1+$1,$2,$3,$4,$5,0*
20,1,$1+$1,$4,$5,$6,$7,0*
20,1,$1+$1,$6,$7,$8,$9,0*
20,1,$1+$1,$8,$9,$2,$3,0*%
%AMRotRect*
0 Rectangle, with rotation*
0 The origin of the aperture is its center*
0 $1 length*
0 $2 width*
0 $3 Rotation angle, in degrees counterclockwise*
0 Add horizontal line*
21,1,$1,$2,0,0,$3*%
G04 Aperture macros list end*
%TA.AperFunction,SMDPad,CuDef*%
%ADD10R,2.600000X2.600000*%
%TD*%
%TA.AperFunction,SMDPad,CuDef*%
%ADD11RotRect,2.600000X2.600000X10.000000*%
%TD*%
%TA.AperFunction,SMDPad,CuDef*%
%ADD12RotRect,2.600000X2.600000X15.000000*%
%TD*%
%TA.AperFunction,SMDPad,CuDef*%
%ADD13RotRect,2.600000X2.600000X20.000000*%
%TD*%
%TA.AperFunction,SMDPad,CuDef*%
%ADD14R,2.550000X2.500000*%
%TD*%
%TA.AperFunction,SMDPad,CuDef*%
%ADD15RotRect,2.550000X2.500000X190.000000*%
%TD*%
%TA.AperFunction,SMDPad,CuDef*%
%ADD16RotRect,2.550000X2.500000X195.000000*%
%TD*%
%TA.AperFunction,SMDPad,CuDef*%
%ADD17RotRect,2.550000X2.500000X200.000000*%
%TD*%
%TA.AperFunction,SMDPad,CuDef*%
%ADD18R,0.900000X1.200000*%
%TD*%
%TA.AperFunction,ComponentPad*%
%ADD19R,1.778000X1.778000*%
%TD*%
%TA.AperFunction,ComponentPad*%
%ADD20C,1.905000*%
%TD*%
%TA.AperFunction,SMDPad,CuDef*%
%ADD21RotRect,0.900000X1.200000X190.000000*%
%TD*%
%TA.AperFunction,ComponentPad*%
%ADD22RotRect,1.778000X1.778000X190.000000*%
%TD*%
%TA.AperFunction,SMDPad,CuDef*%
%ADD23RotRect,0.900000X1.200000X195.000000*%
%TD*%
%TA.AperFunction,ComponentPad*%
%ADD24RotRect,1.778000X1.778000X195.000000*%
%TD*%
%TA.AperFunction,SMDPad,CuDef*%
%ADD25RotRect,0.900000X1.200000X200.000000*%
%TD*%
%TA.AperFunction,ComponentPad*%
%ADD26RotRect,1.778000X1.778000X200.000000*%
%TD*%
%TA.AperFunction,ComponentPad*%
%ADD27O,2.200000X1.600000*%
%TD*%
%TA.AperFunction,ComponentPad*%
%ADD28RoundRect,0.400000X-0.900000X-0.400000X0.900000X-0.400000X0.900000X0.400000X-0.900000X0.400000X0*%
%TD*%
%TA.AperFunction,ComponentPad*%
%ADD29RoundRect,0.400050X-0.899950X-0.400050X0.899950X-0.400050X0.899950X0.400050X-0.899950X0.400050X0*%
%TD*%
%TA.AperFunction,ComponentPad*%
%ADD30RoundRect,0.400000X-0.400000X-0.900000X0.400000X-0.900000X0.400000X0.900000X-0.400000X0.900000X0*%
%TD*%
%TA.AperFunction,ComponentPad*%
%ADD31RoundRect,0.393700X-0.393700X-0.906300X0.393700X-0.906300X0.393700X0.906300X-0.393700X0.906300X0*%
%TD*%
%TA.AperFunction,ViaPad*%
%ADD32C,0.600000*%
%TD*%
%TA.AperFunction,Conductor*%
%ADD33C,0.200000*%
%TD*%
G04 APERTURE END LIST*
D10*
%TO.P,S1,1*%
%TO.N,GP7*%
X344725000Y-184050000D03*
%TO.P,S1,2*%
%TO.N,mirror_outer_bottom*%
X356275000Y-186250000D03*
%TD*%
%TO.P,S2,1*%
%TO.N,GP7*%
X344725000Y-165050000D03*
%TO.P,S2,2*%
%TO.N,mirror_outer_home*%
X356275000Y-167250000D03*
%TD*%
%TO.P,S3,1*%
%TO.N,GP7*%
X344725000Y-146050000D03*
%TO.P,S3,2*%
%TO.N,mirror_outer_top*%
X356275000Y-148250000D03*
%TD*%
%TO.P,S4,1*%
%TO.N,GP7*%
X344725000Y-127050000D03*
%TO.P,S4,2*%
%TO.N,mirror_outer_num*%
X356275000Y-129250000D03*
%TD*%
%TO.P,S5,1*%
%TO.N,GP6*%
X325725000Y-172620000D03*
%TO.P,S5,2*%
%TO.N,mirror_pinky_bottom*%
X337275000Y-174820000D03*
%TD*%
%TO.P,S6,1*%
%TO.N,GP6*%
X325725000Y-153620000D03*
%TO.P,S6,2*%
%TO.N,mirror_pinky_home*%
X337275000Y-155820000D03*
%TD*%
%TO.P,S7,1*%
%TO.N,GP6*%
X325725000Y-134620000D03*
%TO.P,S7,2*%
%TO.N,mirror_pinky_top*%
X337275000Y-136820000D03*
%TD*%
%TO.P,S8,1*%
%TO.N,GP6*%
X325725000Y-115620000D03*
%TO.P,S8,2*%
%TO.N,mirror_pinky_num*%
X337275000Y-117820000D03*
%TD*%
%TO.P,S9,1*%
%TO.N,GP5*%
X306725000Y-170715000D03*
%TO.P,S9,2*%
%TO.N,mirror_ring_bottom*%
X318275000Y-172915000D03*
%TD*%
%TO.P,S10,1*%
%TO.N,GP5*%
X306725000Y-151715000D03*
%TO.P,S10,2*%
%TO.N,mirror_ring_home*%
X318275000Y-153915000D03*
%TD*%
%TO.P,S11,1*%
%TO.N,GP5*%
X306725000Y-132715000D03*
%TO.P,S11,2*%
%TO.N,mirror_ring_top*%
X318275000Y-134915000D03*
%TD*%
%TO.P,S12,1*%
%TO.N,GP5*%
X306725000Y-113715000D03*
%TO.P,S12,2*%
%TO.N,mirror_ring_num*%
X318275000Y-115915000D03*
%TD*%
%TO.P,S13,1*%
%TO.N,GP4*%
X287725000Y-166905000D03*
%TO.P,S13,2*%
%TO.N,mirror_middle_bottom*%
X299275000Y-169105000D03*
%TD*%
%TO.P,S14,1*%
%TO.N,GP4*%
X287725000Y-147905000D03*
%TO.P,S14,2*%
%TO.N,mirror_middle_home*%
X299275000Y-150105000D03*
%TD*%
%TO.P,S15,1*%
%TO.N,GP4*%
X287725000Y-128905000D03*
%TO.P,S15,2*%
%TO.N,mirror_middle_top*%
X299275000Y-131105000D03*
%TD*%
%TO.P,S16,1*%
%TO.N,GP4*%
X287725000Y-109905000D03*
%TO.P,S16,2*%
%TO.N,mirror_middle_num*%
X299275000Y-112105000D03*
%TD*%
%TO.P,S17,1*%
%TO.N,GP3*%
X268725000Y-170715000D03*
%TO.P,S17,2*%
%TO.N,mirror_index_bottom*%
X280275000Y-172915000D03*
%TD*%
%TO.P,S18,1*%
%TO.N,GP3*%
X268725000Y-151715000D03*
%TO.P,S18,2*%
%TO.N,mirror_index_home*%
X280275000Y-153915000D03*
%TD*%
%TO.P,S19,1*%
%TO.N,GP3*%
X268725000Y-132715000D03*
%TO.P,S19,2*%
%TO.N,mirror_index_top*%
X280275000Y-134915000D03*
%TD*%
%TO.P,S20,1*%
%TO.N,GP3*%
X268725000Y-113715000D03*
%TO.P,S20,2*%
%TO.N,mirror_index_num*%
X280275000Y-115915000D03*
%TD*%
%TO.P,S21,1*%
%TO.N,GP2*%
X249725000Y-172620000D03*
%TO.P,S21,2*%
%TO.N,mirror_inner_bottom*%
X261275000Y-174820000D03*
%TD*%
%TO.P,S22,1*%
%TO.N,GP2*%
X249725000Y-153620000D03*
%TO.P,S22,2*%
%TO.N,mirror_inner_home*%
X261275000Y-155820000D03*
%TD*%
%TO.P,S23,1*%
%TO.N,GP2*%
X249725000Y-134620000D03*
%TO.P,S23,2*%
%TO.N,mirror_inner_top*%
X261275000Y-136820000D03*
%TD*%
D11*
%TO.P,S25,1*%
%TO.N,GP4*%
X278043255Y-192222797D03*
%TO.P,S25,2*%
%TO.N,mirror_inner_only*%
X289799810Y-192383737D03*
%TD*%
D12*
%TO.P,S26,1*%
%TO.N,GP3*%
X253655356Y-198137123D03*
%TO.P,S26,2*%
%TO.N,mirror_center_only*%
X265381201Y-197272800D03*
%TD*%
D13*
%TO.P,S27,1*%
%TO.N,GP2*%
X229750791Y-205758243D03*
%TO.P,S27,2*%
%TO.N,mirror_reach_only*%
X241356685Y-203875234D03*
%TD*%
D14*
%TO.P,S28,1*%
%TO.N,GP7*%
X355085000Y-192540000D03*
%TO.P,S28,2*%
%TO.N,mirror_outer_bottom*%
X342158000Y-195080000D03*
%TD*%
%TO.P,S29,1*%
%TO.N,GP7*%
X355085000Y-173540000D03*
%TO.P,S29,2*%
%TO.N,mirror_outer_home*%
X342158000Y-176080000D03*
%TD*%
%TO.P,S30,1*%
%TO.N,GP7*%
X355085000Y-154540000D03*
%TO.P,S30,2*%
%TO.N,mirror_outer_top*%
X342158000Y-157080000D03*
%TD*%
%TO.P,S31,1*%
%TO.N,GP7*%
X355085000Y-135540000D03*
%TO.P,S31,2*%
%TO.N,mirror_outer_num*%
X342158000Y-138080000D03*
%TD*%
%TO.P,S32,1*%
%TO.N,GP6*%
X336085000Y-181110000D03*
%TO.P,S32,2*%
%TO.N,mirror_pinky_bottom*%
X323158000Y-183650000D03*
%TD*%
%TO.P,S33,1*%
%TO.N,GP6*%
X336085000Y-162110000D03*
%TO.P,S33,2*%
%TO.N,mirror_pinky_home*%
X323158000Y-164650000D03*
%TD*%
%TO.P,S34,1*%
%TO.N,GP6*%
X336085000Y-143110000D03*
%TO.P,S34,2*%
%TO.N,mirror_pinky_top*%
X323158000Y-145650000D03*
%TD*%
%TO.P,S35,1*%
%TO.N,GP6*%
X336085000Y-124110000D03*
%TO.P,S35,2*%
%TO.N,mirror_pinky_num*%
X323158000Y-126650000D03*
%TD*%
%TO.P,S36,1*%
%TO.N,GP5*%
X317085000Y-179205000D03*
%TO.P,S36,2*%
%TO.N,mirror_ring_bottom*%
X304158000Y-181745000D03*
%TD*%
%TO.P,S37,1*%
%TO.N,GP5*%
X317085000Y-160205000D03*
%TO.P,S37,2*%
%TO.N,mirror_ring_home*%
X304158000Y-162745000D03*
%TD*%
%TO.P,S38,1*%
%TO.N,GP5*%
X317085000Y-141205000D03*
%TO.P,S38,2*%
%TO.N,mirror_ring_top*%
X304158000Y-143745000D03*
%TD*%
%TO.P,S39,1*%
%TO.N,GP5*%
X317085000Y-122205000D03*
%TO.P,S39,2*%
%TO.N,mirror_ring_num*%
X304158000Y-124745000D03*
%TD*%
%TO.P,S40,1*%
%TO.N,GP4*%
X298085000Y-175395000D03*
%TO.P,S40,2*%
%TO.N,mirror_middle_bottom*%
X285158000Y-177935000D03*
%TD*%
%TO.P,S41,1*%
%TO.N,GP4*%
X298085000Y-156395000D03*
%TO.P,S41,2*%
%TO.N,mirror_middle_home*%
X285158000Y-158935000D03*
%TD*%
%TO.P,S42,1*%
%TO.N,GP4*%
X298085000Y-137395000D03*
%TO.P,S42,2*%
%TO.N,mirror_middle_top*%
X285158000Y-139935000D03*
%TD*%
%TO.P,S43,1*%
%TO.N,GP4*%
X298085000Y-118395000D03*
%TO.P,S43,2*%
%TO.N,mirror_middle_num*%
X285158000Y-120935000D03*
%TD*%
%TO.P,S44,1*%
%TO.N,GP3*%
X279085000Y-179205000D03*
%TO.P,S44,2*%
%TO.N,mirror_index_bottom*%
X266158000Y-181745000D03*
%TD*%
%TO.P,S45,1*%
%TO.N,GP3*%
X279085000Y-160205000D03*
%TO.P,S45,2*%
%TO.N,mirror_index_home*%
X266158000Y-162745000D03*
%TD*%
%TO.P,S46,1*%
%TO.N,GP3*%
X279085000Y-141205000D03*
%TO.P,S46,2*%
%TO.N,mirror_index_top*%
X266158000Y-143745000D03*
%TD*%
%TO.P,S47,1*%
%TO.N,GP3*%
X279085000Y-122205000D03*
%TO.P,S47,2*%
%TO.N,mirror_index_num*%
X266158000Y-124745000D03*
%TD*%
%TO.P,S48,1*%
%TO.N,GP2*%
X260085000Y-181110000D03*
%TO.P,S48,2*%
%TO.N,mirror_inner_bottom*%
X247158000Y-183650000D03*
%TD*%
%TO.P,S49,1*%
%TO.N,GP2*%
X260085000Y-162110000D03*
%TO.P,S49,2*%
%TO.N,mirror_inner_home*%
X247158000Y-164650000D03*
%TD*%
%TO.P,S50,1*%
%TO.N,GP2*%
X260085000Y-143110000D03*
%TO.P,S50,2*%
%TO.N,mirror_inner_top*%
X247158000Y-145650000D03*
%TD*%
%TO.P,S51,1*%
%TO.N,GP2*%
X260085000Y-124110000D03*
%TO.P,S51,2*%
%TO.N,mirror_inner_num*%
X247158000Y-126650000D03*
%TD*%
D15*
%TO.P,S52,1*%
%TO.N,GP4*%
X289720136Y-198784819D03*
%TO.P,S52,2*%
%TO.N,mirror_inner_only*%
X277430593Y-203530981D03*
%TD*%
D16*
%TO.P,S53,1*%
%TO.N,GP3*%
X265859721Y-203656468D03*
%TO.P,S53,2*%
%TO.N,mirror_center_only*%
X254030598Y-209455673D03*
%TD*%
D17*
%TO.P,S54,1*%
%TO.N,GP2*%
X242389757Y-210192905D03*
%TO.P,S54,2*%
%TO.N,mirror_reach_only*%
X231111082Y-217001018D03*
%TD*%
D18*
%TO.P,D1,1*%
%TO.N,GP10*%
X349650000Y-197750000D03*
%TO.P,D1,2*%
%TO.N,mirror_outer_bottom*%
X346350000Y-197750000D03*
D19*
%TO.P,D1,1*%
%TO.N,GP10*%
X351810000Y-197750000D03*
D20*
%TO.P,D1,2*%
%TO.N,mirror_outer_bottom*%
X344190000Y-197750000D03*
%TD*%
D18*
%TO.P,D2,1*%
%TO.N,GP11*%
X349650000Y-178750000D03*
%TO.P,D2,2*%
%TO.N,mirror_outer_home*%
X346350000Y-178750000D03*
D19*
%TO.P,D2,1*%
%TO.N,GP11*%
X351810000Y-178750000D03*
D20*
%TO.P,D2,2*%
%TO.N,mirror_outer_home*%
X344190000Y-178750000D03*
%TD*%
D18*
%TO.P,D3,1*%
%TO.N,GP12*%
X349650000Y-159750000D03*
%TO.P,D3,2*%
%TO.N,mirror_outer_top*%
X346350000Y-159750000D03*
D19*
%TO.P,D3,1*%
%TO.N,GP12*%
X351810000Y-159750000D03*
D20*
%TO.P,D3,2*%
%TO.N,mirror_outer_top*%
X344190000Y-159750000D03*
%TD*%
D18*
%TO.P,D4,1*%
%TO.N,GP13*%
X349650000Y-140750000D03*
%TO.P,D4,2*%
%TO.N,mirror_outer_num*%
X346350000Y-140750000D03*
D19*
%TO.P,D4,1*%
%TO.N,GP13*%
X351810000Y-140750000D03*
D20*
%TO.P,D4,2*%
%TO.N,mirror_outer_num*%
X344190000Y-140750000D03*
%TD*%
D18*
%TO.P,D5,1*%
%TO.N,GP10*%
X330650000Y-186320000D03*
%TO.P,D5,2*%
%TO.N,mirror_pinky_bottom*%
X327350000Y-186320000D03*
D19*
%TO.P,D5,1*%
%TO.N,GP10*%
X332810000Y-186320000D03*
D20*
%TO.P,D5,2*%
%TO.N,mirror_pinky_bottom*%
X325190000Y-186320000D03*
%TD*%
D18*
%TO.P,D6,1*%
%TO.N,GP11*%
X330650000Y-167320000D03*
%TO.P,D6,2*%
%TO.N,mirror_pinky_home*%
X327350000Y-167320000D03*
D19*
%TO.P,D6,1*%
%TO.N,GP11*%
X332810000Y-167320000D03*
D20*
%TO.P,D6,2*%
%TO.N,mirror_pinky_home*%
X325190000Y-167320000D03*
%TD*%
D18*
%TO.P,D7,1*%
%TO.N,GP12*%
X330650000Y-148320000D03*
%TO.P,D7,2*%
%TO.N,mirror_pinky_top*%
X327350000Y-148320000D03*
D19*
%TO.P,D7,1*%
%TO.N,GP12*%
X332810000Y-148320000D03*
D20*
%TO.P,D7,2*%
%TO.N,mirror_pinky_top*%
X325190000Y-148320000D03*
%TD*%
D18*
%TO.P,D8,1*%
%TO.N,GP13*%
X330650000Y-129320000D03*
%TO.P,D8,2*%
%TO.N,mirror_pinky_num*%
X327350000Y-129320000D03*
D19*
%TO.P,D8,1*%
%TO.N,GP13*%
X332810000Y-129320000D03*
D20*
%TO.P,D8,2*%
%TO.N,mirror_pinky_num*%
X325190000Y-129320000D03*
%TD*%
D18*
%TO.P,D9,1*%
%TO.N,GP10*%
X311650000Y-184415000D03*
%TO.P,D9,2*%
%TO.N,mirror_ring_bottom*%
X308350000Y-184415000D03*
D19*
%TO.P,D9,1*%
%TO.N,GP10*%
X313810000Y-184415000D03*
D20*
%TO.P,D9,2*%
%TO.N,mirror_ring_bottom*%
X306190000Y-184415000D03*
%TD*%
D18*
%TO.P,D10,1*%
%TO.N,GP11*%
X311650000Y-165415000D03*
%TO.P,D10,2*%
%TO.N,mirror_ring_home*%
X308350000Y-165415000D03*
D19*
%TO.P,D10,1*%
%TO.N,GP11*%
X313810000Y-165415000D03*
D20*
%TO.P,D10,2*%
%TO.N,mirror_ring_home*%
X306190000Y-165415000D03*
%TD*%
D18*
%TO.P,D11,1*%
%TO.N,GP12*%
X311650000Y-146415000D03*
%TO.P,D11,2*%
%TO.N,mirror_ring_top*%
X308350000Y-146415000D03*
D19*
%TO.P,D11,1*%
%TO.N,GP12*%
X313810000Y-146415000D03*
D20*
%TO.P,D11,2*%
%TO.N,mirror_ring_top*%
X306190000Y-146415000D03*
%TD*%
D18*
%TO.P,D12,1*%
%TO.N,GP13*%
X311650000Y-127415000D03*
%TO.P,D12,2*%
%TO.N,mirror_ring_num*%
X308350000Y-127415000D03*
D19*
%TO.P,D12,1*%
%TO.N,GP13*%
X313810000Y-127415000D03*
D20*
%TO.P,D12,2*%
%TO.N,mirror_ring_num*%
X306190000Y-127415000D03*
%TD*%
D18*
%TO.P,D13,1*%
%TO.N,GP10*%
X292650000Y-180605000D03*
%TO.P,D13,2*%
%TO.N,mirror_middle_bottom*%
X289350000Y-180605000D03*
D19*
%TO.P,D13,1*%
%TO.N,GP10*%
X294810000Y-180605000D03*
D20*
%TO.P,D13,2*%
%TO.N,mirror_middle_bottom*%
X287190000Y-180605000D03*
%TD*%
D18*
%TO.P,D14,1*%
%TO.N,GP11*%
X292650000Y-161605000D03*
%TO.P,D14,2*%
%TO.N,mirror_middle_home*%
X289350000Y-161605000D03*
D19*
%TO.P,D14,1*%
%TO.N,GP11*%
X294810000Y-161605000D03*
D20*
%TO.P,D14,2*%
%TO.N,mirror_middle_home*%
X287190000Y-161605000D03*
%TD*%
D18*
%TO.P,D15,1*%
%TO.N,GP12*%
X292650000Y-142605000D03*
%TO.P,D15,2*%
%TO.N,mirror_middle_top*%
X289350000Y-142605000D03*
D19*
%TO.P,D15,1*%
%TO.N,GP12*%
X294810000Y-142605000D03*
D20*
%TO.P,D15,2*%
%TO.N,mirror_middle_top*%
X287190000Y-142605000D03*
%TD*%
D18*
%TO.P,D16,1*%
%TO.N,GP13*%
X292650000Y-123605000D03*
%TO.P,D16,2*%
%TO.N,mirror_middle_num*%
X289350000Y-123605000D03*
D19*
%TO.P,D16,1*%
%TO.N,GP13*%
X294810000Y-123605000D03*
D20*
%TO.P,D16,2*%
%TO.N,mirror_middle_num*%
X287190000Y-123605000D03*
%TD*%
D18*
%TO.P,D17,1*%
%TO.N,GP10*%
X273650000Y-184415000D03*
%TO.P,D17,2*%
%TO.N,mirror_index_bottom*%
X270350000Y-184415000D03*
D19*
%TO.P,D17,1*%
%TO.N,GP10*%
X275810000Y-184415000D03*
D20*
%TO.P,D17,2*%
%TO.N,mirror_index_bottom*%
X268190000Y-184415000D03*
%TD*%
D18*
%TO.P,D18,1*%
%TO.N,GP11*%
X273650000Y-165415000D03*
%TO.P,D18,2*%
%TO.N,mirror_index_home*%
X270350000Y-165415000D03*
D19*
%TO.P,D18,1*%
%TO.N,GP11*%
X275810000Y-165415000D03*
D20*
%TO.P,D18,2*%
%TO.N,mirror_index_home*%
X268190000Y-165415000D03*
%TD*%
D18*
%TO.P,D19,1*%
%TO.N,GP12*%
X273650000Y-146415000D03*
%TO.P,D19,2*%
%TO.N,mirror_index_top*%
X270350000Y-146415000D03*
D19*
%TO.P,D19,1*%
%TO.N,GP12*%
X275810000Y-146415000D03*
D20*
%TO.P,D19,2*%
%TO.N,mirror_index_top*%
X268190000Y-146415000D03*
%TD*%
D18*
%TO.P,D20,1*%
%TO.N,GP13*%
X273650000Y-127415000D03*
%TO.P,D20,2*%
%TO.N,mirror_index_num*%
X270350000Y-127415000D03*
D19*
%TO.P,D20,1*%
%TO.N,GP13*%
X275810000Y-127415000D03*
D20*
%TO.P,D20,2*%
%TO.N,mirror_index_num*%
X268190000Y-127415000D03*
%TD*%
D18*
%TO.P,D21,1*%
%TO.N,GP10*%
X254650000Y-186320000D03*
%TO.P,D21,2*%
%TO.N,mirror_inner_bottom*%
X251350000Y-186320000D03*
D19*
%TO.P,D21,1*%
%TO.N,GP10*%
X256810000Y-186320000D03*
D20*
%TO.P,D21,2*%
%TO.N,mirror_inner_bottom*%
X249190000Y-186320000D03*
%TD*%
D18*
%TO.P,D22,1*%
%TO.N,GP11*%
X254650000Y-167320000D03*
%TO.P,D22,2*%
%TO.N,mirror_inner_home*%
X251350000Y-167320000D03*
D19*
%TO.P,D22,1*%
%TO.N,GP11*%
X256810000Y-167320000D03*
D20*
%TO.P,D22,2*%
%TO.N,mirror_inner_home*%
X249190000Y-167320000D03*
%TD*%
D18*
%TO.P,D23,1*%
%TO.N,GP12*%
X254650000Y-148320000D03*
%TO.P,D23,2*%
%TO.N,mirror_inner_top*%
X251350000Y-148320000D03*
D19*
%TO.P,D23,1*%
%TO.N,GP12*%
X256810000Y-148320000D03*
D20*
%TO.P,D23,2*%
%TO.N,mirror_inner_top*%
X249190000Y-148320000D03*
%TD*%
D18*
%TO.P,D24,1*%
%TO.N,GP13*%
X254650000Y-129320000D03*
%TO.P,D24,2*%
%TO.N,mirror_inner_num*%
X251350000Y-129320000D03*
D19*
%TO.P,D24,1*%
%TO.N,GP13*%
X256810000Y-129320000D03*
D20*
%TO.P,D24,2*%
%TO.N,mirror_inner_num*%
X249190000Y-129320000D03*
%TD*%
D21*
%TO.P,D25,1*%
%TO.N,GP9*%
X285272414Y-204859446D03*
%TO.P,D25,2*%
%TO.N,mirror_inner_only*%
X282022548Y-205432484D03*
D22*
%TO.P,D25,1*%
%TO.N,GP9*%
X287399599Y-204484365D03*
D20*
%TO.P,D25,2*%
%TO.N,mirror_inner_only*%
X279895363Y-205807565D03*
%TD*%
D23*
%TO.P,D26,1*%
%TO.N,GP9*%
X261958362Y-210095623D03*
%TO.P,D26,2*%
%TO.N,mirror_center_only*%
X258770806Y-210949725D03*
D24*
%TO.P,D26,1*%
%TO.N,GP9*%
X264044761Y-209536573D03*
D20*
%TO.P,D26,2*%
%TO.N,mirror_center_only*%
X256684407Y-211508775D03*
%TD*%
D25*
%TO.P,D27,1*%
%TO.N,GP9*%
X239064453Y-216947583D03*
%TO.P,D27,2*%
%TO.N,mirror_reach_only*%
X235963467Y-218076249D03*
D26*
%TO.P,D27,1*%
%TO.N,GP9*%
X241094189Y-216208819D03*
D20*
%TO.P,D27,2*%
%TO.N,mirror_reach_only*%
X233933731Y-218815013D03*
%TD*%
D27*
%TO.P,TRRS1,2*%
%TO.N,GND*%
X240450000Y-105270000D03*
%TO.P,TRRS1,3*%
%TO.N,GP1*%
X243450000Y-105270000D03*
%TO.P,TRRS1,4*%
%TO.N,P3V3*%
X247450000Y-105270000D03*
%TO.P,TRRS1,5*%
%TO.N,GP0*%
X248550000Y-109870000D03*
%TD*%
D28*
%TO.P,RP2040-Zero,1*%
%TO.N,GP0*%
X356630000Y-100640000D03*
%TO.P,RP2040-Zero,2*%
%TO.N,GP1*%
X356630000Y-103180000D03*
%TO.P,RP2040-Zero,3*%
%TO.N,GP2*%
X356630000Y-105720000D03*
%TO.P,RP2040-Zero,4*%
%TO.N,GP3*%
X356630000Y-108260000D03*
%TO.P,RP2040-Zero,5*%
%TO.N,GP4*%
X356630000Y-110800000D03*
D29*
%TO.P,RP2040-Zero,6*%
%TO.N,GP5*%
X356630000Y-113340000D03*
%TO.P,RP2040-Zero,7*%
%TO.N,GP6*%
X356630000Y-115880000D03*
%TO.P,RP2040-Zero,8*%
%TO.N,GP7*%
X356630000Y-118420000D03*
%TO.P,RP2040-Zero,9*%
%TO.N,GP8*%
X356630000Y-120960000D03*
D30*
%TO.P,RP2040-Zero,10*%
%TO.N,GP9*%
X353490000Y-121770000D03*
D31*
%TO.P,RP2040-Zero,11*%
%TO.N,GP10*%
X350950000Y-121770000D03*
%TO.P,RP2040-Zero,12*%
%TO.N,GP11*%
X348410000Y-121770000D03*
%TO.P,RP2040-Zero,13*%
%TO.N,GP12*%
X345870000Y-121770000D03*
%TO.P,RP2040-Zero,14*%
%TO.N,GP13*%
X343330000Y-121770000D03*
D29*
%TO.P,RP2040-Zero,15*%
%TO.N,GP14*%
X340190000Y-120960000D03*
%TO.P,RP2040-Zero,16*%
%TO.N,GP15*%
X340190000Y-118420000D03*
%TO.P,RP2040-Zero,17*%
%TO.N,GP26*%
X340190000Y-115880000D03*
%TO.P,RP2040-Zero,18*%
%TO.N,GP27*%
X340190000Y-113340000D03*
%TO.P,RP2040-Zero,19*%
%TO.N,P5V*%
X340190000Y-100640000D03*
%TO.P,RP2040-Zero,20*%
%TO.N,GND*%
X340190000Y-103180000D03*
%TO.P,RP2040-Zero,21*%
%TO.N,P3V3*%
X340190000Y-105720000D03*
%TO.P,RP2040-Zero,22*%
%TO.N,GP28*%
X340190000Y-110800000D03*
%TO.P,RP2040-Zero,23*%
%TO.N,GP29*%
X340190000Y-108260000D03*
%TD*%
D10*
%TO.P,S24,1*%
%TO.N,GP2*%
X249725000Y-115620000D03*
%TO.P,S24,2*%
%TO.N,mirror_inner_num*%
X261275000Y-117820000D03*
%TD*%
D32*
%TO.N,GP6*%
X335500000Y-120500000D03*
X334000000Y-113500000D03*
%TO.N,GP1*%
X337500000Y-110500000D03*
%TO.N,GP0*%
X340000000Y-125500000D03*
%TO.N,GP1*%
X339000000Y-125500000D03*
%TO.N,GP0*%
X336500000Y-107000000D03*
%TO.N,GP1*%
X336500000Y-104000000D03*
%TO.N,GP0*%
X359000000Y-123500000D03*
%TO.N,GP1*%
X358000000Y-123432900D03*
%TD*%
D33*
%TO.N,GP4*%
X281766052Y-188500000D02*
X290500000Y-188500000D01*
X298085000Y-175395000D02*
X298085000Y-180915000D01*
X298085000Y-180915000D02*
X290500000Y-188500000D01*
%TO.N,GP2*%
X260085000Y-181110000D02*
X260085000Y-185425000D01*
X260085000Y-185425000D02*
X244510000Y-201000000D01*
X244510000Y-201000000D02*
X244000000Y-201000000D01*
%TO.N,GP3*%
X279085000Y-179205000D02*
X279085000Y-183520000D01*
X279085000Y-183520000D02*
X268605000Y-194000000D01*
X268605000Y-194000000D02*
X268000000Y-194000000D01*
%TO.N,mirror_ring_home*%
X308350000Y-165415000D02*
X306190000Y-165415000D01*
X304158000Y-162745000D02*
X304158000Y-163383000D01*
X304158000Y-163383000D02*
X306190000Y-165415000D01*
X318275000Y-153915000D02*
X315826000Y-156364000D01*
X315826000Y-156364000D02*
X314338000Y-156364000D01*
X312788000Y-154814000D02*
X308819077Y-154814000D01*
X314338000Y-156364000D02*
X312788000Y-154814000D01*
X308819077Y-154814000D02*
X306500000Y-157133077D01*
X306500000Y-160403000D02*
X304158000Y-162745000D01*
X306500000Y-157133077D02*
X306500000Y-160403000D01*
%TO.N,GP6*%
X335500000Y-120500000D02*
X336000000Y-121000000D01*
X336000000Y-121000000D02*
X336000000Y-124025000D01*
X336000000Y-124025000D02*
X336085000Y-124110000D01*
%TO.N,GP12*%
X330650000Y-148320000D02*
X332810000Y-148320000D01*
%TO.N,GP9*%
X285272414Y-204859446D02*
X287024518Y-204859446D01*
%TO.N,GP10*%
X349650000Y-197750000D02*
X351810000Y-197750000D01*
%TO.N,GP11*%
X349650000Y-178750000D02*
X351810000Y-178750000D01*
%TO.N,GP13*%
X349650000Y-140750000D02*
X351810000Y-140750000D01*
%TO.N,GP12*%
X349650000Y-159750000D02*
X351810000Y-159750000D01*
%TO.N,GP10*%
X330650000Y-186320000D02*
X332810000Y-186320000D01*
X311650000Y-184415000D02*
X313810000Y-184415000D01*
X292650000Y-180605000D02*
X294810000Y-180605000D01*
X273650000Y-184415000D02*
X275810000Y-184415000D01*
X254650000Y-186320000D02*
X256810000Y-186320000D01*
%TO.N,GP11*%
X330650000Y-167320000D02*
X332810000Y-167320000D01*
X311650000Y-165415000D02*
X313810000Y-165415000D01*
X292650000Y-161605000D02*
X294810000Y-161605000D01*
X273650000Y-165415000D02*
X275810000Y-165415000D01*
X254650000Y-167320000D02*
X256810000Y-167320000D01*
%TO.N,GP12*%
X311650000Y-146415000D02*
X313810000Y-146415000D01*
X292650000Y-142605000D02*
X294810000Y-142605000D01*
X273650000Y-146415000D02*
X275810000Y-146415000D01*
X254650000Y-148320000D02*
X256810000Y-148320000D01*
%TO.N,GP13*%
X311650000Y-127415000D02*
X313810000Y-127415000D01*
X292650000Y-123605000D02*
X294810000Y-123605000D01*
X273650000Y-127415000D02*
X275810000Y-127415000D01*
X254650000Y-129320000D02*
X256810000Y-129320000D01*
%TO.N,GP9*%
X239064453Y-216947583D02*
X239803217Y-216208819D01*
X239803217Y-216208819D02*
X241094189Y-216208819D01*
X261958362Y-210095623D02*
X262517412Y-209536573D01*
X262517412Y-209536573D02*
X264044761Y-209536573D01*
%TO.N,mirror_center_only*%
X258770806Y-210949725D02*
X258211756Y-211508775D01*
X258211756Y-211508775D02*
X256684407Y-211508775D01*
X254030598Y-209455673D02*
X254631305Y-209455673D01*
X254631305Y-209455673D02*
X256684407Y-211508775D01*
X265381201Y-197272800D02*
X265381201Y-197574734D01*
X265381201Y-197574734D02*
X262770186Y-200185749D01*
X262770186Y-200185749D02*
X257177813Y-200185749D01*
X257177813Y-200185749D02*
X254752833Y-202610729D01*
X254752833Y-202610729D02*
X254752833Y-208733438D01*
X254752833Y-208733438D02*
X254030598Y-209455673D01*
%TO.N,mirror_inner_only*%
X282022548Y-205432484D02*
X280270444Y-205432484D01*
X280270444Y-205432484D02*
X279895363Y-205807565D01*
X277430593Y-203530981D02*
X277618779Y-203530981D01*
X277618779Y-203530981D02*
X279895363Y-205807565D01*
X289799810Y-192383737D02*
X287380112Y-194803435D01*
X287380112Y-194803435D02*
X283623360Y-194803435D01*
X279450707Y-201510867D02*
X277430593Y-203530981D01*
X283623360Y-194803435D02*
X283482630Y-194662705D01*
X283482630Y-194662705D02*
X281120784Y-194662705D01*
X281120784Y-194662705D02*
X279450707Y-196332782D01*
X279450707Y-196332782D02*
X279450707Y-201510867D01*
%TO.N,GP4*%
X278043255Y-192222797D02*
X281766052Y-188500000D01*
X290500000Y-188500000D02*
X291000000Y-188500000D01*
X291000000Y-188500000D02*
X293000000Y-190500000D01*
X293000000Y-190500000D02*
X293000000Y-197500000D01*
X293000000Y-197500000D02*
X291715181Y-198784819D01*
X291715181Y-198784819D02*
X289720136Y-198784819D01*
%TO.N,GP3*%
X253655356Y-198137123D02*
X253655356Y-196791264D01*
X253655356Y-196791264D02*
X256446620Y-194000000D01*
X256446620Y-194000000D02*
X268000000Y-194000000D01*
X268000000Y-194000000D02*
X269000000Y-195000000D01*
X269000000Y-195000000D02*
X269000000Y-200516189D01*
X269000000Y-200516189D02*
X265859721Y-203656468D01*
%TO.N,GP2*%
X229750791Y-205758243D02*
X229750791Y-204374812D01*
X229750791Y-204374812D02*
X233125603Y-201000000D01*
X233125603Y-201000000D02*
X244000000Y-201000000D01*
X244000000Y-201000000D02*
X245000000Y-202000000D01*
X245000000Y-202000000D02*
X245000000Y-207582662D01*
X245000000Y-207582662D02*
X242389757Y-210192905D01*
%TO.N,mirror_reach_only*%
X235963467Y-218076249D02*
X235224703Y-218815013D01*
X235224703Y-218815013D02*
X233933731Y-218815013D01*
X231111082Y-217001018D02*
X232925077Y-218815013D01*
X232925077Y-218815013D02*
X233933731Y-218815013D01*
X241356685Y-203875234D02*
X241356685Y-204535566D01*
X231390665Y-216721435D02*
X231111082Y-217001018D01*
X241356685Y-204535566D02*
X238513953Y-207378298D01*
X238513953Y-207378298D02*
X233682381Y-207378298D01*
X233682381Y-207378298D02*
X231390665Y-209670014D01*
X231390665Y-209670014D02*
X231390665Y-216721435D01*
%TO.N,mirror_inner_bottom*%
X251350000Y-186320000D02*
X249190000Y-186320000D01*
X247158000Y-183650000D02*
X247158000Y-184288000D01*
X247158000Y-184288000D02*
X249190000Y-186320000D01*
X261275000Y-174820000D02*
X258825962Y-177269038D01*
X254180923Y-175719000D02*
X251819077Y-175719000D01*
X258825962Y-177269038D02*
X255730961Y-177269038D01*
X249221000Y-181587000D02*
X247158000Y-183650000D01*
X255730961Y-177269038D02*
X254180923Y-175719000D01*
X251819077Y-175719000D02*
X249221000Y-178317077D01*
X249221000Y-178317077D02*
X249221000Y-181587000D01*
%TO.N,mirror_index_bottom*%
X270350000Y-184415000D02*
X268190000Y-184415000D01*
X266158000Y-181745000D02*
X266158000Y-182383000D01*
X266158000Y-182383000D02*
X268190000Y-184415000D01*
X280275000Y-172915000D02*
X278424000Y-174766000D01*
X278424000Y-174766000D02*
X274132923Y-174766000D01*
X274132923Y-174766000D02*
X273180923Y-173814000D01*
X273180923Y-173814000D02*
X270819077Y-173814000D01*
X270819077Y-173814000D02*
X268221000Y-176412077D01*
X268221000Y-176412077D02*
X268221000Y-179682000D01*
X268221000Y-179682000D02*
X266158000Y-181745000D01*
%TO.N,mirror_inner_home*%
X251350000Y-167320000D02*
X249190000Y-167320000D01*
X247158000Y-164650000D02*
X247158000Y-165288000D01*
X247158000Y-165288000D02*
X249190000Y-167320000D01*
X261275000Y-155820000D02*
X259424000Y-157671000D01*
X255132923Y-157671000D02*
X254180923Y-156719000D01*
X249221000Y-158968892D02*
X249221000Y-162587000D01*
X259424000Y-157671000D02*
X255132923Y-157671000D01*
X251470892Y-156719000D02*
X249221000Y-158968892D01*
X254180923Y-156719000D02*
X251470892Y-156719000D01*
X249221000Y-162587000D02*
X247158000Y-164650000D01*
%TO.N,mirror_index_home*%
X270350000Y-165415000D02*
X268190000Y-165415000D01*
X266158000Y-162745000D02*
X266158000Y-163383000D01*
X266158000Y-163383000D02*
X268190000Y-165415000D01*
X280275000Y-153915000D02*
X278424000Y-155766000D01*
X278424000Y-155766000D02*
X274132923Y-155766000D01*
X274132923Y-155766000D02*
X273180923Y-154814000D01*
X273180923Y-154814000D02*
X270819077Y-154814000D01*
X270819077Y-154814000D02*
X268221000Y-157412077D01*
X268221000Y-157412077D02*
X268221000Y-160682000D01*
X268221000Y-160682000D02*
X266158000Y-162745000D01*
%TO.N,mirror_outer_bottom*%
X346350000Y-197750000D02*
X344190000Y-197750000D01*
X342158000Y-195080000D02*
X342158000Y-195718000D01*
X342158000Y-195718000D02*
X344190000Y-197750000D01*
X356275000Y-186250000D02*
X354424000Y-188101000D01*
X344221000Y-193017000D02*
X342158000Y-195080000D01*
X354424000Y-188101000D02*
X350132923Y-188101000D01*
X350132923Y-188101000D02*
X349180923Y-187149000D01*
X349180923Y-187149000D02*
X346351000Y-187149000D01*
X346351000Y-187149000D02*
X344221000Y-189279000D01*
X344221000Y-189279000D02*
X344221000Y-193017000D01*
%TO.N,mirror_middle_bottom*%
X289350000Y-180605000D02*
X287190000Y-180605000D01*
X285158000Y-177935000D02*
X285158000Y-178573000D01*
X285158000Y-178573000D02*
X287190000Y-180605000D01*
X299275000Y-169105000D02*
X296826000Y-171554000D01*
X296826000Y-171554000D02*
X295446000Y-171554000D01*
X289819077Y-170004000D02*
X287388645Y-172434432D01*
X295446000Y-171554000D02*
X293896000Y-170004000D01*
X293896000Y-170004000D02*
X289819077Y-170004000D01*
X287388645Y-172434432D02*
X287388645Y-175704355D01*
X287388645Y-175704355D02*
X285158000Y-177935000D01*
%TO.N,mirror_ring_bottom*%
X308350000Y-184415000D02*
X306190000Y-184415000D01*
X304158000Y-181745000D02*
X304158000Y-182383000D01*
X304158000Y-182383000D02*
X306190000Y-184415000D01*
X318275000Y-172915000D02*
X316424000Y-174766000D01*
X313282000Y-173814000D02*
X308686000Y-173814000D01*
X316424000Y-174766000D02*
X314234000Y-174766000D01*
X306221000Y-179682000D02*
X304158000Y-181745000D01*
X314234000Y-174766000D02*
X313282000Y-173814000D01*
X308686000Y-173814000D02*
X306221000Y-176279000D01*
X306221000Y-176279000D02*
X306221000Y-179682000D01*
%TO.N,mirror_pinky_bottom*%
X327350000Y-186320000D02*
X325190000Y-186320000D01*
X323158000Y-183650000D02*
X323158000Y-184288000D01*
X323158000Y-184288000D02*
X325190000Y-186320000D01*
X337275000Y-174820000D02*
X334826000Y-177269000D01*
X334826000Y-177269000D02*
X331730923Y-177269000D01*
X331730923Y-177269000D02*
X330180923Y-175719000D01*
X330180923Y-175719000D02*
X327781000Y-175719000D01*
X327781000Y-175719000D02*
X325221000Y-178279000D01*
X325221000Y-178279000D02*
X325221000Y-181587000D01*
X325221000Y-181587000D02*
X323158000Y-183650000D01*
%TO.N,mirror_pinky_home*%
X327350000Y-167320000D02*
X325190000Y-167320000D01*
X323158000Y-164650000D02*
X323158000Y-165288000D01*
X323158000Y-165288000D02*
X325190000Y-167320000D01*
X337275000Y-155820000D02*
X335424000Y-157671000D01*
X327819077Y-156719000D02*
X325221000Y-159317077D01*
X325221000Y-162587000D02*
X323158000Y-164650000D01*
X335424000Y-157671000D02*
X331132923Y-157671000D01*
X331132923Y-157671000D02*
X330180923Y-156719000D01*
X330180923Y-156719000D02*
X327819077Y-156719000D01*
X325221000Y-159317077D02*
X325221000Y-162587000D01*
%TO.N,mirror_outer_home*%
X346350000Y-178750000D02*
X344190000Y-178750000D01*
X342158000Y-176080000D02*
X342158000Y-176718000D01*
X342158000Y-176718000D02*
X344190000Y-178750000D01*
X356275000Y-167250000D02*
X354424000Y-169101000D01*
X354424000Y-169101000D02*
X350132923Y-169101000D01*
X345149000Y-169819077D02*
X345149000Y-173089000D01*
X350132923Y-169101000D02*
X349180923Y-168149000D01*
X349180923Y-168149000D02*
X346819077Y-168149000D01*
X346819077Y-168149000D02*
X345149000Y-169819077D01*
X345149000Y-173089000D02*
X342158000Y-176080000D01*
%TO.N,mirror_outer_top*%
X346350000Y-159750000D02*
X344190000Y-159750000D01*
X342158000Y-157080000D02*
X342158000Y-157718000D01*
X342158000Y-157718000D02*
X344190000Y-159750000D01*
X356275000Y-148250000D02*
X354424000Y-150101000D01*
X354424000Y-150101000D02*
X350132923Y-150101000D01*
X350132923Y-150101000D02*
X349180923Y-149149000D01*
X346533108Y-149149000D02*
X344221000Y-151461108D01*
X349180923Y-149149000D02*
X346533108Y-149149000D01*
X344221000Y-151461108D02*
X344221000Y-155017000D01*
X344221000Y-155017000D02*
X342158000Y-157080000D01*
%TO.N,mirror_middle_home*%
X289350000Y-161605000D02*
X287190000Y-161605000D01*
X285158000Y-158935000D02*
X285158000Y-159573000D01*
X285158000Y-159573000D02*
X287190000Y-161605000D01*
X299275000Y-150105000D02*
X296826000Y-152554000D01*
X296826000Y-152554000D02*
X295446000Y-152554000D01*
X287500000Y-153323077D02*
X287500000Y-156593000D01*
X287500000Y-156593000D02*
X285158000Y-158935000D01*
X295446000Y-152554000D02*
X293896000Y-151004000D01*
X293896000Y-151004000D02*
X289819077Y-151004000D01*
X289819077Y-151004000D02*
X287500000Y-153323077D01*
%TO.N,mirror_middle_top*%
X289350000Y-142605000D02*
X287190000Y-142605000D01*
X285158000Y-139935000D02*
X285158000Y-140573000D01*
X285158000Y-140573000D02*
X287190000Y-142605000D01*
X299275000Y-131105000D02*
X297424000Y-132956000D01*
X297424000Y-132956000D02*
X293132923Y-132956000D01*
X293132923Y-132956000D02*
X292180923Y-132004000D01*
X292180923Y-132004000D02*
X289819077Y-132004000D01*
X289819077Y-132004000D02*
X288000000Y-133823077D01*
X288000000Y-133823077D02*
X288000000Y-137093000D01*
X288000000Y-137093000D02*
X285158000Y-139935000D01*
%TO.N,mirror_ring_top*%
X308350000Y-146415000D02*
X306190000Y-146415000D01*
X304158000Y-143745000D02*
X304158000Y-144383000D01*
X304158000Y-144383000D02*
X306190000Y-146415000D01*
X318275000Y-134915000D02*
X315826000Y-137364000D01*
X314541108Y-137364000D02*
X312991108Y-135814000D01*
X315826000Y-137364000D02*
X314541108Y-137364000D01*
X312991108Y-135814000D02*
X308533108Y-135814000D01*
X308533108Y-135814000D02*
X306221000Y-138126108D01*
X306221000Y-138126108D02*
X306221000Y-141682000D01*
X306221000Y-141682000D02*
X304158000Y-143745000D01*
%TO.N,mirror_pinky_top*%
X327350000Y-148320000D02*
X325190000Y-148320000D01*
X323158000Y-145650000D02*
X323158000Y-146288000D01*
X323158000Y-146288000D02*
X325190000Y-148320000D01*
X337275000Y-136820000D02*
X335424000Y-138671000D01*
X330180923Y-137719000D02*
X327533108Y-137719000D01*
X335424000Y-138671000D02*
X331132923Y-138671000D01*
X331132923Y-138671000D02*
X330180923Y-137719000D01*
X327533108Y-137719000D02*
X325221000Y-140031108D01*
X325221000Y-140031108D02*
X325221000Y-143587000D01*
X325221000Y-143587000D02*
X323158000Y-145650000D01*
%TO.N,mirror_outer_num*%
X346350000Y-140750000D02*
X344190000Y-140750000D01*
X342158000Y-138080000D02*
X342158000Y-138718000D01*
X342158000Y-138718000D02*
X344190000Y-140750000D01*
%TO.N,mirror_ring_num*%
X308350000Y-127415000D02*
X306190000Y-127415000D01*
X304158000Y-124745000D02*
X304158000Y-125383000D01*
X304158000Y-125383000D02*
X306190000Y-127415000D01*
X318275000Y-115915000D02*
X316424000Y-117766000D01*
X312132923Y-117766000D02*
X310866923Y-116500000D01*
X316424000Y-117766000D02*
X312132923Y-117766000D01*
X310866923Y-116500000D02*
X308847108Y-116500000D01*
X308847108Y-116500000D02*
X306221000Y-119126108D01*
X306221000Y-119126108D02*
X306221000Y-122682000D01*
X306221000Y-122682000D02*
X304158000Y-124745000D01*
%TO.N,mirror_middle_num*%
X289350000Y-123605000D02*
X287190000Y-123605000D01*
X285158000Y-120935000D02*
X285158000Y-121573000D01*
X285158000Y-121573000D02*
X287190000Y-123605000D01*
X299275000Y-112105000D02*
X296826000Y-114554000D01*
X293730923Y-114554000D02*
X292180923Y-113004000D01*
X296826000Y-114554000D02*
X293730923Y-114554000D01*
X287221000Y-118872000D02*
X285158000Y-120935000D01*
X292180923Y-113004000D02*
X289819077Y-113004000D01*
X289819077Y-113004000D02*
X287221000Y-115602077D01*
X287221000Y-115602077D02*
X287221000Y-118872000D01*
%TO.N,mirror_index_top*%
X266158000Y-143745000D02*
X266158000Y-144383000D01*
X266158000Y-144383000D02*
X268190000Y-146415000D01*
X270350000Y-146415000D02*
X268190000Y-146415000D01*
X280275000Y-134915000D02*
X278424000Y-136766000D01*
X273180923Y-135814000D02*
X270819077Y-135814000D01*
X278424000Y-136766000D02*
X274132923Y-136766000D01*
X274132923Y-136766000D02*
X273180923Y-135814000D01*
X270819077Y-135814000D02*
X268221000Y-138412077D01*
X268221000Y-138412077D02*
X268221000Y-141682000D01*
X268221000Y-141682000D02*
X266158000Y-143745000D01*
%TO.N,mirror_inner_top*%
X247158000Y-145650000D02*
X247158000Y-146288000D01*
X247158000Y-146288000D02*
X249190000Y-148320000D01*
X251350000Y-148320000D02*
X249190000Y-148320000D01*
X261275000Y-136820000D02*
X259424000Y-138671000D01*
X256228000Y-137719000D02*
X251781000Y-137719000D01*
X259424000Y-138671000D02*
X257180000Y-138671000D01*
X257180000Y-138671000D02*
X256228000Y-137719000D01*
X251781000Y-137719000D02*
X249221000Y-140279000D01*
X249221000Y-140279000D02*
X249221000Y-143587000D01*
X249221000Y-143587000D02*
X247158000Y-145650000D01*
%TO.N,mirror_index_num*%
X270350000Y-127415000D02*
X268190000Y-127415000D01*
X266158000Y-124745000D02*
X266158000Y-125383000D01*
X266158000Y-125383000D02*
X268190000Y-127415000D01*
X280275000Y-115915000D02*
X278424000Y-117766000D01*
X270686000Y-116814000D02*
X268221000Y-119279000D01*
X278424000Y-117766000D02*
X274132923Y-117766000D01*
X274132923Y-117766000D02*
X273180923Y-116814000D01*
X273180923Y-116814000D02*
X270686000Y-116814000D01*
X268221000Y-119279000D02*
X268221000Y-122682000D01*
X268221000Y-122682000D02*
X266158000Y-124745000D01*
%TO.N,mirror_inner_num*%
X251350000Y-129320000D02*
X249190000Y-129320000D01*
X247158000Y-126650000D02*
X247158000Y-127288000D01*
X247158000Y-127288000D02*
X249190000Y-129320000D01*
%TO.N,GP2*%
X260085000Y-124110000D02*
X260085000Y-124209000D01*
X260085000Y-124209000D02*
X262876000Y-127000000D01*
X262876000Y-127000000D02*
X262876000Y-132000000D01*
%TO.N,GP5*%
X319876000Y-124996000D02*
X319876000Y-130000000D01*
X306725000Y-132715000D02*
X309440000Y-130000000D01*
X309440000Y-130000000D02*
X319876000Y-130000000D01*
%TO.N,GP4*%
X300876000Y-121186000D02*
X300876000Y-125500000D01*
X287725000Y-128905000D02*
X291130000Y-125500000D01*
X291130000Y-125500000D02*
X300876000Y-125500000D01*
%TO.N,GP3*%
X281876000Y-124996000D02*
X281876000Y-130000000D01*
X271440000Y-130000000D02*
X281876000Y-130000000D01*
X268725000Y-132715000D02*
X271440000Y-130000000D01*
%TO.N,GP2*%
X249725000Y-134620000D02*
X252345000Y-132000000D01*
X252345000Y-132000000D02*
X262876000Y-132000000D01*
X262876000Y-145901000D02*
X262876000Y-150500000D01*
X249725000Y-153620000D02*
X252845000Y-150500000D01*
X252845000Y-150500000D02*
X262876000Y-150500000D01*
X262876000Y-164901000D02*
X262876000Y-170000000D01*
X249725000Y-172620000D02*
X252345000Y-170000000D01*
X252345000Y-170000000D02*
X262876000Y-170000000D01*
%TO.N,GP3*%
X281876000Y-143996000D02*
X281876000Y-149000000D01*
X268725000Y-151715000D02*
X271440000Y-149000000D01*
X271440000Y-149000000D02*
X281876000Y-149000000D01*
X281876000Y-176414000D02*
X281876000Y-168000000D01*
X268725000Y-170715000D02*
X271440000Y-168000000D01*
X271440000Y-168000000D02*
X281876000Y-168000000D01*
%TO.N,GP4*%
X300876000Y-140186000D02*
X300876000Y-145000000D01*
X290630000Y-145000000D02*
X300876000Y-145000000D01*
X287725000Y-147905000D02*
X290630000Y-145000000D01*
X300876000Y-172604000D02*
X300876000Y-164000000D01*
X287725000Y-166905000D02*
X290630000Y-164000000D01*
X290630000Y-164000000D02*
X300876000Y-164000000D01*
%TO.N,GP5*%
X319876000Y-143996000D02*
X319876000Y-149000000D01*
X306725000Y-151715000D02*
X309440000Y-149000000D01*
X309440000Y-149000000D02*
X319876000Y-149000000D01*
%TO.N,GP6*%
X338876000Y-145901000D02*
X338876000Y-150500000D01*
X325725000Y-153620000D02*
X328845000Y-150500000D01*
X328845000Y-150500000D02*
X338876000Y-150500000D01*
X338876000Y-164901000D02*
X338876000Y-169500000D01*
X328845000Y-169500000D02*
X338876000Y-169500000D01*
X325725000Y-172620000D02*
X328845000Y-169500000D01*
%TO.N,GP5*%
X319876000Y-162996000D02*
X319876000Y-167500000D01*
X306725000Y-170715000D02*
X309940000Y-167500000D01*
X309940000Y-167500000D02*
X319876000Y-167500000D01*
%TO.N,GP6*%
X336085000Y-162110000D02*
X338876000Y-164901000D01*
X338876000Y-169500000D02*
X338876000Y-178319000D01*
X338876000Y-178319000D02*
X336085000Y-181110000D01*
X336085000Y-143110000D02*
X338876000Y-145901000D01*
X338876000Y-150500000D02*
X338876000Y-159319000D01*
X338876000Y-159319000D02*
X336085000Y-162110000D01*
%TO.N,GP3*%
X279085000Y-122205000D02*
X281876000Y-124996000D01*
X281876000Y-130000000D02*
X281876000Y-138414000D01*
X281876000Y-138414000D02*
X279085000Y-141205000D01*
%TO.N,GP4*%
X298085000Y-118395000D02*
X300876000Y-121186000D01*
X300876000Y-125500000D02*
X300876000Y-134604000D01*
X300876000Y-134604000D02*
X298085000Y-137395000D01*
%TO.N,GP5*%
X317085000Y-141205000D02*
X319876000Y-143996000D01*
X319876000Y-149000000D02*
X319876000Y-157414000D01*
X319876000Y-157414000D02*
X317085000Y-160205000D01*
X317085000Y-160205000D02*
X319876000Y-162996000D01*
X319876000Y-167500000D02*
X319876000Y-176414000D01*
X319876000Y-176414000D02*
X317085000Y-179205000D01*
%TO.N,GP4*%
X298085000Y-137395000D02*
X300876000Y-140186000D01*
X300876000Y-145000000D02*
X300876000Y-153604000D01*
X300876000Y-153604000D02*
X298085000Y-156395000D01*
X298085000Y-175395000D02*
X300876000Y-172604000D01*
X300876000Y-164000000D02*
X300876000Y-159186000D01*
X300876000Y-159186000D02*
X298085000Y-156395000D01*
%TO.N,GP3*%
X279085000Y-141205000D02*
X281876000Y-143996000D01*
X281876000Y-149000000D02*
X281876000Y-157414000D01*
X281876000Y-157414000D02*
X279085000Y-160205000D01*
X281876000Y-168000000D02*
X281876000Y-162996000D01*
X281876000Y-162996000D02*
X279085000Y-160205000D01*
%TO.N,GP2*%
X260085000Y-162110000D02*
X262876000Y-164901000D01*
X262876000Y-170000000D02*
X262876000Y-178319000D01*
X262876000Y-178319000D02*
X260085000Y-181110000D01*
X260085000Y-143110000D02*
X262876000Y-145901000D01*
X262876000Y-150500000D02*
X262876000Y-159319000D01*
X262876000Y-159319000D02*
X260085000Y-162110000D01*
%TO.N,GP5*%
X317085000Y-122205000D02*
X319876000Y-124996000D01*
X319876000Y-130000000D02*
X319876000Y-138414000D01*
X319876000Y-138414000D02*
X317085000Y-141205000D01*
X317864000Y-111864000D02*
X320000000Y-114000000D01*
X308576000Y-111864000D02*
X317864000Y-111864000D01*
X320000000Y-114000000D02*
X320000000Y-119290000D01*
X320000000Y-119290000D02*
X317085000Y-122205000D01*
X306725000Y-113715000D02*
X308576000Y-111864000D01*
%TO.N,GP4*%
X300054000Y-108054000D02*
X301000000Y-109000000D01*
X289576000Y-108054000D02*
X300054000Y-108054000D01*
X287725000Y-109905000D02*
X289576000Y-108054000D01*
X301000000Y-115480000D02*
X298085000Y-118395000D01*
X301000000Y-109000000D02*
X301000000Y-115480000D01*
%TO.N,GP3*%
X281500000Y-111500000D02*
X282000000Y-112000000D01*
X270940000Y-111500000D02*
X281500000Y-111500000D01*
X268725000Y-113715000D02*
X270940000Y-111500000D01*
X282000000Y-112000000D02*
X282000000Y-119290000D01*
X282000000Y-119290000D02*
X279085000Y-122205000D01*
%TO.N,GP2*%
X262876000Y-140319000D02*
X260085000Y-143110000D01*
X262876000Y-132000000D02*
X262876000Y-140319000D01*
X251845000Y-113500000D02*
X263000000Y-113500000D01*
X249725000Y-115620000D02*
X251845000Y-113500000D01*
X263000000Y-113500000D02*
X263000000Y-121195000D01*
X263000000Y-121195000D02*
X260085000Y-124110000D01*
%TO.N,GP7*%
X357876000Y-176331000D02*
X357876000Y-182000000D01*
X344725000Y-184050000D02*
X346824000Y-181951000D01*
X346824000Y-181951000D02*
X357827000Y-181951000D01*
X357827000Y-181951000D02*
X357876000Y-182000000D01*
X357876000Y-182000000D02*
X357876000Y-189749000D01*
X357876000Y-138331000D02*
X357876000Y-144000000D01*
X344725000Y-146050000D02*
X346775000Y-144000000D01*
X346775000Y-144000000D02*
X357876000Y-144000000D01*
X357876000Y-157331000D02*
X357876000Y-162500000D01*
X347275000Y-162500000D02*
X357876000Y-162500000D01*
X344725000Y-165050000D02*
X347275000Y-162500000D01*
X355085000Y-173540000D02*
X357876000Y-176331000D01*
X357876000Y-189749000D02*
X355085000Y-192540000D01*
X355085000Y-154540000D02*
X357876000Y-157331000D01*
X357876000Y-162500000D02*
X357876000Y-170749000D01*
X357876000Y-170749000D02*
X355085000Y-173540000D01*
X355085000Y-135540000D02*
X357876000Y-138331000D01*
X357876000Y-144000000D02*
X357876000Y-151749000D01*
X357876000Y-151749000D02*
X355085000Y-154540000D01*
X355699000Y-125199000D02*
X358500000Y-128000000D01*
X346576000Y-125199000D02*
X355699000Y-125199000D01*
X344725000Y-127050000D02*
X346576000Y-125199000D01*
X358500000Y-128000000D02*
X358500000Y-132125000D01*
X358500000Y-132125000D02*
X355085000Y-135540000D01*
%TO.N,GP13*%
X330650000Y-129320000D02*
X332810000Y-129320000D01*
%TO.N,mirror_pinky_num*%
X325190000Y-129320000D02*
X327350000Y-129320000D01*
X323158000Y-126650000D02*
X323158000Y-127288000D01*
X323158000Y-127288000D02*
X325190000Y-129320000D01*
%TO.N,GP6*%
X338876000Y-126901000D02*
X338876000Y-131500000D01*
X325725000Y-134620000D02*
X328845000Y-131500000D01*
X328845000Y-131500000D02*
X338876000Y-131500000D01*
X336085000Y-124110000D02*
X338876000Y-126901000D01*
X338876000Y-131500000D02*
X338876000Y-140319000D01*
X338876000Y-140319000D02*
X336085000Y-143110000D01*
X327845000Y-113500000D02*
X334000000Y-113500000D01*
X325725000Y-115620000D02*
X327845000Y-113500000D01*
%TO.N,mirror_pinky_num*%
X337275000Y-117820000D02*
X335424000Y-119671000D01*
X335424000Y-119671000D02*
X331132923Y-119671000D01*
X326000000Y-123808000D02*
X323158000Y-126650000D01*
X331132923Y-119671000D02*
X330180923Y-118719000D01*
X330180923Y-118719000D02*
X327819077Y-118719000D01*
X327819077Y-118719000D02*
X326000000Y-120538077D01*
X326000000Y-120538077D02*
X326000000Y-123808000D01*
%TO.N,GP1*%
X337500000Y-105000000D02*
X337500000Y-110500000D01*
X336500000Y-104000000D02*
X337500000Y-105000000D01*
X340401000Y-124099000D02*
X339000000Y-125500000D01*
X341000000Y-124099000D02*
X340401000Y-124099000D01*
%TO.N,GP0*%
X341000000Y-124500000D02*
X340000000Y-125500000D01*
%TO.N,GP1*%
X357500000Y-124099000D02*
X341000000Y-124099000D01*
X358000000Y-123432900D02*
X358000000Y-123932900D01*
X358000000Y-123932900D02*
X357833900Y-124099000D01*
X357833900Y-124099000D02*
X357500000Y-124099000D01*
%TO.N,GP0*%
X345500000Y-124500000D02*
X341000000Y-124500000D01*
X358000000Y-124500000D02*
X345500000Y-124500000D01*
X359000000Y-123500000D02*
X358000000Y-124500000D01*
%TO.N,GP7*%
X356030000Y-118420000D02*
X357420000Y-118420000D01*
X357420000Y-118420000D02*
X359995000Y-120995000D01*
X359995000Y-120995000D02*
X359995000Y-187630000D01*
X359995000Y-187630000D02*
X355085000Y-192540000D01*
%TO.N,GP4*%
X289720136Y-198784819D02*
X296272317Y-205337000D01*
X296272317Y-205337000D02*
X305528800Y-205337000D01*
X305528800Y-205337000D02*
X309667800Y-201198000D01*
X309667800Y-201198000D02*
X357667800Y-201198000D01*
X357667800Y-201198000D02*
X361198000Y-197667800D01*
X361198000Y-197667800D02*
X361198000Y-119000000D01*
%TO.N,GP6*%
X356030000Y-115880000D02*
X356150000Y-116000000D01*
X356150000Y-116000000D02*
X358000000Y-116000000D01*
X358000000Y-116000000D02*
X360396000Y-118396000D01*
X360396000Y-118396000D02*
X360396000Y-197335600D01*
X336085000Y-193981000D02*
X336085000Y-181110000D01*
X360396000Y-197335600D02*
X357335600Y-200396000D01*
X342500000Y-200396000D02*
X336085000Y-193981000D01*
X357335600Y-200396000D02*
X342500000Y-200396000D01*
%TO.N,GP5*%
X317085000Y-179205000D02*
X317085000Y-194382000D01*
X357501700Y-200797000D02*
X360797000Y-197501700D01*
X317085000Y-194382000D02*
X323500000Y-200797000D01*
X323500000Y-200797000D02*
X357501700Y-200797000D01*
X360797000Y-197501700D02*
X360797000Y-122000000D01*
%TO.N,GP3*%
X358966450Y-200466450D02*
X361599000Y-197833900D01*
X361599000Y-197833900D02*
X361599000Y-125500000D01*
%TO.N,GP5*%
X360797000Y-116797000D02*
X360797000Y-122000000D01*
%TO.N,GP3*%
X361599000Y-117500000D02*
X361599000Y-125500000D01*
%TO.N,GP4*%
X361198000Y-114198000D02*
X361198000Y-119000000D01*
%TO.N,GP5*%
X357340000Y-113340000D02*
X360797000Y-116797000D01*
X356030000Y-113340000D02*
X357340000Y-113340000D01*
%TO.N,GP4*%
X357800000Y-110800000D02*
X361198000Y-114198000D01*
X356030000Y-110800000D02*
X357800000Y-110800000D01*
%TO.N,GP3*%
X358359000Y-108260000D02*
X361599000Y-111500000D01*
X356030000Y-108260000D02*
X358359000Y-108260000D01*
X361599000Y-111500000D02*
X361599000Y-117500000D01*
%TO.N,GP2*%
X242389757Y-210192905D02*
X248631678Y-216434826D01*
X248631678Y-216434826D02*
X274842364Y-209411693D01*
X305861000Y-206139000D02*
X310000000Y-202000000D01*
X274842364Y-209411693D02*
X274876672Y-209377385D01*
X274876672Y-209377385D02*
X275048858Y-209377385D01*
X275048858Y-209377385D02*
X293435692Y-206135291D01*
X293435692Y-206135291D02*
X293439401Y-206139000D01*
X293439401Y-206139000D02*
X305861000Y-206139000D01*
X310000000Y-202000000D02*
X358000000Y-202000000D01*
X358000000Y-202000000D02*
X362000000Y-198000000D01*
X362000000Y-198000000D02*
X362000000Y-109500000D01*
X362000000Y-109500000D02*
X358220000Y-105720000D01*
X358220000Y-105720000D02*
X356030000Y-105720000D01*
%TO.N,GP3*%
X357833900Y-201599000D02*
X358966450Y-200466450D01*
X358966450Y-200466450D02*
X359216450Y-200216450D01*
X308966450Y-202466450D02*
X309833900Y-201599000D01*
X309833900Y-201599000D02*
X357833900Y-201599000D01*
X305694900Y-205738000D02*
X308966450Y-202466450D01*
X294996291Y-205734291D02*
X295000000Y-205738000D01*
X293269592Y-205734291D02*
X294996291Y-205734291D01*
X293241545Y-205762338D02*
X293269592Y-205734291D01*
X275013774Y-208976385D02*
X292425504Y-205906228D01*
X274634791Y-209052166D02*
X274710572Y-208976385D01*
X274710572Y-208976385D02*
X275013774Y-208976385D01*
X271852610Y-209649357D02*
X272406045Y-209649357D01*
X265859721Y-203656468D02*
X271852610Y-209649357D01*
X272406045Y-209649357D02*
X273339058Y-209399358D01*
X273339058Y-209399358D02*
X274634791Y-209052166D01*
X292425504Y-205906228D02*
X293241545Y-205762338D01*
X295000000Y-205738000D02*
X305694900Y-205738000D01*
X279085000Y-179205000D02*
X281876000Y-176414000D01*
%TO.N,mirror_inner_num*%
X251819077Y-118719000D02*
X249221000Y-121317077D01*
X261275000Y-117820000D02*
X258826000Y-120269000D01*
X249221000Y-121317077D02*
X249221000Y-124587000D01*
X254180923Y-118719000D02*
X251819077Y-118719000D01*
X249221000Y-124587000D02*
X247158000Y-126650000D01*
X258826000Y-120269000D02*
X255730923Y-120269000D01*
X255730923Y-120269000D02*
X254180923Y-118719000D01*
%TO.N,mirror_outer_num*%
X346819077Y-130149000D02*
X344221000Y-132747077D01*
X354424000Y-131101000D02*
X350132923Y-131101000D01*
X356275000Y-129250000D02*
X354424000Y-131101000D01*
X344221000Y-136017000D02*
X342158000Y-138080000D01*
X349180923Y-130149000D02*
X346819077Y-130149000D01*
X344221000Y-132747077D02*
X344221000Y-136017000D01*
X350132923Y-131101000D02*
X349180923Y-130149000D01*
%TO.N,GP9*%
X287024518Y-204859446D02*
X287399599Y-204484365D01*
%TD*%
M02*
