%TF.GenerationSoftware,KiCad,Pcbnew,9.0.6-1.fc43*%
%TF.CreationDate,2026-01-18T20:08:45+01:00*%
%TF.ProjectId,rightPCB,72696768-7450-4434-922e-6b696361645f,v1.0.0*%
%TF.SameCoordinates,Original*%
%TF.FileFunction,Soldermask,Top*%
%TF.FilePolarity,Negative*%
%FSLAX46Y46*%
G04 Gerber Fmt 4.6, Leading zero omitted, Abs format (unit mm)*
G04 Created by KiCad (PCBNEW 9.0.6-1.fc43) date 2026-01-18 20:08:45*
%MOMM*%
%LPD*%
G01*
G04 APERTURE LIST*
G04 Aperture macros list*
%AMRoundRect*
0 Rectangle with rounded corners*
0 $1 Rounding radius*
0 $2 $3 $4 $5 $6 $7 $8 $9 X,Y pos of 4 corners*
0 Add a 4 corners polygon primitive as box body*
4,1,4,$2,$3,$4,$5,$6,$7,$8,$9,$2,$3,0*
0 Add four circle primitives for the rounded corners*
1,1,$1+$1,$2,$3*
1,1,$1+$1,$4,$5*
1,1,$1+$1,$6,$7*
1,1,$1+$1,$8,$9*
0 Add four rect primitives between the rounded corners*
20,1,$1+$1,$2,$3,$4,$5,0*
20,1,$1+$1,$4,$5,$6,$7,0*
20,1,$1+$1,$6,$7,$8,$9,0*
20,1,$1+$1,$8,$9,$2,$3,0*%
G04 Aperture macros list end*
%ADD10C,5.100000*%
%ADD11C,3.100000*%
%ADD12C,4.200000*%
%ADD13C,2.000000*%
%ADD14RoundRect,0.050000X0.889000X0.889000X-0.889000X0.889000X-0.889000X-0.889000X0.889000X-0.889000X0*%
%ADD15C,2.005000*%
%ADD16RoundRect,0.050000X0.721121X1.029867X-1.029867X0.721121X-0.721121X-1.029867X1.029867X-0.721121X0*%
%ADD17RoundRect,0.050000X0.628618X1.088798X-1.088798X0.628618X-0.628618X-1.088798X1.088798X-0.628618X0*%
%ADD18RoundRect,0.050000X0.531331X1.139443X-1.139443X0.531331X-0.531331X-1.139443X1.139443X-0.531331X0*%
%ADD19C,1.600000*%
%ADD20O,2.300000X1.700000*%
%ADD21RoundRect,0.425000X-0.925000X-0.425000X0.925000X-0.425000X0.925000X0.425000X-0.925000X0.425000X0*%
%ADD22RoundRect,0.425050X-0.924950X-0.425050X0.924950X-0.425050X0.924950X0.425050X-0.924950X0.425050X0*%
%ADD23RoundRect,0.425000X-0.425000X-0.925000X0.425000X-0.925000X0.425000X0.925000X-0.425000X0.925000X0*%
%ADD24RoundRect,0.418700X-0.418700X-0.931300X0.418700X-0.931300X0.418700X0.931300X-0.418700X0.931300X0*%
%ADD25C,2.300000*%
G04 APERTURE END LIST*
D10*
%TO.C,S1*%
X348000000Y-190000000D03*
D11*
X348000000Y-184050000D03*
X353000000Y-186250000D03*
%TD*%
D10*
%TO.C,S2*%
X348000000Y-171000000D03*
D11*
X348000000Y-165050000D03*
X353000000Y-167250000D03*
%TD*%
D10*
%TO.C,S3*%
X348000000Y-152000000D03*
D11*
X348000000Y-146050000D03*
X353000000Y-148250000D03*
%TD*%
D10*
%TO.C,S4*%
X348000000Y-133000000D03*
D11*
X348000000Y-127050000D03*
X353000000Y-129250000D03*
%TD*%
D10*
%TO.C,S5*%
X329000000Y-178570000D03*
D11*
X329000000Y-172620000D03*
X334000000Y-174820000D03*
%TD*%
D10*
%TO.C,S6*%
X329000000Y-159570000D03*
D11*
X329000000Y-153620000D03*
X334000000Y-155820000D03*
%TD*%
D10*
%TO.C,S7*%
X329000000Y-140570000D03*
D11*
X329000000Y-134620000D03*
X334000000Y-136820000D03*
%TD*%
D10*
%TO.C,S8*%
X329000000Y-121570000D03*
D11*
X329000000Y-115620000D03*
X334000000Y-117820000D03*
%TD*%
D10*
%TO.C,S9*%
X310000000Y-176665000D03*
D11*
X310000000Y-170715000D03*
X315000000Y-172915000D03*
%TD*%
D10*
%TO.C,S10*%
X310000000Y-157665000D03*
D11*
X310000000Y-151715000D03*
X315000000Y-153915000D03*
%TD*%
D10*
%TO.C,S11*%
X310000000Y-138665000D03*
D11*
X310000000Y-132715000D03*
X315000000Y-134915000D03*
%TD*%
D10*
%TO.C,S12*%
X310000000Y-119665000D03*
D11*
X310000000Y-113715000D03*
X315000000Y-115915000D03*
%TD*%
D10*
%TO.C,S13*%
X291000000Y-172855000D03*
D11*
X291000000Y-166905000D03*
X296000000Y-169105000D03*
%TD*%
D10*
%TO.C,S14*%
X291000000Y-153855000D03*
D11*
X291000000Y-147905000D03*
X296000000Y-150105000D03*
%TD*%
D10*
%TO.C,S15*%
X291000000Y-134855000D03*
D11*
X291000000Y-128905000D03*
X296000000Y-131105000D03*
%TD*%
D10*
%TO.C,S16*%
X291000000Y-115855000D03*
D11*
X291000000Y-109905000D03*
X296000000Y-112105000D03*
%TD*%
D10*
%TO.C,S17*%
X272000000Y-176665000D03*
D11*
X272000000Y-170715000D03*
X277000000Y-172915000D03*
%TD*%
D10*
%TO.C,S18*%
X272000000Y-157665000D03*
D11*
X272000000Y-151715000D03*
X277000000Y-153915000D03*
%TD*%
D10*
%TO.C,S19*%
X272000000Y-138665000D03*
D11*
X272000000Y-132715000D03*
X277000000Y-134915000D03*
%TD*%
D10*
%TO.C,S20*%
X272000000Y-119665000D03*
D11*
X272000000Y-113715000D03*
X277000000Y-115915000D03*
%TD*%
D10*
%TO.C,S21*%
X253000000Y-178570000D03*
D11*
X253000000Y-172620000D03*
X258000000Y-174820000D03*
%TD*%
D10*
%TO.C,S22*%
X253000000Y-159570000D03*
D11*
X253000000Y-153620000D03*
X258000000Y-155820000D03*
%TD*%
D10*
%TO.C,S23*%
X253000000Y-140570000D03*
D11*
X253000000Y-134620000D03*
X258000000Y-136820000D03*
%TD*%
D10*
%TO.C,S25*%
X282301707Y-197513705D03*
D11*
X281268500Y-191654099D03*
X286574565Y-192952435D03*
%TD*%
D10*
%TO.C,S26*%
X258358736Y-203036749D03*
D11*
X256818763Y-197289490D03*
X262217794Y-198120432D03*
%TD*%
D10*
%TO.C,S27*%
X234863304Y-210229298D03*
D11*
X232828284Y-204638127D03*
X238279192Y-204995350D03*
%TD*%
D12*
%TO.C,S28*%
X348000000Y-190000000D03*
D13*
X342920000Y-190000000D03*
X353080000Y-190000000D03*
D11*
X345460000Y-195080000D03*
X351810000Y-192540000D03*
%TD*%
D12*
%TO.C,S29*%
X348000000Y-171000000D03*
D13*
X342920000Y-171000000D03*
X353080000Y-171000000D03*
D11*
X345460000Y-176080000D03*
X351810000Y-173540000D03*
%TD*%
D12*
%TO.C,S30*%
X348000000Y-152000000D03*
D13*
X342920000Y-152000000D03*
X353080000Y-152000000D03*
D11*
X345460000Y-157080000D03*
X351810000Y-154540000D03*
%TD*%
D12*
%TO.C,S31*%
X348000000Y-133000000D03*
D13*
X342920000Y-133000000D03*
X353080000Y-133000000D03*
D11*
X345460000Y-138080000D03*
X351810000Y-135540000D03*
%TD*%
D12*
%TO.C,S32*%
X329000000Y-178570000D03*
D13*
X323920000Y-178570000D03*
X334080000Y-178570000D03*
D11*
X326460000Y-183650000D03*
X332810000Y-181110000D03*
%TD*%
D12*
%TO.C,S33*%
X329000000Y-159570000D03*
D13*
X323920000Y-159570000D03*
X334080000Y-159570000D03*
D11*
X326460000Y-164650000D03*
X332810000Y-162110000D03*
%TD*%
D12*
%TO.C,S34*%
X329000000Y-140570000D03*
D13*
X323920000Y-140570000D03*
X334080000Y-140570000D03*
D11*
X326460000Y-145650000D03*
X332810000Y-143110000D03*
%TD*%
D12*
%TO.C,S35*%
X329000000Y-121570000D03*
D13*
X323920000Y-121570000D03*
X334080000Y-121570000D03*
D11*
X326460000Y-126650000D03*
X332810000Y-124110000D03*
%TD*%
D12*
%TO.C,S36*%
X310000000Y-176665000D03*
D13*
X304920000Y-176665000D03*
X315080000Y-176665000D03*
D11*
X307460000Y-181745000D03*
X313810000Y-179205000D03*
%TD*%
D12*
%TO.C,S37*%
X310000000Y-157665000D03*
D13*
X304920000Y-157665000D03*
X315080000Y-157665000D03*
D11*
X307460000Y-162745000D03*
X313810000Y-160205000D03*
%TD*%
D12*
%TO.C,S38*%
X310000000Y-138665000D03*
D13*
X304920000Y-138665000D03*
X315080000Y-138665000D03*
D11*
X307460000Y-143745000D03*
X313810000Y-141205000D03*
%TD*%
D12*
%TO.C,S39*%
X310000000Y-119665000D03*
D13*
X304920000Y-119665000D03*
X315080000Y-119665000D03*
D11*
X307460000Y-124745000D03*
X313810000Y-122205000D03*
%TD*%
D12*
%TO.C,S40*%
X291000000Y-172855000D03*
D13*
X285920000Y-172855000D03*
X296080000Y-172855000D03*
D11*
X288460000Y-177935000D03*
X294810000Y-175395000D03*
%TD*%
D12*
%TO.C,S41*%
X291000000Y-153855000D03*
D13*
X285920000Y-153855000D03*
X296080000Y-153855000D03*
D11*
X288460000Y-158935000D03*
X294810000Y-156395000D03*
%TD*%
D12*
%TO.C,S42*%
X291000000Y-134855000D03*
D13*
X285920000Y-134855000D03*
X296080000Y-134855000D03*
D11*
X288460000Y-139935000D03*
X294810000Y-137395000D03*
%TD*%
D12*
%TO.C,S43*%
X291000000Y-115855000D03*
D13*
X285920000Y-115855000D03*
X296080000Y-115855000D03*
D11*
X288460000Y-120935000D03*
X294810000Y-118395000D03*
%TD*%
D12*
%TO.C,S44*%
X272000000Y-176665000D03*
D13*
X266920000Y-176665000D03*
X277080000Y-176665000D03*
D11*
X269460000Y-181745000D03*
X275810000Y-179205000D03*
%TD*%
D12*
%TO.C,S45*%
X272000000Y-157665000D03*
D13*
X266920000Y-157665000D03*
X277080000Y-157665000D03*
D11*
X269460000Y-162745000D03*
X275810000Y-160205000D03*
%TD*%
D12*
%TO.C,S46*%
X272000000Y-138665000D03*
D13*
X266920000Y-138665000D03*
X277080000Y-138665000D03*
D11*
X269460000Y-143745000D03*
X275810000Y-141205000D03*
%TD*%
D12*
%TO.C,S47*%
X272000000Y-119665000D03*
D13*
X266920000Y-119665000D03*
X277080000Y-119665000D03*
D11*
X269460000Y-124745000D03*
X275810000Y-122205000D03*
%TD*%
D12*
%TO.C,S48*%
X253000000Y-178570000D03*
D13*
X247920000Y-178570000D03*
X258080000Y-178570000D03*
D11*
X250460000Y-183650000D03*
X256810000Y-181110000D03*
%TD*%
D12*
%TO.C,S49*%
X253000000Y-159570000D03*
D13*
X247920000Y-159570000D03*
X258080000Y-159570000D03*
D11*
X250460000Y-164650000D03*
X256810000Y-162110000D03*
%TD*%
D12*
%TO.C,S50*%
X253000000Y-140570000D03*
D13*
X247920000Y-140570000D03*
X258080000Y-140570000D03*
D11*
X250460000Y-145650000D03*
X256810000Y-143110000D03*
%TD*%
D12*
%TO.C,S51*%
X253000000Y-121570000D03*
D13*
X247920000Y-121570000D03*
X258080000Y-121570000D03*
D11*
X250460000Y-126650000D03*
X256810000Y-124110000D03*
%TD*%
D12*
%TO.C,S52*%
X282301707Y-197513705D03*
D13*
X277298884Y-198395838D03*
X287304530Y-196631572D03*
D11*
X280682428Y-202957595D03*
X286494891Y-199353517D03*
%TD*%
D12*
%TO.C,S53*%
X258358736Y-203036749D03*
D13*
X253451833Y-204351550D03*
X263265639Y-201721948D03*
D11*
X257220085Y-208601053D03*
X262696314Y-204504100D03*
%TD*%
D12*
%TO.C,S54*%
X234863304Y-210229298D03*
D13*
X230089665Y-211966760D03*
X239636943Y-208491836D03*
D11*
X234213947Y-215871668D03*
X239312264Y-211313021D03*
%TD*%
D14*
%TO.C,D1*%
X351810000Y-197750000D03*
D15*
X344190000Y-197750000D03*
%TD*%
D14*
%TO.C,D2*%
X351810000Y-178750000D03*
D15*
X344190000Y-178750000D03*
%TD*%
D14*
%TO.C,D3*%
X351810000Y-159750000D03*
D15*
X344190000Y-159750000D03*
%TD*%
D14*
%TO.C,D4*%
X351810000Y-140750000D03*
D15*
X344190000Y-140750000D03*
%TD*%
D14*
%TO.C,D5*%
X332810000Y-186320000D03*
D15*
X325190000Y-186320000D03*
%TD*%
D14*
%TO.C,D6*%
X332810000Y-167320000D03*
D15*
X325190000Y-167320000D03*
%TD*%
D14*
%TO.C,D7*%
X332810000Y-148320000D03*
D15*
X325190000Y-148320000D03*
%TD*%
D14*
%TO.C,D8*%
X332810000Y-129320000D03*
D15*
X325190000Y-129320000D03*
%TD*%
D14*
%TO.C,D9*%
X313810000Y-184415000D03*
D15*
X306190000Y-184415000D03*
%TD*%
D14*
%TO.C,D10*%
X313810000Y-165415000D03*
D15*
X306190000Y-165415000D03*
%TD*%
D14*
%TO.C,D11*%
X313810000Y-146415000D03*
D15*
X306190000Y-146415000D03*
%TD*%
D14*
%TO.C,D12*%
X313810000Y-127415000D03*
D15*
X306190000Y-127415000D03*
%TD*%
D14*
%TO.C,D13*%
X294810000Y-180605000D03*
D15*
X287190000Y-180605000D03*
%TD*%
D14*
%TO.C,D14*%
X294810000Y-161605000D03*
D15*
X287190000Y-161605000D03*
%TD*%
D14*
%TO.C,D15*%
X294810000Y-142605000D03*
D15*
X287190000Y-142605000D03*
%TD*%
D14*
%TO.C,D16*%
X294810000Y-123605000D03*
D15*
X287190000Y-123605000D03*
%TD*%
D14*
%TO.C,D17*%
X275810000Y-184415000D03*
D15*
X268190000Y-184415000D03*
%TD*%
D14*
%TO.C,D18*%
X275810000Y-165415000D03*
D15*
X268190000Y-165415000D03*
%TD*%
D14*
%TO.C,D19*%
X275810000Y-146415000D03*
D15*
X268190000Y-146415000D03*
%TD*%
D14*
%TO.C,D20*%
X275810000Y-127415000D03*
D15*
X268190000Y-127415000D03*
%TD*%
D14*
%TO.C,D21*%
X256810000Y-186320000D03*
D15*
X249190000Y-186320000D03*
%TD*%
D14*
%TO.C,D22*%
X256810000Y-167320000D03*
D15*
X249190000Y-167320000D03*
%TD*%
D14*
%TO.C,D23*%
X256810000Y-148320000D03*
D15*
X249190000Y-148320000D03*
%TD*%
D14*
%TO.C,D24*%
X256810000Y-129320000D03*
D15*
X249190000Y-129320000D03*
%TD*%
D16*
%TO.C,D25*%
X287399599Y-204484365D03*
D15*
X279895363Y-205807565D03*
%TD*%
D17*
%TO.C,D26*%
X264044761Y-209536573D03*
D15*
X256684407Y-211508775D03*
%TD*%
D18*
%TO.C,D27*%
X241094189Y-216208819D03*
D15*
X233933731Y-218815013D03*
%TD*%
D19*
%TO.C,TRRS1*%
X245850000Y-107570000D03*
X238850000Y-107570000D03*
D20*
X240450000Y-105270000D03*
X243450000Y-105270000D03*
X247450000Y-105270000D03*
X248550000Y-109870000D03*
%TD*%
D21*
%TO.C,RP2040-Zero*%
X356630000Y-100640000D03*
X356630000Y-103180000D03*
X356630000Y-105720000D03*
X356630000Y-108260000D03*
X356630000Y-110800000D03*
D22*
X356630000Y-113340000D03*
X356630000Y-115880000D03*
X356630000Y-118420000D03*
X356630000Y-120960000D03*
D23*
X353490000Y-121770000D03*
D24*
X350950000Y-121770000D03*
X348410000Y-121770000D03*
X345870000Y-121770000D03*
X343330000Y-121770000D03*
D22*
X340190000Y-120960000D03*
X340190000Y-118420000D03*
X340190000Y-115880000D03*
X340190000Y-113340000D03*
X340190000Y-100640000D03*
X340190000Y-103180000D03*
X340190000Y-105720000D03*
X340190000Y-110800000D03*
X340190000Y-108260000D03*
%TD*%
D25*
%TO.C,MH1*%
X248704767Y-213172751D03*
%TD*%
%TO.C,MH2*%
X245500000Y-169070000D03*
%TD*%
%TO.C,MH3*%
X245500000Y-131070000D03*
%TD*%
%TO.C,MH4*%
X355500000Y-180500000D03*
%TD*%
%TO.C,MH5*%
X355500000Y-142500000D03*
%TD*%
D10*
%TO.C,S24*%
X253000000Y-121570000D03*
D11*
X253000000Y-115620000D03*
X258000000Y-117820000D03*
%TD*%
M02*
