%TF.GenerationSoftware,KiCad,Pcbnew,9.0.6-1.fc43*%
%TF.CreationDate,2026-01-18T20:08:46+01:00*%
%TF.ProjectId,rightPCB,72696768-7450-4434-922e-6b696361645f,v1.0.0*%
%TF.SameCoordinates,Original*%
%TF.FileFunction,Profile,NP*%
%FSLAX46Y46*%
G04 Gerber Fmt 4.6, Leading zero omitted, Abs format (unit mm)*
G04 Created by KiCad (PCBNEW 9.0.6-1.fc43) date 2026-01-18 20:08:46*
%MOMM*%
%LPD*%
G01*
G04 APERTURE LIST*
%TA.AperFunction,Profile*%
%ADD10C,0.150000*%
%TD*%
G04 APERTURE END LIST*
D10*
X293489105Y-206740000D02*
X357294663Y-206740000D01*
X363794657Y-200249319D02*
G75*
G02*
X357294663Y-206739964I-6499957J9319D01*
G01*
X363794657Y-200249319D02*
X363930320Y-105624319D01*
X357430326Y-99115000D02*
G75*
G02*
X363930294Y-105623695I-26J-6500000D01*
G01*
X357430326Y-99115000D02*
X354550000Y-99115000D01*
X342050000Y-99115000D02*
X243616955Y-99115000D01*
X237116957Y-105620788D02*
G75*
G02*
X243616955Y-99114954I6500043J5788D01*
G01*
X237116957Y-105620788D02*
X237198751Y-197471431D01*
X237034256Y-197706577D02*
X222141960Y-203126929D01*
X221245451Y-205049498D02*
G75*
G02*
X222141972Y-203126962I1409549J512998D01*
G01*
X221245451Y-205049498D02*
X227760935Y-222950643D01*
X229683504Y-223847151D02*
G75*
G02*
X227760960Y-222950634I-513004J1409551D01*
G01*
X229683504Y-223847151D02*
X247512850Y-217357800D01*
X247533650Y-217351242D02*
X274939079Y-210007979D01*
X274960372Y-210003259D02*
X293445693Y-206743798D01*
X342550000Y-118250000D02*
X354050000Y-118250000D01*
X354300000Y-118000000D02*
X354300000Y-99365000D01*
X342300000Y-99365000D02*
X342300000Y-118000000D01*
X354300000Y-99365000D02*
G75*
G02*
X354550000Y-99115000I250000J0D01*
G01*
X354300000Y-118000000D02*
G75*
G02*
X354050000Y-118250000I-250000J0D01*
G01*
X342550000Y-118250000D02*
G75*
G02*
X342300000Y-118000000I0J250000D01*
G01*
X342050000Y-99115000D02*
G75*
G02*
X342300000Y-99365000I0J-250000D01*
G01*
X237198751Y-197471431D02*
G75*
G02*
X237034282Y-197706649I-250051J-269D01*
G01*
X221245452Y-205049498D02*
X221245452Y-205049498D01*
X221245452Y-205049498D01*
X221245452Y-205049498D01*
X221245452Y-205049498D01*
X221245452Y-205049498D01*
X221245452Y-205049499D01*
X221245452Y-205049499D01*
X221245452Y-205049499D01*
X221245452Y-205049499D01*
X221245452Y-205049499D01*
X221245452Y-205049499D01*
X221245452Y-205049499D01*
X221245451Y-205049499D01*
X221245451Y-205049499D01*
X221245451Y-205049499D01*
X221245451Y-205049499D01*
X221245451Y-205049499D01*
X221245451Y-205049499D01*
X221245451Y-205049499D01*
X221245451Y-205049499D01*
X221245451Y-205049499D01*
X221245451Y-205049499D01*
X221245451Y-205049499D01*
X221245451Y-205049499D01*
X221245450Y-205049499D01*
X221245450Y-205049499D01*
X221245450Y-205049499D01*
X221245450Y-205049499D01*
X221245450Y-205049499D01*
X221245450Y-205049499D01*
X221245450Y-205049498D01*
X221245450Y-205049498D01*
X221245450Y-205049498D01*
X221245450Y-205049498D01*
X221245450Y-205049498D01*
X221245450Y-205049498D01*
X221245450Y-205049498D02*
X221245450Y-205049498D01*
X221245450Y-205049498D01*
X221245450Y-205049498D01*
X221245450Y-205049498D01*
X221245450Y-205049498D01*
X221245450Y-205049498D01*
X221245450Y-205049497D01*
X221245450Y-205049497D01*
X221245450Y-205049497D01*
X221245450Y-205049497D01*
X221245450Y-205049497D01*
X221245451Y-205049497D01*
X221245451Y-205049497D01*
X221245451Y-205049497D01*
X221245451Y-205049497D01*
X221245451Y-205049497D01*
X221245451Y-205049497D01*
X221245451Y-205049497D01*
X221245451Y-205049497D01*
X221245451Y-205049497D01*
X221245451Y-205049497D01*
X221245451Y-205049497D01*
X221245451Y-205049497D01*
X221245452Y-205049497D01*
X221245452Y-205049497D01*
X221245452Y-205049497D01*
X221245452Y-205049497D01*
X221245452Y-205049497D01*
X221245452Y-205049497D01*
X221245452Y-205049498D01*
X221245452Y-205049498D01*
X221245452Y-205049498D01*
X221245452Y-205049498D01*
X221245452Y-205049498D01*
X221245452Y-205049498D01*
X221245452Y-205049498D01*
X247512849Y-217357800D02*
G75*
G02*
X247533651Y-217351245I85451J-234900D01*
G01*
X274939079Y-210007979D02*
G75*
G02*
X274960373Y-210003263I64721J-241821D01*
G01*
X293445693Y-206743798D02*
G75*
G02*
X293489105Y-206739999I43407J-246102D01*
G01*
M02*
