M48
; DRILL file {KiCad 9.0.6-1.fc43} date 2026-01-18T20:08:38+0100
; FORMAT={-:-/ absolute / metric / decimal}
; #@! TF.CreationDate,2026-01-18T20:08:38+01:00
; #@! TF.GenerationSoftware,Kicad,Pcbnew,9.0.6-1.fc43
; #@! TF.FileFunction,Plated,1,2,PTH
FMAT,2
METRIC
; #@! TA.AperFunction,Plated,PTH,ViaDrill
T1C0.300
; #@! TA.AperFunction,Plated,PTH,ComponentDrill
T2C0.900
; #@! TA.AperFunction,Plated,PTH,ComponentDrill
T3C0.991
; #@! TA.AperFunction,Plated,PTH,ComponentDrill
T4C1.092
%
G90
G05
T1
X334.0Y-113.5
X335.5Y-120.5
X336.5Y-104.0
X336.5Y-107.0
X337.5Y-110.5
X339.0Y-125.5
X340.0Y-125.5
X358.0Y-123.433
X359.0Y-123.5
T3
X233.934Y-218.815
X241.094Y-216.209
X249.19Y-129.32
X249.19Y-148.32
X249.19Y-167.32
X249.19Y-186.32
X256.684Y-211.509
X256.81Y-129.32
X256.81Y-148.32
X256.81Y-167.32
X256.81Y-186.32
X264.045Y-209.537
X268.19Y-127.415
X268.19Y-146.415
X268.19Y-165.415
X268.19Y-184.415
X275.81Y-127.415
X275.81Y-146.415
X275.81Y-165.415
X275.81Y-184.415
X279.895Y-205.808
X287.19Y-123.605
X287.19Y-142.605
X287.19Y-161.605
X287.19Y-180.605
X287.4Y-204.484
X294.81Y-123.605
X294.81Y-142.605
X294.81Y-161.605
X294.81Y-180.605
X306.19Y-127.415
X306.19Y-146.415
X306.19Y-165.415
X306.19Y-184.415
X313.81Y-127.415
X313.81Y-146.415
X313.81Y-165.415
X313.81Y-184.415
X325.19Y-129.32
X325.19Y-148.32
X325.19Y-167.32
X325.19Y-186.32
X332.81Y-129.32
X332.81Y-148.32
X332.81Y-167.32
X332.81Y-186.32
X344.19Y-140.75
X344.19Y-159.75
X344.19Y-178.75
X344.19Y-197.75
X351.81Y-140.75
X351.81Y-159.75
X351.81Y-178.75
X351.81Y-197.75
T4
X340.79Y-100.64
X340.79Y-103.18
X340.79Y-105.72
X340.79Y-108.26
X340.79Y-110.8
X340.79Y-113.34
X340.79Y-115.88
X340.79Y-118.42
X340.79Y-120.96
X343.33Y-121.17
X345.87Y-121.17
X348.41Y-121.17
X350.95Y-121.17
X353.49Y-121.17
X356.03Y-100.64
X356.03Y-103.18
X356.03Y-105.72
X356.03Y-108.26
X356.03Y-110.8
X356.03Y-113.34
X356.03Y-115.88
X356.03Y-118.42
X356.03Y-120.96
T2
G00X240.15Y-105.27
M15
G01X240.75Y-105.27
M16
G05
G00X243.15Y-105.27
M15
G01X243.75Y-105.27
M16
G05
G00X247.15Y-105.27
M15
G01X247.75Y-105.27
M16
G05
G00X248.25Y-109.87
M15
G01X248.85Y-109.87
M16
G05
M30
