%TF.GenerationSoftware,KiCad,Pcbnew,9.0.6-1.fc43*%
%TF.CreationDate,2026-01-18T20:08:44+01:00*%
%TF.ProjectId,rightPCB,72696768-7450-4434-922e-6b696361645f,v1.0.0*%
%TF.SameCoordinates,Original*%
%TF.FileFunction,Legend,Top*%
%TF.FilePolarity,Positive*%
%FSLAX46Y46*%
G04 Gerber Fmt 4.6, Leading zero omitted, Abs format (unit mm)*
G04 Created by KiCad (PCBNEW 9.0.6-1.fc43) date 2026-01-18 20:08:44*
%MOMM*%
%LPD*%
G01*
G04 APERTURE LIST*
%ADD10C,0.150000*%
%ADD11C,0.120000*%
%ADD12C,0.010000*%
G04 APERTURE END LIST*
D10*
X287806077Y-184504847D02*
X287806077Y-183504847D01*
X287806077Y-183504847D02*
X288377505Y-184504847D01*
X288377505Y-184504847D02*
X288377505Y-183504847D01*
X288758458Y-183504847D02*
X288996553Y-184504847D01*
X288996553Y-184504847D02*
X289187029Y-183790561D01*
X289187029Y-183790561D02*
X289377505Y-184504847D01*
X289377505Y-184504847D02*
X289615601Y-183504847D01*
X289948934Y-184457228D02*
X290091791Y-184504847D01*
X290091791Y-184504847D02*
X290329886Y-184504847D01*
X290329886Y-184504847D02*
X290425124Y-184457228D01*
X290425124Y-184457228D02*
X290472743Y-184409608D01*
X290472743Y-184409608D02*
X290520362Y-184314370D01*
X290520362Y-184314370D02*
X290520362Y-184219132D01*
X290520362Y-184219132D02*
X290472743Y-184123894D01*
X290472743Y-184123894D02*
X290425124Y-184076275D01*
X290425124Y-184076275D02*
X290329886Y-184028656D01*
X290329886Y-184028656D02*
X290139410Y-183981037D01*
X290139410Y-183981037D02*
X290044172Y-183933418D01*
X290044172Y-183933418D02*
X289996553Y-183885799D01*
X289996553Y-183885799D02*
X289948934Y-183790561D01*
X289948934Y-183790561D02*
X289948934Y-183695323D01*
X289948934Y-183695323D02*
X289996553Y-183600085D01*
X289996553Y-183600085D02*
X290044172Y-183552466D01*
X290044172Y-183552466D02*
X290139410Y-183504847D01*
X290139410Y-183504847D02*
X290377505Y-183504847D01*
X290377505Y-183504847D02*
X290520362Y-183552466D01*
X290948934Y-183838180D02*
X290948934Y-184838180D01*
X290948934Y-183885799D02*
X291044172Y-183838180D01*
X291044172Y-183838180D02*
X291234648Y-183838180D01*
X291234648Y-183838180D02*
X291329886Y-183885799D01*
X291329886Y-183885799D02*
X291377505Y-183933418D01*
X291377505Y-183933418D02*
X291425124Y-184028656D01*
X291425124Y-184028656D02*
X291425124Y-184314370D01*
X291425124Y-184314370D02*
X291377505Y-184409608D01*
X291377505Y-184409608D02*
X291329886Y-184457228D01*
X291329886Y-184457228D02*
X291234648Y-184504847D01*
X291234648Y-184504847D02*
X291044172Y-184504847D01*
X291044172Y-184504847D02*
X290948934Y-184457228D01*
X291996553Y-184504847D02*
X291901315Y-184457228D01*
X291901315Y-184457228D02*
X291853696Y-184361989D01*
X291853696Y-184361989D02*
X291853696Y-183504847D01*
X292377506Y-184504847D02*
X292377506Y-183838180D01*
X292377506Y-183504847D02*
X292329887Y-183552466D01*
X292329887Y-183552466D02*
X292377506Y-183600085D01*
X292377506Y-183600085D02*
X292425125Y-183552466D01*
X292425125Y-183552466D02*
X292377506Y-183504847D01*
X292377506Y-183504847D02*
X292377506Y-183600085D01*
X292710839Y-183838180D02*
X293091791Y-183838180D01*
X292853696Y-183504847D02*
X292853696Y-184361989D01*
X292853696Y-184361989D02*
X292901315Y-184457228D01*
X292901315Y-184457228D02*
X292996553Y-184504847D01*
X292996553Y-184504847D02*
X293091791Y-184504847D01*
X294758458Y-184504847D02*
X294425125Y-184028656D01*
X294187030Y-184504847D02*
X294187030Y-183504847D01*
X294187030Y-183504847D02*
X294567982Y-183504847D01*
X294567982Y-183504847D02*
X294663220Y-183552466D01*
X294663220Y-183552466D02*
X294710839Y-183600085D01*
X294710839Y-183600085D02*
X294758458Y-183695323D01*
X294758458Y-183695323D02*
X294758458Y-183838180D01*
X294758458Y-183838180D02*
X294710839Y-183933418D01*
X294710839Y-183933418D02*
X294663220Y-183981037D01*
X294663220Y-183981037D02*
X294567982Y-184028656D01*
X294567982Y-184028656D02*
X294187030Y-184028656D01*
X295567982Y-184457228D02*
X295472744Y-184504847D01*
X295472744Y-184504847D02*
X295282268Y-184504847D01*
X295282268Y-184504847D02*
X295187030Y-184457228D01*
X295187030Y-184457228D02*
X295139411Y-184361989D01*
X295139411Y-184361989D02*
X295139411Y-183981037D01*
X295139411Y-183981037D02*
X295187030Y-183885799D01*
X295187030Y-183885799D02*
X295282268Y-183838180D01*
X295282268Y-183838180D02*
X295472744Y-183838180D01*
X295472744Y-183838180D02*
X295567982Y-183885799D01*
X295567982Y-183885799D02*
X295615601Y-183981037D01*
X295615601Y-183981037D02*
X295615601Y-184076275D01*
X295615601Y-184076275D02*
X295139411Y-184171513D01*
X295948935Y-183838180D02*
X296187030Y-184504847D01*
X296187030Y-184504847D02*
X296425125Y-183838180D01*
X296806078Y-184409608D02*
X296853697Y-184457228D01*
X296853697Y-184457228D02*
X296806078Y-184504847D01*
X296806078Y-184504847D02*
X296758459Y-184457228D01*
X296758459Y-184457228D02*
X296806078Y-184409608D01*
X296806078Y-184409608D02*
X296806078Y-184504847D01*
X298044173Y-184504847D02*
X298044173Y-183504847D01*
X298377506Y-183504847D02*
X298710839Y-184504847D01*
X298710839Y-184504847D02*
X299044172Y-183504847D01*
X288091790Y-186114791D02*
X288091790Y-185114791D01*
X288091790Y-185495743D02*
X288187028Y-185448124D01*
X288187028Y-185448124D02*
X288377504Y-185448124D01*
X288377504Y-185448124D02*
X288472742Y-185495743D01*
X288472742Y-185495743D02*
X288520361Y-185543362D01*
X288520361Y-185543362D02*
X288567980Y-185638600D01*
X288567980Y-185638600D02*
X288567980Y-185924314D01*
X288567980Y-185924314D02*
X288520361Y-186019552D01*
X288520361Y-186019552D02*
X288472742Y-186067172D01*
X288472742Y-186067172D02*
X288377504Y-186114791D01*
X288377504Y-186114791D02*
X288187028Y-186114791D01*
X288187028Y-186114791D02*
X288091790Y-186067172D01*
X288901314Y-185448124D02*
X289139409Y-186114791D01*
X289377504Y-185448124D02*
X289139409Y-186114791D01*
X289139409Y-186114791D02*
X289044171Y-186352886D01*
X289044171Y-186352886D02*
X288996552Y-186400505D01*
X288996552Y-186400505D02*
X288901314Y-186448124D01*
X290520362Y-186114791D02*
X290520362Y-185114791D01*
X290520362Y-185114791D02*
X291091790Y-186114791D01*
X291091790Y-186114791D02*
X291091790Y-185114791D01*
X291472743Y-185114791D02*
X291710838Y-186114791D01*
X291710838Y-186114791D02*
X291901314Y-185400505D01*
X291901314Y-185400505D02*
X292091790Y-186114791D01*
X292091790Y-186114791D02*
X292329886Y-185114791D01*
X292663219Y-186067172D02*
X292806076Y-186114791D01*
X292806076Y-186114791D02*
X293044171Y-186114791D01*
X293044171Y-186114791D02*
X293139409Y-186067172D01*
X293139409Y-186067172D02*
X293187028Y-186019552D01*
X293187028Y-186019552D02*
X293234647Y-185924314D01*
X293234647Y-185924314D02*
X293234647Y-185829076D01*
X293234647Y-185829076D02*
X293187028Y-185733838D01*
X293187028Y-185733838D02*
X293139409Y-185686219D01*
X293139409Y-185686219D02*
X293044171Y-185638600D01*
X293044171Y-185638600D02*
X292853695Y-185590981D01*
X292853695Y-185590981D02*
X292758457Y-185543362D01*
X292758457Y-185543362D02*
X292710838Y-185495743D01*
X292710838Y-185495743D02*
X292663219Y-185400505D01*
X292663219Y-185400505D02*
X292663219Y-185305267D01*
X292663219Y-185305267D02*
X292710838Y-185210029D01*
X292710838Y-185210029D02*
X292758457Y-185162410D01*
X292758457Y-185162410D02*
X292853695Y-185114791D01*
X292853695Y-185114791D02*
X293091790Y-185114791D01*
X293091790Y-185114791D02*
X293234647Y-185162410D01*
X293520362Y-185448124D02*
X293901314Y-185448124D01*
X293663219Y-185114791D02*
X293663219Y-185971933D01*
X293663219Y-185971933D02*
X293710838Y-186067172D01*
X293710838Y-186067172D02*
X293806076Y-186114791D01*
X293806076Y-186114791D02*
X293901314Y-186114791D01*
X294615600Y-186067172D02*
X294520362Y-186114791D01*
X294520362Y-186114791D02*
X294329886Y-186114791D01*
X294329886Y-186114791D02*
X294234648Y-186067172D01*
X294234648Y-186067172D02*
X294187029Y-185971933D01*
X294187029Y-185971933D02*
X294187029Y-185590981D01*
X294187029Y-185590981D02*
X294234648Y-185495743D01*
X294234648Y-185495743D02*
X294329886Y-185448124D01*
X294329886Y-185448124D02*
X294520362Y-185448124D01*
X294520362Y-185448124D02*
X294615600Y-185495743D01*
X294615600Y-185495743D02*
X294663219Y-185590981D01*
X294663219Y-185590981D02*
X294663219Y-185686219D01*
X294663219Y-185686219D02*
X294187029Y-185781457D01*
X295472743Y-186067172D02*
X295377505Y-186114791D01*
X295377505Y-186114791D02*
X295187029Y-186114791D01*
X295187029Y-186114791D02*
X295091791Y-186067172D01*
X295091791Y-186067172D02*
X295044172Y-185971933D01*
X295044172Y-185971933D02*
X295044172Y-185590981D01*
X295044172Y-185590981D02*
X295091791Y-185495743D01*
X295091791Y-185495743D02*
X295187029Y-185448124D01*
X295187029Y-185448124D02*
X295377505Y-185448124D01*
X295377505Y-185448124D02*
X295472743Y-185495743D01*
X295472743Y-185495743D02*
X295520362Y-185590981D01*
X295520362Y-185590981D02*
X295520362Y-185686219D01*
X295520362Y-185686219D02*
X295044172Y-185781457D01*
X295948934Y-185448124D02*
X295948934Y-186114791D01*
X295948934Y-185543362D02*
X295996553Y-185495743D01*
X295996553Y-185495743D02*
X296091791Y-185448124D01*
X296091791Y-185448124D02*
X296234648Y-185448124D01*
X296234648Y-185448124D02*
X296329886Y-185495743D01*
X296329886Y-185495743D02*
X296377505Y-185590981D01*
X296377505Y-185590981D02*
X296377505Y-186114791D01*
X296853696Y-186114791D02*
X296853696Y-185114791D01*
X296853696Y-185495743D02*
X296948934Y-185448124D01*
X296948934Y-185448124D02*
X297139410Y-185448124D01*
X297139410Y-185448124D02*
X297234648Y-185495743D01*
X297234648Y-185495743D02*
X297282267Y-185543362D01*
X297282267Y-185543362D02*
X297329886Y-185638600D01*
X297329886Y-185638600D02*
X297329886Y-185924314D01*
X297329886Y-185924314D02*
X297282267Y-186019552D01*
X297282267Y-186019552D02*
X297234648Y-186067172D01*
X297234648Y-186067172D02*
X297139410Y-186114791D01*
X297139410Y-186114791D02*
X296948934Y-186114791D01*
X296948934Y-186114791D02*
X296853696Y-186067172D01*
X298139410Y-186067172D02*
X298044172Y-186114791D01*
X298044172Y-186114791D02*
X297853696Y-186114791D01*
X297853696Y-186114791D02*
X297758458Y-186067172D01*
X297758458Y-186067172D02*
X297710839Y-185971933D01*
X297710839Y-185971933D02*
X297710839Y-185590981D01*
X297710839Y-185590981D02*
X297758458Y-185495743D01*
X297758458Y-185495743D02*
X297853696Y-185448124D01*
X297853696Y-185448124D02*
X298044172Y-185448124D01*
X298044172Y-185448124D02*
X298139410Y-185495743D01*
X298139410Y-185495743D02*
X298187029Y-185590981D01*
X298187029Y-185590981D02*
X298187029Y-185686219D01*
X298187029Y-185686219D02*
X297710839Y-185781457D01*
X298615601Y-186114791D02*
X298615601Y-185448124D01*
X298615601Y-185638600D02*
X298663220Y-185543362D01*
X298663220Y-185543362D02*
X298710839Y-185495743D01*
X298710839Y-185495743D02*
X298806077Y-185448124D01*
X298806077Y-185448124D02*
X298901315Y-185448124D01*
X299663220Y-185448124D02*
X299663220Y-186257648D01*
X299663220Y-186257648D02*
X299615601Y-186352886D01*
X299615601Y-186352886D02*
X299567982Y-186400505D01*
X299567982Y-186400505D02*
X299472744Y-186448124D01*
X299472744Y-186448124D02*
X299329887Y-186448124D01*
X299329887Y-186448124D02*
X299234649Y-186400505D01*
X299663220Y-186067172D02*
X299567982Y-186114791D01*
X299567982Y-186114791D02*
X299377506Y-186114791D01*
X299377506Y-186114791D02*
X299282268Y-186067172D01*
X299282268Y-186067172D02*
X299234649Y-186019552D01*
X299234649Y-186019552D02*
X299187030Y-185924314D01*
X299187030Y-185924314D02*
X299187030Y-185638600D01*
X299187030Y-185638600D02*
X299234649Y-185543362D01*
X299234649Y-185543362D02*
X299282268Y-185495743D01*
X299282268Y-185495743D02*
X299377506Y-185448124D01*
X299377506Y-185448124D02*
X299567982Y-185448124D01*
X299567982Y-185448124D02*
X299663220Y-185495743D01*
X249341589Y-196062250D02*
X249224946Y-195994907D01*
X249224946Y-195994907D02*
X248967012Y-195768227D01*
X248967012Y-195768227D02*
X248825720Y-195608890D01*
X248825720Y-195608890D02*
X248659779Y-195357561D01*
X248659779Y-195357561D02*
X248444539Y-194922246D01*
X248444539Y-194922246D02*
X248345941Y-194554274D01*
X248345941Y-194554274D02*
X248314687Y-194069660D01*
X248314687Y-194069660D02*
X248332732Y-193769031D01*
X248332732Y-193769031D02*
X248375426Y-193560396D01*
X248375426Y-193560396D02*
X248485463Y-193235118D01*
X248485463Y-193235118D02*
X248552807Y-193118476D01*
X249880336Y-195129111D02*
X249535244Y-193841210D01*
X249633842Y-194209182D02*
X249676536Y-194000547D01*
X249676536Y-194000547D02*
X249743879Y-193883904D01*
X249743879Y-193883904D02*
X249903216Y-193742612D01*
X249903216Y-193742612D02*
X250087202Y-193693313D01*
X251076244Y-194808669D02*
X250731152Y-193520768D01*
X250558606Y-192876817D02*
X250491263Y-192993459D01*
X250491263Y-192993459D02*
X250607905Y-193060803D01*
X250607905Y-193060803D02*
X250675248Y-192944160D01*
X250675248Y-192944160D02*
X250558606Y-192876817D01*
X250558606Y-192876817D02*
X250607905Y-193060803D01*
X252479018Y-193052428D02*
X252898058Y-194616308D01*
X252898058Y-194616308D02*
X252855364Y-194824943D01*
X252855364Y-194824943D02*
X252788021Y-194941586D01*
X252788021Y-194941586D02*
X252628684Y-195082878D01*
X252628684Y-195082878D02*
X252352705Y-195156826D01*
X252352705Y-195156826D02*
X252144070Y-195114132D01*
X252799461Y-194248336D02*
X252640124Y-194389628D01*
X252640124Y-194389628D02*
X252272152Y-194488226D01*
X252272152Y-194488226D02*
X252063517Y-194445532D01*
X252063517Y-194445532D02*
X251946875Y-194378188D01*
X251946875Y-194378188D02*
X251805583Y-194218852D01*
X251805583Y-194218852D02*
X251657686Y-193666894D01*
X251657686Y-193666894D02*
X251700380Y-193458259D01*
X251700380Y-193458259D02*
X251767724Y-193341617D01*
X251767724Y-193341617D02*
X251927060Y-193200325D01*
X251927060Y-193200325D02*
X252295032Y-193101727D01*
X252295032Y-193101727D02*
X252503667Y-193144421D01*
X253744040Y-194093835D02*
X253226401Y-192161983D01*
X254571976Y-193871990D02*
X254300832Y-192860068D01*
X254300832Y-192860068D02*
X254159540Y-192700731D01*
X254159540Y-192700731D02*
X253950905Y-192658037D01*
X253950905Y-192658037D02*
X253674926Y-192731986D01*
X253674926Y-192731986D02*
X253515590Y-192873277D01*
X253515590Y-192873277D02*
X253448246Y-192989920D01*
X254870835Y-192411543D02*
X255606778Y-192214347D01*
X254974267Y-191693644D02*
X255417957Y-193349517D01*
X255417957Y-193349517D02*
X255559249Y-193508853D01*
X255559249Y-193508853D02*
X255767884Y-193551547D01*
X255767884Y-193551547D02*
X255951870Y-193502249D01*
X256609030Y-194114945D02*
X256676374Y-193998303D01*
X256676374Y-193998303D02*
X256786411Y-193673025D01*
X256786411Y-193673025D02*
X256829105Y-193464390D01*
X256829105Y-193464390D02*
X256847150Y-193163761D01*
X256847150Y-193163761D02*
X256815896Y-192679147D01*
X256815896Y-192679147D02*
X256717298Y-192311175D01*
X256717298Y-192311175D02*
X256502058Y-191875860D01*
X256502058Y-191875860D02*
X256336117Y-191624531D01*
X256336117Y-191624531D02*
X256194825Y-191465194D01*
X256194825Y-191465194D02*
X255936891Y-191238514D01*
X255936891Y-191238514D02*
X255820248Y-191171171D01*
X259232362Y-192130255D02*
X262912079Y-191144278D01*
X258985867Y-191210325D02*
X262665585Y-190224348D01*
X259569079Y-191547043D02*
X259445832Y-191087078D01*
X259907566Y-192442323D02*
X259784319Y-191982358D01*
X259876312Y-191957709D02*
X259753065Y-191497744D01*
X259721811Y-191013130D02*
X259598564Y-190553165D01*
X260029044Y-191423796D02*
X259905797Y-190963831D01*
X260336277Y-191834462D02*
X260213030Y-191374497D01*
X260551517Y-192269777D02*
X260428270Y-191809812D01*
X260181775Y-190889883D02*
X260058528Y-190429918D01*
X260489009Y-191300549D02*
X260365761Y-190840584D01*
X260796242Y-191711214D02*
X260672994Y-191251250D01*
X260641740Y-190766636D02*
X260518493Y-190306671D01*
X260948973Y-191177302D02*
X260825726Y-190717337D01*
X261256206Y-191587967D02*
X261132959Y-191128003D01*
X261101705Y-190643389D02*
X260978458Y-190183424D01*
X261408938Y-191054054D02*
X261285691Y-190594090D01*
X261716171Y-191464720D02*
X261592924Y-191004755D01*
X261931411Y-191900035D02*
X261808164Y-191440071D01*
X261561670Y-190520141D02*
X261438422Y-190060177D01*
X261868903Y-190930807D02*
X261745655Y-190470843D01*
X262176136Y-191341473D02*
X262052888Y-190881508D01*
X262021634Y-190396894D02*
X261898387Y-189936930D01*
X262483369Y-191752139D02*
X262360121Y-191292174D01*
X259109114Y-191670290D02*
X262328867Y-190807560D01*
X262328867Y-190807560D02*
X262205620Y-190347595D01*
X259355609Y-192590220D02*
X258862620Y-190750361D01*
X258862620Y-190750361D02*
X262542338Y-189764384D01*
X262542338Y-189764384D02*
X263035326Y-191604242D01*
X263035326Y-191604242D02*
X259355609Y-192590220D01*
D11*
%TO.C,RP2040-Zero*%
X357410000Y-99050000D02*
X339410000Y-99050000D01*
X339410000Y-99050000D02*
X339410000Y-122550000D01*
X339410000Y-122550000D02*
X357410000Y-122550000D01*
X357410000Y-122550000D02*
X357410000Y-99050000D01*
D12*
%TO.C,LOGO1*%
X287001231Y-184855000D02*
X287001231Y-187356231D01*
X284500000Y-187356231D01*
X281998770Y-187356231D01*
X281998770Y-185868088D01*
X281998770Y-185517827D01*
X282761645Y-185517827D01*
X282761645Y-185692957D01*
X282761645Y-185868088D01*
X284478115Y-185864917D01*
X286194584Y-185861746D01*
X286197905Y-185517827D01*
X286201225Y-185173907D01*
X286028910Y-185345867D01*
X285856594Y-185517827D01*
X284309120Y-185517827D01*
X282761645Y-185517827D01*
X281998770Y-185517827D01*
X281998770Y-185005074D01*
X283105899Y-185005074D01*
X283862522Y-185005074D01*
X284619144Y-185005074D01*
X284793895Y-184829988D01*
X284968646Y-184654902D01*
X284212024Y-184654902D01*
X283455401Y-184654902D01*
X283280650Y-184829988D01*
X283105899Y-185005074D01*
X281998770Y-185005074D01*
X281998770Y-184855000D01*
X281998770Y-183967063D01*
X282761645Y-183967063D01*
X282761645Y-184142150D01*
X284309455Y-184142150D01*
X285857266Y-184142150D01*
X286025751Y-184310983D01*
X286078342Y-184363517D01*
X286124575Y-184409386D01*
X286161679Y-184445867D01*
X286186885Y-184470237D01*
X286197422Y-184479774D01*
X286197537Y-184479816D01*
X286198399Y-184467842D01*
X286199177Y-184434048D01*
X286199840Y-184381628D01*
X286200359Y-184313775D01*
X286200701Y-184233680D01*
X286200836Y-184144537D01*
X286200837Y-184135897D01*
X286200837Y-183791977D01*
X284481241Y-183791977D01*
X282761645Y-183791977D01*
X282761645Y-183967063D01*
X281998770Y-183967063D01*
X281998770Y-183791977D01*
X281998770Y-182353770D01*
X284500000Y-182353770D01*
X287001231Y-182353770D01*
X287001231Y-184855000D01*
G36*
X287001231Y-184855000D02*
G01*
X287001231Y-187356231D01*
X284500000Y-187356231D01*
X281998770Y-187356231D01*
X281998770Y-185868088D01*
X281998770Y-185517827D01*
X282761645Y-185517827D01*
X282761645Y-185692957D01*
X282761645Y-185868088D01*
X284478115Y-185864917D01*
X286194584Y-185861746D01*
X286197905Y-185517827D01*
X286201225Y-185173907D01*
X286028910Y-185345867D01*
X285856594Y-185517827D01*
X284309120Y-185517827D01*
X282761645Y-185517827D01*
X281998770Y-185517827D01*
X281998770Y-185005074D01*
X283105899Y-185005074D01*
X283862522Y-185005074D01*
X284619144Y-185005074D01*
X284793895Y-184829988D01*
X284968646Y-184654902D01*
X284212024Y-184654902D01*
X283455401Y-184654902D01*
X283280650Y-184829988D01*
X283105899Y-185005074D01*
X281998770Y-185005074D01*
X281998770Y-184855000D01*
X281998770Y-183967063D01*
X282761645Y-183967063D01*
X282761645Y-184142150D01*
X284309455Y-184142150D01*
X285857266Y-184142150D01*
X286025751Y-184310983D01*
X286078342Y-184363517D01*
X286124575Y-184409386D01*
X286161679Y-184445867D01*
X286186885Y-184470237D01*
X286197422Y-184479774D01*
X286197537Y-184479816D01*
X286198399Y-184467842D01*
X286199177Y-184434048D01*
X286199840Y-184381628D01*
X286200359Y-184313775D01*
X286200701Y-184233680D01*
X286200836Y-184144537D01*
X286200837Y-184135897D01*
X286200837Y-183791977D01*
X284481241Y-183791977D01*
X282761645Y-183791977D01*
X282761645Y-183967063D01*
X281998770Y-183967063D01*
X281998770Y-183791977D01*
X281998770Y-182353770D01*
X284500000Y-182353770D01*
X287001231Y-182353770D01*
X287001231Y-184855000D01*
G37*
%TD*%
M02*
