%TF.GenerationSoftware,KiCad,Pcbnew,9.0.6-1.fc43*%
%TF.CreationDate,2026-01-18T20:08:41+01:00*%
%TF.ProjectId,rightPCB,72696768-7450-4434-922e-6b696361645f,v1.0.0*%
%TF.SameCoordinates,Original*%
%TF.FileFunction,Copper,L1,Top*%
%TF.FilePolarity,Positive*%
%FSLAX46Y46*%
G04 Gerber Fmt 4.6, Leading zero omitted, Abs format (unit mm)*
G04 Created by KiCad (PCBNEW 9.0.6-1.fc43) date 2026-01-18 20:08:41*
%MOMM*%
%LPD*%
G01*
G04 APERTURE LIST*
G04 Aperture macros list*
%AMRoundRect*
0 Rectangle with rounded corners*
0 $1 Rounding radius*
0 $2 $3 $4 $5 $6 $7 $8 $9 X,Y pos of 4 corners*
0 Add a 4 corners polygon primitive as box body*
4,1,4,$2,$3,$4,$5,$6,$7,$8,$9,$2,$3,0*
0 Add four circle primitives for the rounded corners*
1,1,$1+$1,$2,$3*
1,1,$1+$1,$4,$5*
1,1,$1+$1,$6,$7*
1,1,$1+$1,$8,$9*
0 Add four rect primitives between the rounded corners*
20,1,$1+$1,$2,$3,$4,$5,0*
20,1,$1+$1,$4,$5,$6,$7,0*
20,1,$1+$1,$6,$7,$8,$9,0*
20,1,$1+$1,$8,$9,$2,$3,0*%
%AMRotRect*
0 Rectangle, with rotation*
0 The origin of the aperture is its center*
0 $1 length*
0 $2 width*
0 $3 Rotation angle, in degrees counterclockwise*
0 Add horizontal line*
21,1,$1,$2,0,0,$3*%
G04 Aperture macros list end*
%TA.AperFunction,ComponentPad*%
%ADD10R,1.778000X1.778000*%
%TD*%
%TA.AperFunction,ComponentPad*%
%ADD11C,1.905000*%
%TD*%
%TA.AperFunction,ComponentPad*%
%ADD12RotRect,1.778000X1.778000X190.000000*%
%TD*%
%TA.AperFunction,ComponentPad*%
%ADD13RotRect,1.778000X1.778000X195.000000*%
%TD*%
%TA.AperFunction,ComponentPad*%
%ADD14RotRect,1.778000X1.778000X200.000000*%
%TD*%
%TA.AperFunction,ComponentPad*%
%ADD15O,2.200000X1.600000*%
%TD*%
%TA.AperFunction,ComponentPad*%
%ADD16RoundRect,0.400000X-0.900000X-0.400000X0.900000X-0.400000X0.900000X0.400000X-0.900000X0.400000X0*%
%TD*%
%TA.AperFunction,ComponentPad*%
%ADD17RoundRect,0.400050X-0.899950X-0.400050X0.899950X-0.400050X0.899950X0.400050X-0.899950X0.400050X0*%
%TD*%
%TA.AperFunction,ComponentPad*%
%ADD18RoundRect,0.400000X-0.400000X-0.900000X0.400000X-0.900000X0.400000X0.900000X-0.400000X0.900000X0*%
%TD*%
%TA.AperFunction,ComponentPad*%
%ADD19RoundRect,0.393700X-0.393700X-0.906300X0.393700X-0.906300X0.393700X0.906300X-0.393700X0.906300X0*%
%TD*%
%TA.AperFunction,ViaPad*%
%ADD20C,0.600000*%
%TD*%
%TA.AperFunction,Conductor*%
%ADD21C,0.200000*%
%TD*%
G04 APERTURE END LIST*
D10*
%TO.P,D1,1*%
%TO.N,GP10*%
X351810000Y-197750000D03*
D11*
%TO.P,D1,2*%
%TO.N,mirror_outer_bottom*%
X344190000Y-197750000D03*
%TD*%
D10*
%TO.P,D2,1*%
%TO.N,GP11*%
X351810000Y-178750000D03*
D11*
%TO.P,D2,2*%
%TO.N,mirror_outer_home*%
X344190000Y-178750000D03*
%TD*%
D10*
%TO.P,D3,1*%
%TO.N,GP12*%
X351810000Y-159750000D03*
D11*
%TO.P,D3,2*%
%TO.N,mirror_outer_top*%
X344190000Y-159750000D03*
%TD*%
D10*
%TO.P,D4,1*%
%TO.N,GP13*%
X351810000Y-140750000D03*
D11*
%TO.P,D4,2*%
%TO.N,mirror_outer_num*%
X344190000Y-140750000D03*
%TD*%
D10*
%TO.P,D5,1*%
%TO.N,GP10*%
X332810000Y-186320000D03*
D11*
%TO.P,D5,2*%
%TO.N,mirror_pinky_bottom*%
X325190000Y-186320000D03*
%TD*%
D10*
%TO.P,D6,1*%
%TO.N,GP11*%
X332810000Y-167320000D03*
D11*
%TO.P,D6,2*%
%TO.N,mirror_pinky_home*%
X325190000Y-167320000D03*
%TD*%
D10*
%TO.P,D7,1*%
%TO.N,GP12*%
X332810000Y-148320000D03*
D11*
%TO.P,D7,2*%
%TO.N,mirror_pinky_top*%
X325190000Y-148320000D03*
%TD*%
D10*
%TO.P,D8,1*%
%TO.N,GP13*%
X332810000Y-129320000D03*
D11*
%TO.P,D8,2*%
%TO.N,mirror_pinky_num*%
X325190000Y-129320000D03*
%TD*%
D10*
%TO.P,D9,1*%
%TO.N,GP10*%
X313810000Y-184415000D03*
D11*
%TO.P,D9,2*%
%TO.N,mirror_ring_bottom*%
X306190000Y-184415000D03*
%TD*%
D10*
%TO.P,D10,1*%
%TO.N,GP11*%
X313810000Y-165415000D03*
D11*
%TO.P,D10,2*%
%TO.N,mirror_ring_home*%
X306190000Y-165415000D03*
%TD*%
D10*
%TO.P,D11,1*%
%TO.N,GP12*%
X313810000Y-146415000D03*
D11*
%TO.P,D11,2*%
%TO.N,mirror_ring_top*%
X306190000Y-146415000D03*
%TD*%
D10*
%TO.P,D12,1*%
%TO.N,GP13*%
X313810000Y-127415000D03*
D11*
%TO.P,D12,2*%
%TO.N,mirror_ring_num*%
X306190000Y-127415000D03*
%TD*%
D10*
%TO.P,D13,1*%
%TO.N,GP10*%
X294810000Y-180605000D03*
D11*
%TO.P,D13,2*%
%TO.N,mirror_middle_bottom*%
X287190000Y-180605000D03*
%TD*%
D10*
%TO.P,D14,1*%
%TO.N,GP11*%
X294810000Y-161605000D03*
D11*
%TO.P,D14,2*%
%TO.N,mirror_middle_home*%
X287190000Y-161605000D03*
%TD*%
D10*
%TO.P,D15,1*%
%TO.N,GP12*%
X294810000Y-142605000D03*
D11*
%TO.P,D15,2*%
%TO.N,mirror_middle_top*%
X287190000Y-142605000D03*
%TD*%
D10*
%TO.P,D16,1*%
%TO.N,GP13*%
X294810000Y-123605000D03*
D11*
%TO.P,D16,2*%
%TO.N,mirror_middle_num*%
X287190000Y-123605000D03*
%TD*%
D10*
%TO.P,D17,1*%
%TO.N,GP10*%
X275810000Y-184415000D03*
D11*
%TO.P,D17,2*%
%TO.N,mirror_index_bottom*%
X268190000Y-184415000D03*
%TD*%
D10*
%TO.P,D18,1*%
%TO.N,GP11*%
X275810000Y-165415000D03*
D11*
%TO.P,D18,2*%
%TO.N,mirror_index_home*%
X268190000Y-165415000D03*
%TD*%
D10*
%TO.P,D19,1*%
%TO.N,GP12*%
X275810000Y-146415000D03*
D11*
%TO.P,D19,2*%
%TO.N,mirror_index_top*%
X268190000Y-146415000D03*
%TD*%
D10*
%TO.P,D20,1*%
%TO.N,GP13*%
X275810000Y-127415000D03*
D11*
%TO.P,D20,2*%
%TO.N,mirror_index_num*%
X268190000Y-127415000D03*
%TD*%
D10*
%TO.P,D21,1*%
%TO.N,GP10*%
X256810000Y-186320000D03*
D11*
%TO.P,D21,2*%
%TO.N,mirror_inner_bottom*%
X249190000Y-186320000D03*
%TD*%
D10*
%TO.P,D22,1*%
%TO.N,GP11*%
X256810000Y-167320000D03*
D11*
%TO.P,D22,2*%
%TO.N,mirror_inner_home*%
X249190000Y-167320000D03*
%TD*%
D10*
%TO.P,D23,1*%
%TO.N,GP12*%
X256810000Y-148320000D03*
D11*
%TO.P,D23,2*%
%TO.N,mirror_inner_top*%
X249190000Y-148320000D03*
%TD*%
D10*
%TO.P,D24,1*%
%TO.N,GP13*%
X256810000Y-129320000D03*
D11*
%TO.P,D24,2*%
%TO.N,mirror_inner_num*%
X249190000Y-129320000D03*
%TD*%
D12*
%TO.P,D25,1*%
%TO.N,GP9*%
X287399599Y-204484365D03*
D11*
%TO.P,D25,2*%
%TO.N,mirror_inner_only*%
X279895363Y-205807565D03*
%TD*%
D13*
%TO.P,D26,1*%
%TO.N,GP9*%
X264044761Y-209536573D03*
D11*
%TO.P,D26,2*%
%TO.N,mirror_center_only*%
X256684407Y-211508775D03*
%TD*%
D14*
%TO.P,D27,1*%
%TO.N,GP9*%
X241094189Y-216208819D03*
D11*
%TO.P,D27,2*%
%TO.N,mirror_reach_only*%
X233933731Y-218815013D03*
%TD*%
D15*
%TO.P,TRRS1,2*%
%TO.N,GND*%
X240450000Y-105270000D03*
%TO.P,TRRS1,3*%
%TO.N,GP1*%
X243450000Y-105270000D03*
%TO.P,TRRS1,4*%
%TO.N,P3V3*%
X247450000Y-105270000D03*
%TO.P,TRRS1,5*%
%TO.N,GP0*%
X248550000Y-109870000D03*
%TD*%
D16*
%TO.P,RP2040-Zero,1*%
%TO.N,GP0*%
X356630000Y-100640000D03*
%TO.P,RP2040-Zero,2*%
%TO.N,GP1*%
X356630000Y-103180000D03*
%TO.P,RP2040-Zero,3*%
%TO.N,GP2*%
X356630000Y-105720000D03*
%TO.P,RP2040-Zero,4*%
%TO.N,GP3*%
X356630000Y-108260000D03*
%TO.P,RP2040-Zero,5*%
%TO.N,GP4*%
X356630000Y-110800000D03*
D17*
%TO.P,RP2040-Zero,6*%
%TO.N,GP5*%
X356630000Y-113340000D03*
%TO.P,RP2040-Zero,7*%
%TO.N,GP6*%
X356630000Y-115880000D03*
%TO.P,RP2040-Zero,8*%
%TO.N,GP7*%
X356630000Y-118420000D03*
%TO.P,RP2040-Zero,9*%
%TO.N,GP8*%
X356630000Y-120960000D03*
D18*
%TO.P,RP2040-Zero,10*%
%TO.N,GP9*%
X353490000Y-121770000D03*
D19*
%TO.P,RP2040-Zero,11*%
%TO.N,GP10*%
X350950000Y-121770000D03*
%TO.P,RP2040-Zero,12*%
%TO.N,GP11*%
X348410000Y-121770000D03*
%TO.P,RP2040-Zero,13*%
%TO.N,GP12*%
X345870000Y-121770000D03*
%TO.P,RP2040-Zero,14*%
%TO.N,GP13*%
X343330000Y-121770000D03*
D17*
%TO.P,RP2040-Zero,15*%
%TO.N,GP14*%
X340190000Y-120960000D03*
%TO.P,RP2040-Zero,16*%
%TO.N,GP15*%
X340190000Y-118420000D03*
%TO.P,RP2040-Zero,17*%
%TO.N,GP26*%
X340190000Y-115880000D03*
%TO.P,RP2040-Zero,18*%
%TO.N,GP27*%
X340190000Y-113340000D03*
%TO.P,RP2040-Zero,19*%
%TO.N,P5V*%
X340190000Y-100640000D03*
%TO.P,RP2040-Zero,20*%
%TO.N,GND*%
X340190000Y-103180000D03*
%TO.P,RP2040-Zero,21*%
%TO.N,P3V3*%
X340190000Y-105720000D03*
%TO.P,RP2040-Zero,22*%
%TO.N,GP28*%
X340190000Y-110800000D03*
%TO.P,RP2040-Zero,23*%
%TO.N,GP29*%
X340190000Y-108260000D03*
%TD*%
D20*
%TO.N,GP6*%
X335500000Y-120500000D03*
X334000000Y-113500000D03*
%TO.N,GP1*%
X337500000Y-110500000D03*
%TO.N,GP0*%
X340000000Y-125500000D03*
%TO.N,GP1*%
X339000000Y-125500000D03*
%TO.N,GP0*%
X336500000Y-107000000D03*
%TO.N,GP1*%
X336500000Y-104000000D03*
%TO.N,GP0*%
X359000000Y-123500000D03*
%TO.N,GP1*%
X358000000Y-123432900D03*
%TD*%
D21*
%TO.N,GP6*%
X335500000Y-120500000D02*
X336000000Y-120000000D01*
X336000000Y-120000000D02*
X336000000Y-115500000D01*
X336000000Y-115500000D02*
X334000000Y-113500000D01*
%TO.N,GP9*%
X264044761Y-209536573D02*
X266228074Y-211719886D01*
X266228074Y-211719886D02*
X274594378Y-209478141D01*
X274819418Y-209417842D02*
X275023989Y-209363027D01*
X274594378Y-209478141D02*
X274610849Y-209454618D01*
X274610849Y-209454618D02*
X274819418Y-209417842D01*
X275023989Y-209363027D02*
X275048858Y-209377385D01*
X275048858Y-209377385D02*
X286618661Y-207337317D01*
X286618661Y-207337317D02*
X287399599Y-206556379D01*
X287399599Y-206556379D02*
X287399599Y-204484365D01*
X264000000Y-212316896D02*
X264044761Y-212272135D01*
X264044761Y-212272135D02*
X264044761Y-209536573D01*
X241094189Y-216208819D02*
X243180460Y-218295090D01*
X243180460Y-218295090D02*
X247080772Y-216875493D01*
X247254398Y-216803867D02*
X247426986Y-216749482D01*
X247080772Y-216875493D02*
X247091310Y-216855258D01*
X247091310Y-216855258D02*
X247133754Y-216841883D01*
X247133754Y-216841883D02*
X247137640Y-216835152D01*
X247137640Y-216835152D02*
X247254398Y-216803867D01*
X247426986Y-216749482D02*
X247457365Y-216749482D01*
X247457365Y-216749482D02*
X264000000Y-212316896D01*
%TO.N,GP10*%
X332810000Y-188810000D02*
X343500000Y-199500000D01*
X332810000Y-186320000D02*
X332810000Y-188810000D01*
X343500000Y-199500000D02*
X350500000Y-199500000D01*
X350500000Y-199500000D02*
X351810000Y-198190000D01*
X351810000Y-198190000D02*
X351810000Y-197750000D01*
X313810000Y-184810000D02*
X317000000Y-188000000D01*
X331130000Y-188000000D02*
X332810000Y-186320000D01*
X313810000Y-184415000D02*
X313810000Y-184810000D01*
X317000000Y-188000000D02*
X331130000Y-188000000D01*
X295105000Y-180605000D02*
X301000000Y-186500000D01*
X313810000Y-185690000D02*
X313810000Y-184415000D01*
X294810000Y-180605000D02*
X295105000Y-180605000D01*
X301000000Y-186500000D02*
X313000000Y-186500000D01*
X313000000Y-186500000D02*
X313810000Y-185690000D01*
X275810000Y-184415000D02*
X291000000Y-184415000D01*
X291000000Y-184415000D02*
X294810000Y-180605000D01*
X256810000Y-186320000D02*
X273905000Y-186320000D01*
X273905000Y-186320000D02*
X275810000Y-184415000D01*
%TO.N,GP11*%
X332810000Y-167320000D02*
X332810000Y-169810000D01*
X332810000Y-169810000D02*
X343500000Y-180500000D01*
X343500000Y-180500000D02*
X350060000Y-180500000D01*
X350060000Y-180500000D02*
X351810000Y-178750000D01*
X313810000Y-165415000D02*
X318395000Y-170000000D01*
X318395000Y-170000000D02*
X330130000Y-170000000D01*
X330130000Y-170000000D02*
X332810000Y-167320000D01*
X294810000Y-161810000D02*
X301000000Y-168000000D01*
X294810000Y-161605000D02*
X294810000Y-161810000D01*
X301000000Y-168000000D02*
X311225000Y-168000000D01*
X311225000Y-168000000D02*
X313810000Y-165415000D01*
X275810000Y-165415000D02*
X276171000Y-165054000D01*
X276171000Y-165054000D02*
X291361000Y-165054000D01*
X291361000Y-165054000D02*
X294810000Y-161605000D01*
X256810000Y-167320000D02*
X273905000Y-167320000D01*
X273905000Y-167320000D02*
X275810000Y-165415000D01*
%TO.N,GP12*%
X351810000Y-159750000D02*
X350060000Y-161500000D01*
X350060000Y-161500000D02*
X344000000Y-161500000D01*
X344000000Y-161500000D02*
X332810000Y-150310000D01*
X332810000Y-150310000D02*
X332810000Y-148320000D01*
X313915000Y-146415000D02*
X317500000Y-150000000D01*
X313810000Y-146415000D02*
X313915000Y-146415000D01*
X317500000Y-150000000D02*
X331130000Y-150000000D01*
X331130000Y-150000000D02*
X332810000Y-148320000D01*
X294810000Y-142810000D02*
X301000000Y-149000000D01*
X294810000Y-142605000D02*
X294810000Y-142810000D01*
X301000000Y-149000000D02*
X311225000Y-149000000D01*
X311225000Y-149000000D02*
X313810000Y-146415000D01*
X276725000Y-145500000D02*
X292000000Y-145500000D01*
X275810000Y-146415000D02*
X276725000Y-145500000D01*
X292000000Y-145500000D02*
X292000000Y-145415000D01*
X292000000Y-145415000D02*
X294810000Y-142605000D01*
X256810000Y-148320000D02*
X273905000Y-148320000D01*
X273905000Y-148320000D02*
X275810000Y-146415000D01*
%TO.N,GP13*%
X332810000Y-131810000D02*
X343500000Y-142500000D01*
X332810000Y-129320000D02*
X332810000Y-131810000D01*
X343500000Y-142500000D02*
X350060000Y-142500000D01*
X350060000Y-142500000D02*
X351810000Y-140750000D01*
X313810000Y-127415000D02*
X316968500Y-130573500D01*
X316968500Y-130573500D02*
X331556500Y-130573500D01*
X331556500Y-130573500D02*
X332810000Y-129320000D01*
X294810000Y-123605000D02*
X300205000Y-129000000D01*
X300205000Y-129000000D02*
X312225000Y-129000000D01*
X312225000Y-129000000D02*
X313810000Y-127415000D01*
X275810000Y-127415000D02*
X276171000Y-127054000D01*
X276171000Y-127054000D02*
X291361000Y-127054000D01*
X291361000Y-127054000D02*
X294810000Y-123605000D01*
X256810000Y-129320000D02*
X273905000Y-129320000D01*
X273905000Y-129320000D02*
X275810000Y-127415000D01*
%TO.N,GP9*%
X353490000Y-121170000D02*
X353500000Y-121180000D01*
X353500000Y-121180000D02*
X353500000Y-125396000D01*
X292984365Y-204484365D02*
X287399599Y-204484365D01*
X353500000Y-125396000D02*
X358164400Y-125396000D01*
X358164400Y-125396000D02*
X361604000Y-128835600D01*
X361604000Y-128835600D02*
X361604000Y-196963100D01*
X361604000Y-196963100D02*
X356067100Y-202500000D01*
X356067100Y-202500000D02*
X295000000Y-202500000D01*
X295000000Y-202500000D02*
X293000000Y-204500000D01*
X293000000Y-204500000D02*
X292984365Y-204484365D01*
%TO.N,GP10*%
X350950000Y-121170000D02*
X350950000Y-124748700D01*
X350950000Y-124748700D02*
X351998300Y-125797000D01*
X351998300Y-125797000D02*
X357998300Y-125797000D01*
X357998300Y-125797000D02*
X361203000Y-129001700D01*
X361203000Y-129001700D02*
X361203000Y-196797000D01*
X361203000Y-196797000D02*
X360250000Y-197750000D01*
X360250000Y-197750000D02*
X351810000Y-197750000D01*
%TO.N,GP11*%
X351810000Y-178750000D02*
X352060000Y-178500000D01*
X352060000Y-178500000D02*
X359500000Y-178500000D01*
X359500000Y-178500000D02*
X360802000Y-177198000D01*
X360802000Y-177198000D02*
X360802000Y-129167800D01*
X360802000Y-129167800D02*
X357832200Y-126198000D01*
X357832200Y-126198000D02*
X351832200Y-126198000D01*
X351832200Y-126198000D02*
X350031200Y-124397000D01*
X350031200Y-124397000D02*
X348500000Y-124397000D01*
X348500000Y-124397000D02*
X348500000Y-121260000D01*
X348500000Y-121260000D02*
X348410000Y-121170000D01*
%TO.N,GP12*%
X345870000Y-121170000D02*
X345870000Y-123485356D01*
X345870000Y-123485356D02*
X347182644Y-124798000D01*
X347182644Y-124798000D02*
X349865100Y-124798000D01*
X349865100Y-124798000D02*
X351666100Y-126599000D01*
X351666100Y-126599000D02*
X357666100Y-126599000D01*
X357666100Y-126599000D02*
X360401000Y-129333900D01*
X360401000Y-129333900D02*
X360401000Y-158599000D01*
X360401000Y-158599000D02*
X359250000Y-159750000D01*
X359250000Y-159750000D02*
X351810000Y-159750000D01*
%TO.N,GP13*%
X351810000Y-140750000D02*
X359250000Y-140750000D01*
X359250000Y-140750000D02*
X360000000Y-140000000D01*
X343330000Y-121512456D02*
X343330000Y-121170000D01*
X360000000Y-140000000D02*
X360000000Y-129500000D01*
X360000000Y-129500000D02*
X357500000Y-127000000D01*
X357500000Y-127000000D02*
X351500000Y-127000000D01*
X351500000Y-127000000D02*
X349699000Y-125199000D01*
X349699000Y-125199000D02*
X347016544Y-125199000D01*
X347016544Y-125199000D02*
X343330000Y-121512456D01*
%TO.N,GP0*%
X336500000Y-124000000D02*
X339000000Y-126500000D01*
X336500000Y-107000000D02*
X336500000Y-124000000D01*
X339000000Y-126500000D02*
X340000000Y-125500000D01*
%TO.N,GP1*%
X337500000Y-110500000D02*
X337500000Y-124000000D01*
X337500000Y-124000000D02*
X339000000Y-125500000D01*
%TO.N,GP0*%
X359000000Y-123000000D02*
X359000000Y-123500000D01*
%TO.N,GP1*%
X359716450Y-121716450D02*
X358000000Y-123432900D01*
X360099000Y-106599000D02*
X360099000Y-112000000D01*
X356680000Y-103180000D02*
X360099000Y-106599000D01*
X356030000Y-103180000D02*
X356680000Y-103180000D01*
X360099000Y-112000000D02*
X360099000Y-121333900D01*
X360099000Y-121333900D02*
X359716450Y-121716450D01*
%TO.N,GP0*%
X360500000Y-121500000D02*
X359000000Y-123000000D01*
X360500000Y-103500000D02*
X360500000Y-121500000D01*
X356030000Y-100640000D02*
X357640000Y-100640000D01*
X357640000Y-100640000D02*
X360500000Y-103500000D01*
X336298700Y-107000000D02*
X336500000Y-107000000D01*
X333399350Y-104100650D02*
X336298700Y-107000000D01*
X256717000Y-101703000D02*
X257500000Y-101703000D01*
X257500000Y-101703000D02*
X331001700Y-101703000D01*
X248550000Y-109870000D02*
X256717000Y-101703000D01*
X331001700Y-101703000D02*
X333399350Y-104100650D01*
%TO.N,P3V3*%
X247450000Y-105270000D02*
X251418000Y-101302000D01*
X251418000Y-101302000D02*
X331167800Y-101302000D01*
X331167800Y-101302000D02*
X335585800Y-105720000D01*
X335585800Y-105720000D02*
X340790000Y-105720000D01*
%TO.N,GP1*%
X334432900Y-104000000D02*
X336500000Y-104000000D01*
X247819000Y-100901000D02*
X249000000Y-100901000D01*
X333716450Y-103283550D02*
X334432900Y-104000000D01*
X243450000Y-105270000D02*
X247819000Y-100901000D01*
X331333900Y-100901000D02*
X333716450Y-103283550D01*
X249000000Y-100901000D02*
X331333900Y-100901000D01*
%TO.N,GND*%
X245500000Y-100500000D02*
X331500000Y-100500000D01*
X331500000Y-100500000D02*
X334000000Y-103000000D01*
X240450000Y-105270000D02*
X240730000Y-105270000D01*
X240730000Y-105270000D02*
X245500000Y-100500000D01*
X340610000Y-103000000D02*
X340790000Y-103180000D01*
X334000000Y-103000000D02*
X340610000Y-103000000D01*
%TD*%
M02*
