%TF.GenerationSoftware,KiCad,Pcbnew,9.0.6-1.fc43*%
%TF.CreationDate,2026-01-18T15:00:55+01:00*%
%TF.ProjectId,leftPCB,6c656674-5043-4422-9e6b-696361645f70,v1.0.0*%
%TF.SameCoordinates,Original*%
%TF.FileFunction,Copper,L1,Top*%
%TF.FilePolarity,Positive*%
%FSLAX46Y46*%
G04 Gerber Fmt 4.6, Leading zero omitted, Abs format (unit mm)*
G04 Created by KiCad (PCBNEW 9.0.6-1.fc43) date 2026-01-18 15:00:55*
%MOMM*%
%LPD*%
G01*
G04 APERTURE LIST*
G04 Aperture macros list*
%AMRoundRect*
0 Rectangle with rounded corners*
0 $1 Rounding radius*
0 $2 $3 $4 $5 $6 $7 $8 $9 X,Y pos of 4 corners*
0 Add a 4 corners polygon primitive as box body*
4,1,4,$2,$3,$4,$5,$6,$7,$8,$9,$2,$3,0*
0 Add four circle primitives for the rounded corners*
1,1,$1+$1,$2,$3*
1,1,$1+$1,$4,$5*
1,1,$1+$1,$6,$7*
1,1,$1+$1,$8,$9*
0 Add four rect primitives between the rounded corners*
20,1,$1+$1,$2,$3,$4,$5,0*
20,1,$1+$1,$4,$5,$6,$7,0*
20,1,$1+$1,$6,$7,$8,$9,0*
20,1,$1+$1,$8,$9,$2,$3,0*%
%AMRotRect*
0 Rectangle, with rotation*
0 The origin of the aperture is its center*
0 $1 length*
0 $2 width*
0 $3 Rotation angle, in degrees counterclockwise*
0 Add horizontal line*
21,1,$1,$2,0,0,$3*%
G04 Aperture macros list end*
%TA.AperFunction,ComponentPad*%
%ADD10O,2.200000X1.600000*%
%TD*%
%TA.AperFunction,ComponentPad*%
%ADD11RoundRect,0.400000X-0.900000X-0.400000X0.900000X-0.400000X0.900000X0.400000X-0.900000X0.400000X0*%
%TD*%
%TA.AperFunction,ComponentPad*%
%ADD12RoundRect,0.400050X-0.899950X-0.400050X0.899950X-0.400050X0.899950X0.400050X-0.899950X0.400050X0*%
%TD*%
%TA.AperFunction,ComponentPad*%
%ADD13RoundRect,0.400000X-0.400000X-0.900000X0.400000X-0.900000X0.400000X0.900000X-0.400000X0.900000X0*%
%TD*%
%TA.AperFunction,ComponentPad*%
%ADD14RoundRect,0.393700X-0.393700X-0.906300X0.393700X-0.906300X0.393700X0.906300X-0.393700X0.906300X0*%
%TD*%
%TA.AperFunction,ComponentPad*%
%ADD15R,1.778000X1.778000*%
%TD*%
%TA.AperFunction,ComponentPad*%
%ADD16C,1.905000*%
%TD*%
%TA.AperFunction,ComponentPad*%
%ADD17RotRect,1.778000X1.778000X170.000000*%
%TD*%
%TA.AperFunction,ComponentPad*%
%ADD18RotRect,1.778000X1.778000X160.000000*%
%TD*%
%TA.AperFunction,ComponentPad*%
%ADD19RotRect,1.778000X1.778000X165.000000*%
%TD*%
%TA.AperFunction,ViaPad*%
%ADD20C,0.600000*%
%TD*%
%TA.AperFunction,Conductor*%
%ADD21C,0.200000*%
%TD*%
G04 APERTURE END LIST*
D10*
%TO.P,TRRS1,2*%
%TO.N,GND*%
X147550000Y-109870000D03*
%TO.P,TRRS1,3*%
%TO.N,GP1*%
X144550000Y-109870000D03*
%TO.P,TRRS1,4*%
%TO.N,P3V3*%
X140550000Y-109870000D03*
%TO.P,TRRS1,5*%
%TO.N,GP0*%
X139450000Y-105270000D03*
%TD*%
D11*
%TO.P,RP2040-Zero,1*%
%TO.N,GP0*%
X47880000Y-100640000D03*
%TO.P,RP2040-Zero,2*%
%TO.N,GP1*%
X47880000Y-103180000D03*
%TO.P,RP2040-Zero,3*%
%TO.N,GP2*%
X47880000Y-105720000D03*
%TO.P,RP2040-Zero,4*%
%TO.N,GP3*%
X47880000Y-108260000D03*
%TO.P,RP2040-Zero,5*%
%TO.N,GP4*%
X47880000Y-110800000D03*
D12*
%TO.P,RP2040-Zero,6*%
%TO.N,GP5*%
X47880000Y-113340000D03*
%TO.P,RP2040-Zero,7*%
%TO.N,GP6*%
X47880000Y-115880000D03*
%TO.P,RP2040-Zero,8*%
%TO.N,GP7*%
X47880000Y-118420000D03*
%TO.P,RP2040-Zero,9*%
%TO.N,GP8*%
X47880000Y-120960000D03*
D13*
%TO.P,RP2040-Zero,10*%
%TO.N,GP9*%
X44740000Y-121770000D03*
D14*
%TO.P,RP2040-Zero,11*%
%TO.N,GP10*%
X42200000Y-121770000D03*
%TO.P,RP2040-Zero,12*%
%TO.N,GP11*%
X39660000Y-121770000D03*
%TO.P,RP2040-Zero,13*%
%TO.N,GP12*%
X37120000Y-121770000D03*
%TO.P,RP2040-Zero,14*%
%TO.N,GP13*%
X34580000Y-121770000D03*
D12*
%TO.P,RP2040-Zero,15*%
%TO.N,GP14*%
X31440000Y-120960000D03*
%TO.P,RP2040-Zero,16*%
%TO.N,GP15*%
X31440000Y-118420000D03*
%TO.P,RP2040-Zero,17*%
%TO.N,GP26*%
X31440000Y-115880000D03*
%TO.P,RP2040-Zero,18*%
%TO.N,GP27*%
X31440000Y-113340000D03*
%TO.P,RP2040-Zero,19*%
%TO.N,P5V*%
X31440000Y-100640000D03*
%TO.P,RP2040-Zero,20*%
%TO.N,GND*%
X31440000Y-103180000D03*
%TO.P,RP2040-Zero,21*%
%TO.N,P3V3*%
X31440000Y-105720000D03*
%TO.P,RP2040-Zero,22*%
%TO.N,GP28*%
X31440000Y-110800000D03*
%TO.P,RP2040-Zero,23*%
%TO.N,GP29*%
X31440000Y-108260000D03*
%TD*%
D15*
%TO.P,D9,1*%
%TO.N,GP10*%
X81810000Y-184415000D03*
D16*
%TO.P,D9,2*%
%TO.N,ring_bottom*%
X74190000Y-184415000D03*
%TD*%
D15*
%TO.P,D8,1*%
%TO.N,GP13*%
X62810000Y-129320000D03*
D16*
%TO.P,D8,2*%
%TO.N,pinky_num*%
X55190000Y-129320000D03*
%TD*%
D15*
%TO.P,D1,1*%
%TO.N,GP10*%
X43810000Y-197750000D03*
D16*
%TO.P,D1,2*%
%TO.N,outer_bottom*%
X36190000Y-197750000D03*
%TD*%
D15*
%TO.P,D2,1*%
%TO.N,GP11*%
X43810000Y-178750000D03*
D16*
%TO.P,D2,2*%
%TO.N,outer_home*%
X36190000Y-178750000D03*
%TD*%
D15*
%TO.P,D11,1*%
%TO.N,GP12*%
X81810000Y-146415000D03*
D16*
%TO.P,D11,2*%
%TO.N,ring_top*%
X74190000Y-146415000D03*
%TD*%
D15*
%TO.P,D10,1*%
%TO.N,GP11*%
X81810000Y-165415000D03*
D16*
%TO.P,D10,2*%
%TO.N,ring_home*%
X74190000Y-165415000D03*
%TD*%
D15*
%TO.P,D5,1*%
%TO.N,GP10*%
X62810000Y-186320000D03*
D16*
%TO.P,D5,2*%
%TO.N,pinky_bottom*%
X55190000Y-186320000D03*
%TD*%
D15*
%TO.P,D7,1*%
%TO.N,GP12*%
X62810000Y-148320000D03*
D16*
%TO.P,D7,2*%
%TO.N,pinky_top*%
X55190000Y-148320000D03*
%TD*%
D15*
%TO.P,D15,1*%
%TO.N,GP12*%
X100810000Y-142605000D03*
D16*
%TO.P,D15,2*%
%TO.N,middle_top*%
X93190000Y-142605000D03*
%TD*%
D15*
%TO.P,D24,1*%
%TO.N,GP13*%
X138810000Y-129320000D03*
D16*
%TO.P,D24,2*%
%TO.N,inner_num*%
X131190000Y-129320000D03*
%TD*%
D15*
%TO.P,D6,1*%
%TO.N,GP11*%
X62810000Y-167320000D03*
D16*
%TO.P,D6,2*%
%TO.N,pinky_home*%
X55190000Y-167320000D03*
%TD*%
D17*
%TO.P,D25,1*%
%TO.N,GP9*%
X108104638Y-205807565D03*
D16*
%TO.P,D25,2*%
%TO.N,inner_only*%
X100600400Y-204484365D03*
%TD*%
D15*
%TO.P,D20,1*%
%TO.N,GP13*%
X119810000Y-127415000D03*
D16*
%TO.P,D20,2*%
%TO.N,index_num*%
X112190000Y-127415000D03*
%TD*%
D15*
%TO.P,D23,1*%
%TO.N,GP12*%
X138810000Y-148320000D03*
D16*
%TO.P,D23,2*%
%TO.N,inner_top*%
X131190000Y-148320000D03*
%TD*%
D15*
%TO.P,D3,1*%
%TO.N,GP12*%
X43810000Y-159750000D03*
D16*
%TO.P,D3,2*%
%TO.N,outer_top*%
X36190000Y-159750000D03*
%TD*%
D18*
%TO.P,D27,1*%
%TO.N,GP9*%
X154066269Y-218815013D03*
D16*
%TO.P,D27,2*%
%TO.N,reach_only*%
X146905811Y-216208819D03*
%TD*%
D15*
%TO.P,D19,1*%
%TO.N,GP12*%
X119810000Y-146415000D03*
D16*
%TO.P,D19,2*%
%TO.N,index_top*%
X112190000Y-146415000D03*
%TD*%
D15*
%TO.P,D16,1*%
%TO.N,GP13*%
X100810000Y-123605000D03*
D16*
%TO.P,D16,2*%
%TO.N,middle_num*%
X93190000Y-123605000D03*
%TD*%
D15*
%TO.P,D21,1*%
%TO.N,GP10*%
X138810000Y-186320000D03*
D16*
%TO.P,D21,2*%
%TO.N,inner_bottom*%
X131190000Y-186320000D03*
%TD*%
D15*
%TO.P,D22,1*%
%TO.N,GP11*%
X138810000Y-167320000D03*
D16*
%TO.P,D22,2*%
%TO.N,inner_home*%
X131190000Y-167320000D03*
%TD*%
D19*
%TO.P,D26,1*%
%TO.N,GP9*%
X131315593Y-211508776D03*
D16*
%TO.P,D26,2*%
%TO.N,center_only*%
X123955239Y-209536572D03*
%TD*%
D15*
%TO.P,D17,1*%
%TO.N,GP10*%
X119810000Y-184415000D03*
D16*
%TO.P,D17,2*%
%TO.N,index_bottom*%
X112190000Y-184415000D03*
%TD*%
D15*
%TO.P,D4,1*%
%TO.N,GP13*%
X43810000Y-140750000D03*
D16*
%TO.P,D4,2*%
%TO.N,outer_num*%
X36190000Y-140750000D03*
%TD*%
D15*
%TO.P,D18,1*%
%TO.N,GP11*%
X119810000Y-165415000D03*
D16*
%TO.P,D18,2*%
%TO.N,index_home*%
X112190000Y-165415000D03*
%TD*%
D15*
%TO.P,D13,1*%
%TO.N,GP10*%
X100810000Y-180605000D03*
D16*
%TO.P,D13,2*%
%TO.N,middle_bottom*%
X93190000Y-180605000D03*
%TD*%
D15*
%TO.P,D12,1*%
%TO.N,GP13*%
X81810000Y-127415000D03*
D16*
%TO.P,D12,2*%
%TO.N,ring_num*%
X74190000Y-127415000D03*
%TD*%
D15*
%TO.P,D14,1*%
%TO.N,GP11*%
X100810000Y-161605000D03*
D16*
%TO.P,D14,2*%
%TO.N,middle_home*%
X93190000Y-161605000D03*
%TD*%
D20*
%TO.N,GND*%
X51000000Y-122500000D03*
%TO.N,GP10*%
X28000000Y-129500000D03*
%TO.N,GP11*%
X28000000Y-128000000D03*
%TO.N,GP12*%
X28000000Y-126500000D03*
%TO.N,GP13*%
X28000000Y-125000000D03*
%TO.N,GP9*%
X28000000Y-131000000D03*
%TO.N,P3V3*%
X50000000Y-122500000D03*
%TD*%
D21*
%TO.N,GP9*%
X131315593Y-211508776D02*
X131315593Y-213994332D01*
X151912512Y-220876721D02*
X152004561Y-220876721D01*
X131315593Y-213994332D02*
X131701865Y-214380604D01*
X131701865Y-214380604D02*
X140074460Y-216624034D01*
X140074460Y-216624034D02*
X140841823Y-216624034D01*
X140841823Y-216624034D02*
X141192885Y-216975096D01*
X141192885Y-216975096D02*
X151912512Y-220876721D01*
X152004561Y-220876721D02*
X154066269Y-218815013D01*
X113999143Y-209637174D02*
X128628308Y-213557047D01*
X110169534Y-205807565D02*
X113999143Y-209637174D01*
X108104638Y-205807565D02*
X110169534Y-205807565D01*
X128628308Y-213557047D02*
X129267322Y-213557047D01*
X129267322Y-213557047D02*
X131315593Y-211508776D01*
%TO.N,GP10*%
X119810000Y-184415000D02*
X123895000Y-188500000D01*
X123895000Y-188500000D02*
X136630000Y-188500000D01*
X136630000Y-188500000D02*
X138810000Y-186320000D01*
X101105000Y-180605000D02*
X107000000Y-186500000D01*
X100810000Y-180605000D02*
X101105000Y-180605000D01*
X107000000Y-186500000D02*
X117725000Y-186500000D01*
X117725000Y-186500000D02*
X119810000Y-184415000D01*
X96915000Y-184415000D02*
X97000000Y-184500000D01*
X81810000Y-184415000D02*
X96915000Y-184415000D01*
X97000000Y-184500000D02*
X100810000Y-180690000D01*
X100810000Y-180690000D02*
X100810000Y-180605000D01*
X62810000Y-186320000D02*
X79905000Y-186320000D01*
X79905000Y-186320000D02*
X81810000Y-184415000D01*
X43810000Y-197750000D02*
X51380000Y-197750000D01*
X51380000Y-197750000D02*
X62810000Y-186320000D01*
%TO.N,GP11*%
X124915000Y-165415000D02*
X129000000Y-169500000D01*
X136630000Y-169500000D02*
X138810000Y-167320000D01*
X119810000Y-165415000D02*
X124915000Y-165415000D01*
X129000000Y-169500000D02*
X136630000Y-169500000D01*
X102605000Y-161605000D02*
X108500000Y-167500000D01*
X100810000Y-161605000D02*
X102605000Y-161605000D01*
X108500000Y-167500000D02*
X117725000Y-167500000D01*
X117725000Y-167500000D02*
X119810000Y-165415000D01*
X88585000Y-165415000D02*
X90000000Y-164000000D01*
X81810000Y-165415000D02*
X88585000Y-165415000D01*
X90000000Y-164000000D02*
X98415000Y-164000000D01*
X98415000Y-164000000D02*
X100810000Y-161605000D01*
X69500000Y-170000000D02*
X71500000Y-168000000D01*
X65500000Y-170000000D02*
X69500000Y-170000000D01*
X62810000Y-167320000D02*
X62820000Y-167320000D01*
X62820000Y-167320000D02*
X65500000Y-170000000D01*
X71500000Y-168000000D02*
X79225000Y-168000000D01*
X79225000Y-168000000D02*
X81810000Y-165415000D01*
X44250000Y-178750000D02*
X53500000Y-169500000D01*
X43810000Y-178750000D02*
X44250000Y-178750000D01*
X53500000Y-169500000D02*
X60630000Y-169500000D01*
X60630000Y-169500000D02*
X62810000Y-167320000D01*
%TO.N,GP12*%
X124415000Y-146415000D02*
X128500000Y-150500000D01*
X119810000Y-146415000D02*
X124415000Y-146415000D01*
X128500000Y-150500000D02*
X136630000Y-150500000D01*
X136630000Y-150500000D02*
X138810000Y-148320000D01*
X102105000Y-142605000D02*
X108500000Y-149000000D01*
X100810000Y-142605000D02*
X102105000Y-142605000D01*
X108500000Y-149000000D02*
X117225000Y-149000000D01*
X117225000Y-149000000D02*
X119810000Y-146415000D01*
X87085000Y-146415000D02*
X88500000Y-145000000D01*
X81810000Y-146415000D02*
X87085000Y-146415000D01*
X88500000Y-145000000D02*
X98415000Y-145000000D01*
X98415000Y-145000000D02*
X100810000Y-142605000D01*
X70000000Y-150500000D02*
X72000000Y-148500000D01*
X65000000Y-150500000D02*
X70000000Y-150500000D01*
X62810000Y-148320000D02*
X62820000Y-148320000D01*
X62820000Y-148320000D02*
X65000000Y-150500000D01*
X72000000Y-148500000D02*
X79725000Y-148500000D01*
X79725000Y-148500000D02*
X81810000Y-146415000D01*
X43810000Y-159750000D02*
X44750000Y-159750000D01*
X44750000Y-159750000D02*
X54000000Y-150500000D01*
X54000000Y-150500000D02*
X60630000Y-150500000D01*
X60630000Y-150500000D02*
X62810000Y-148320000D01*
%TO.N,GP13*%
X119810000Y-127415000D02*
X123895000Y-131500000D01*
X123895000Y-131500000D02*
X136630000Y-131500000D01*
X136630000Y-131500000D02*
X138810000Y-129320000D01*
X103105000Y-123605000D02*
X109000000Y-129500000D01*
X100810000Y-123605000D02*
X103105000Y-123605000D01*
X109000000Y-129500000D02*
X117725000Y-129500000D01*
X117725000Y-129500000D02*
X119810000Y-127415000D01*
X88585000Y-127415000D02*
X90000000Y-126000000D01*
X81810000Y-127415000D02*
X88585000Y-127415000D01*
X90000000Y-126000000D02*
X98415000Y-126000000D01*
X98415000Y-126000000D02*
X100810000Y-123605000D01*
X62810000Y-129320000D02*
X79905000Y-129320000D01*
X79905000Y-129320000D02*
X81810000Y-127415000D01*
X53000000Y-131560000D02*
X53000000Y-131500000D01*
X43810000Y-140750000D02*
X53000000Y-131560000D01*
X53000000Y-131500000D02*
X60630000Y-131500000D01*
X60630000Y-131500000D02*
X62810000Y-129320000D01*
%TO.N,GND*%
X145500000Y-111500000D02*
X147130000Y-109870000D01*
X137657000Y-111500000D02*
X145500000Y-111500000D01*
X51601000Y-103866100D02*
X51401000Y-103666100D01*
X51401000Y-103666100D02*
X53224100Y-101843000D01*
X128000000Y-101843000D02*
X137657000Y-111500000D01*
X53224100Y-101843000D02*
X128000000Y-101843000D01*
X147130000Y-109870000D02*
X147550000Y-109870000D01*
X51601000Y-121899000D02*
X51601000Y-103866100D01*
X51000000Y-122500000D02*
X51601000Y-121899000D01*
%TO.N,GP10*%
X42200000Y-127800000D02*
X40500000Y-129500000D01*
X42200000Y-121170000D02*
X42200000Y-127800000D01*
X40500000Y-129500000D02*
X28000000Y-129500000D01*
%TO.N,GP11*%
X39660000Y-121170000D02*
X39660000Y-124772291D01*
X39660000Y-124772291D02*
X36432291Y-128000000D01*
X36432291Y-128000000D02*
X28000000Y-128000000D01*
%TO.N,GP12*%
X33500000Y-126500000D02*
X28000000Y-126500000D01*
X37120000Y-122880000D02*
X33500000Y-126500000D01*
X37120000Y-121170000D02*
X37120000Y-122880000D01*
%TO.N,GP13*%
X34580000Y-121170000D02*
X30750000Y-125000000D01*
X30750000Y-125000000D02*
X28000000Y-125000000D01*
%TO.N,GP9*%
X41180923Y-130149000D02*
X37851000Y-130149000D01*
X37851000Y-130149000D02*
X37000000Y-131000000D01*
X44740000Y-126589923D02*
X41180923Y-130149000D01*
X37000000Y-131000000D02*
X28000000Y-131000000D01*
X44740000Y-121170000D02*
X44740000Y-126589923D01*
%TO.N,P3V3*%
X51000000Y-121500000D02*
X51000000Y-103500000D01*
X138428000Y-109870000D02*
X140550000Y-109870000D01*
X53058000Y-101442000D02*
X130000000Y-101442000D01*
X130000000Y-101442000D02*
X138428000Y-109870000D01*
X50000000Y-122500000D02*
X51000000Y-121500000D01*
X51000000Y-103500000D02*
X53058000Y-101442000D01*
%TO.N,GP0*%
X134820000Y-100640000D02*
X47280000Y-100640000D01*
X139450000Y-105270000D02*
X134820000Y-100640000D01*
%TO.N,GP1*%
X50500000Y-101041000D02*
X48361000Y-103180000D01*
X139000000Y-108000000D02*
X132041000Y-101041000D01*
X48361000Y-103180000D02*
X47280000Y-103180000D01*
X142870000Y-109870000D02*
X141000000Y-108000000D01*
X132041000Y-101041000D02*
X50500000Y-101041000D01*
X141000000Y-108000000D02*
X139000000Y-108000000D01*
X144550000Y-109870000D02*
X142870000Y-109870000D01*
%TD*%
M02*
