M48
; DRILL file {KiCad 9.0.6-1.fc43} date 2026-01-18T15:00:50+0100
; FORMAT={-:-/ absolute / metric / decimal}
; #@! TF.CreationDate,2026-01-18T15:00:50+01:00
; #@! TF.GenerationSoftware,Kicad,Pcbnew,9.0.6-1.fc43
; #@! TF.FileFunction,NonPlated,1,2,NPTH
FMAT,2
METRIC
; #@! TA.AperFunction,NonPlated,NPTH,ComponentDrill
T1C1.500
; #@! TA.AperFunction,NonPlated,NPTH,ComponentDrill
T2C1.900
; #@! TA.AperFunction,NonPlated,NPTH,ComponentDrill
T3C2.200
; #@! TA.AperFunction,NonPlated,NPTH,ComponentDrill
T4C3.000
; #@! TA.AperFunction,NonPlated,NPTH,ComponentDrill
T5C4.100
; #@! TA.AperFunction,NonPlated,NPTH,ComponentDrill
T6C5.000
%
G90
G05
T1
X142.15Y-107.57
X149.15Y-107.57
T2
X34.92Y-133.0
X34.92Y-152.0
X34.92Y-171.0
X34.92Y-190.0
X45.08Y-133.0
X45.08Y-152.0
X45.08Y-171.0
X45.08Y-190.0
X53.92Y-121.57
X53.92Y-140.57
X53.92Y-159.57
X53.92Y-178.57
X64.08Y-121.57
X64.08Y-140.57
X64.08Y-159.57
X64.08Y-178.57
X72.92Y-119.665
X72.92Y-138.665
X72.92Y-157.665
X72.92Y-176.665
X83.08Y-119.665
X83.08Y-138.665
X83.08Y-157.665
X83.08Y-176.665
X91.92Y-115.855
X91.92Y-134.855
X91.92Y-153.855
X91.92Y-172.855
X100.695Y-196.632
X102.08Y-115.855
X102.08Y-134.855
X102.08Y-153.855
X102.08Y-172.855
X110.701Y-198.396
X110.92Y-119.665
X110.92Y-138.665
X110.92Y-157.665
X110.92Y-176.665
X121.08Y-119.665
X121.08Y-138.665
X121.08Y-157.665
X121.08Y-176.665
X124.734Y-201.722
X129.92Y-121.57
X129.92Y-140.57
X129.92Y-159.57
X129.92Y-178.57
X134.548Y-204.352
X140.08Y-121.57
X140.08Y-140.57
X140.08Y-159.57
X140.08Y-178.57
X148.363Y-208.492
X157.91Y-211.967
T3
X32.5Y-142.5
X32.5Y-180.5
X139.295Y-213.173
X142.5Y-131.07
X142.5Y-169.07
T4
X37.46Y-138.08
X37.46Y-157.08
X37.46Y-176.08
X37.46Y-195.08
X40.0Y-127.05
X40.0Y-146.05
X40.0Y-165.05
X40.0Y-184.05
X43.81Y-135.54
X43.81Y-154.54
X43.81Y-173.54
X43.81Y-192.54
X45.0Y-129.25
X45.0Y-148.25
X45.0Y-167.25
X45.0Y-186.25
X56.46Y-126.65
X56.46Y-145.65
X56.46Y-164.65
X56.46Y-183.65
X59.0Y-115.62
X59.0Y-134.62
X59.0Y-153.62
X59.0Y-172.62
X62.81Y-124.11
X62.81Y-143.11
X62.81Y-162.11
X62.81Y-181.11
X64.0Y-117.82
X64.0Y-136.82
X64.0Y-155.82
X64.0Y-174.82
X75.46Y-124.745
X75.46Y-143.745
X75.46Y-162.745
X75.46Y-181.745
X78.0Y-113.715
X78.0Y-132.715
X78.0Y-151.715
X78.0Y-170.715
X81.81Y-122.205
X81.81Y-141.205
X81.81Y-160.205
X81.81Y-179.205
X83.0Y-115.915
X83.0Y-134.915
X83.0Y-153.915
X83.0Y-172.915
X94.46Y-120.935
X94.46Y-139.935
X94.46Y-158.935
X94.46Y-177.935
X97.0Y-109.905
X97.0Y-128.905
X97.0Y-147.905
X97.0Y-166.905
X100.81Y-118.395
X100.81Y-137.395
X100.81Y-156.395
X100.81Y-175.395
X102.0Y-112.105
X102.0Y-131.105
X102.0Y-150.105
X102.0Y-169.105
X102.315Y-202.075
X106.731Y-191.654
X109.009Y-200.677
X111.274Y-194.689
X113.46Y-124.745
X113.46Y-143.745
X113.46Y-162.745
X113.46Y-181.745
X116.0Y-113.715
X116.0Y-132.715
X116.0Y-151.715
X116.0Y-170.715
X119.81Y-122.205
X119.81Y-141.205
X119.81Y-160.205
X119.81Y-179.205
X121.0Y-115.915
X121.0Y-134.915
X121.0Y-153.915
X121.0Y-172.915
X125.873Y-207.286
X131.181Y-197.289
X132.46Y-126.65
X132.46Y-145.65
X132.46Y-164.65
X132.46Y-183.65
X132.664Y-206.476
X135.0Y-115.62
X135.0Y-134.62
X135.0Y-153.62
X135.0Y-172.62
X135.441Y-200.709
X138.81Y-124.11
X138.81Y-143.11
X138.81Y-162.11
X138.81Y-181.11
X140.0Y-117.82
X140.0Y-136.82
X140.0Y-155.82
X140.0Y-174.82
X149.012Y-214.134
X155.172Y-204.638
X155.848Y-213.919
X159.118Y-208.416
T5
X40.0Y-133.0
X40.0Y-152.0
X40.0Y-171.0
X40.0Y-190.0
X59.0Y-121.57
X59.0Y-140.57
X59.0Y-159.57
X59.0Y-178.57
X78.0Y-119.665
X78.0Y-138.665
X78.0Y-157.665
X78.0Y-176.665
X97.0Y-115.855
X97.0Y-134.855
X97.0Y-153.855
X97.0Y-172.855
X105.698Y-197.514
X116.0Y-119.665
X116.0Y-138.665
X116.0Y-157.665
X116.0Y-176.665
X129.641Y-203.037
X135.0Y-121.57
X135.0Y-140.57
X135.0Y-159.57
X135.0Y-178.57
X153.137Y-210.229
T6
X40.0Y-133.0
X40.0Y-152.0
X40.0Y-171.0
X40.0Y-190.0
X59.0Y-121.57
X59.0Y-140.57
X59.0Y-159.57
X59.0Y-178.57
X78.0Y-119.665
X78.0Y-138.665
X78.0Y-157.665
X78.0Y-176.665
X97.0Y-115.855
X97.0Y-134.855
X97.0Y-153.855
X97.0Y-172.855
X105.698Y-197.514
X116.0Y-119.665
X116.0Y-138.665
X116.0Y-157.665
X116.0Y-176.665
X129.641Y-203.037
X135.0Y-121.57
X135.0Y-140.57
X135.0Y-159.57
X135.0Y-178.57
X153.137Y-210.229
M30
