%TF.GenerationSoftware,KiCad,Pcbnew,9.0.6-1.fc43*%
%TF.CreationDate,2026-01-18T15:00:57+01:00*%
%TF.ProjectId,leftPCB,6c656674-5043-4422-9e6b-696361645f70,v1.0.0*%
%TF.SameCoordinates,Original*%
%TF.FileFunction,Legend,Top*%
%TF.FilePolarity,Positive*%
%FSLAX46Y46*%
G04 Gerber Fmt 4.6, Leading zero omitted, Abs format (unit mm)*
G04 Created by KiCad (PCBNEW 9.0.6-1.fc43) date 2026-01-18 15:00:57*
%MOMM*%
%LPD*%
G01*
G04 APERTURE LIST*
%ADD10C,0.150000*%
%ADD11C,0.010000*%
%ADD12C,0.120000*%
G04 APERTURE END LIST*
D10*
X126239364Y-192734577D02*
X126172021Y-192617934D01*
X126172021Y-192617934D02*
X126061983Y-192292657D01*
X126061983Y-192292657D02*
X126019289Y-192084021D01*
X126019289Y-192084021D02*
X126001244Y-191783393D01*
X126001244Y-191783393D02*
X126032499Y-191298779D01*
X126032499Y-191298779D02*
X126131096Y-190930807D01*
X126131096Y-190930807D02*
X126346336Y-190495492D01*
X126346336Y-190495492D02*
X126512278Y-190244163D01*
X126512278Y-190244163D02*
X126653569Y-190084826D01*
X126653569Y-190084826D02*
X126911504Y-189858146D01*
X126911504Y-189858146D02*
X127028146Y-189790803D01*
X127448482Y-192269777D02*
X127289145Y-192128485D01*
X127289145Y-192128485D02*
X127246451Y-191919850D01*
X127246451Y-191919850D02*
X127690141Y-190263977D01*
X128945018Y-192572175D02*
X128736383Y-192614869D01*
X128736383Y-192614869D02*
X128368411Y-192516271D01*
X128368411Y-192516271D02*
X128209074Y-192374979D01*
X128209074Y-192374979D02*
X128166380Y-192166344D01*
X128166380Y-192166344D02*
X128363576Y-191430400D01*
X128363576Y-191430400D02*
X128504868Y-191271064D01*
X128504868Y-191271064D02*
X128713503Y-191228370D01*
X128713503Y-191228370D02*
X129081475Y-191326968D01*
X129081475Y-191326968D02*
X129240811Y-191468260D01*
X129240811Y-191468260D02*
X129283505Y-191676895D01*
X129283505Y-191676895D02*
X129234206Y-191860881D01*
X129234206Y-191860881D02*
X128264978Y-191798372D01*
X129909411Y-191548813D02*
X130645355Y-191746008D01*
X129840298Y-192910662D02*
X130283988Y-191254789D01*
X130283988Y-191254789D02*
X130425280Y-191095453D01*
X130425280Y-191095453D02*
X130633915Y-191052759D01*
X130633915Y-191052759D02*
X130817901Y-191102058D01*
X131013326Y-191844606D02*
X131749270Y-192041801D01*
X131461851Y-191274604D02*
X131018161Y-192930476D01*
X131018161Y-192930476D02*
X131060856Y-193139112D01*
X131060856Y-193139112D02*
X131220192Y-193280404D01*
X131220192Y-193280404D02*
X131404178Y-193329702D01*
X131666947Y-194188893D02*
X131783589Y-194121550D01*
X131783589Y-194121550D02*
X132041523Y-193894870D01*
X132041523Y-193894870D02*
X132182815Y-193735533D01*
X132182815Y-193735533D02*
X132348757Y-193484204D01*
X132348757Y-193484204D02*
X132563997Y-193048889D01*
X132563997Y-193048889D02*
X132662594Y-192680917D01*
X132662594Y-192680917D02*
X132693849Y-192196303D01*
X132693849Y-192196303D02*
X132675804Y-191895674D01*
X132675804Y-191895674D02*
X132633110Y-191687039D01*
X132633110Y-191687039D02*
X132523072Y-191361761D01*
X132523072Y-191361761D02*
X132455729Y-191245119D01*
X134931164Y-193781767D02*
X138610881Y-194767744D01*
X135177658Y-192861837D02*
X138857375Y-193847815D01*
X135514375Y-193445049D02*
X135637623Y-192985085D01*
X135359874Y-194389628D02*
X135483121Y-193929663D01*
X135575114Y-193954313D02*
X135698361Y-193494348D01*
X135913601Y-193059033D02*
X136036849Y-192599068D01*
X135974340Y-193568296D02*
X136097587Y-193108332D01*
X136035079Y-194077560D02*
X136158326Y-193617595D01*
X136003825Y-194562174D02*
X136127072Y-194102209D01*
X136373566Y-193182280D02*
X136496813Y-192722315D01*
X136434305Y-193691544D02*
X136557552Y-193231579D01*
X136495044Y-194200807D02*
X136618291Y-193740842D01*
X136833531Y-193305527D02*
X136956778Y-192845563D01*
X136894270Y-193814791D02*
X137017517Y-193354826D01*
X136955008Y-194324054D02*
X137078255Y-193864090D01*
X137293496Y-193428774D02*
X137416743Y-192968810D01*
X137354234Y-193938038D02*
X137477481Y-193478073D01*
X137414973Y-194447301D02*
X137538220Y-193987337D01*
X137383719Y-194931916D02*
X137506966Y-194471951D01*
X137753460Y-193552022D02*
X137876707Y-193092057D01*
X137814199Y-194061285D02*
X137937446Y-193601320D01*
X137874938Y-194570549D02*
X137998185Y-194110584D01*
X138213425Y-193675269D02*
X138336672Y-193215304D01*
X137935676Y-195079812D02*
X138058923Y-194619847D01*
X135054411Y-193321802D02*
X138274164Y-194184532D01*
X138274164Y-194184532D02*
X138397411Y-193724568D01*
X134807916Y-194241731D02*
X135300905Y-192401873D01*
X135300905Y-192401873D02*
X138980623Y-193387850D01*
X138980623Y-193387850D02*
X138487634Y-195227709D01*
X138487634Y-195227709D02*
X134807916Y-194241731D01*
X88336779Y-184504847D02*
X88336779Y-183504847D01*
X88336779Y-183504847D02*
X88908207Y-184504847D01*
X88908207Y-184504847D02*
X88908207Y-183504847D01*
X89289160Y-183504847D02*
X89527255Y-184504847D01*
X89527255Y-184504847D02*
X89717731Y-183790561D01*
X89717731Y-183790561D02*
X89908207Y-184504847D01*
X89908207Y-184504847D02*
X90146303Y-183504847D01*
X90479636Y-184457228D02*
X90622493Y-184504847D01*
X90622493Y-184504847D02*
X90860588Y-184504847D01*
X90860588Y-184504847D02*
X90955826Y-184457228D01*
X90955826Y-184457228D02*
X91003445Y-184409608D01*
X91003445Y-184409608D02*
X91051064Y-184314370D01*
X91051064Y-184314370D02*
X91051064Y-184219132D01*
X91051064Y-184219132D02*
X91003445Y-184123894D01*
X91003445Y-184123894D02*
X90955826Y-184076275D01*
X90955826Y-184076275D02*
X90860588Y-184028656D01*
X90860588Y-184028656D02*
X90670112Y-183981037D01*
X90670112Y-183981037D02*
X90574874Y-183933418D01*
X90574874Y-183933418D02*
X90527255Y-183885799D01*
X90527255Y-183885799D02*
X90479636Y-183790561D01*
X90479636Y-183790561D02*
X90479636Y-183695323D01*
X90479636Y-183695323D02*
X90527255Y-183600085D01*
X90527255Y-183600085D02*
X90574874Y-183552466D01*
X90574874Y-183552466D02*
X90670112Y-183504847D01*
X90670112Y-183504847D02*
X90908207Y-183504847D01*
X90908207Y-183504847D02*
X91051064Y-183552466D01*
X91479636Y-183838180D02*
X91479636Y-184838180D01*
X91479636Y-183885799D02*
X91574874Y-183838180D01*
X91574874Y-183838180D02*
X91765350Y-183838180D01*
X91765350Y-183838180D02*
X91860588Y-183885799D01*
X91860588Y-183885799D02*
X91908207Y-183933418D01*
X91908207Y-183933418D02*
X91955826Y-184028656D01*
X91955826Y-184028656D02*
X91955826Y-184314370D01*
X91955826Y-184314370D02*
X91908207Y-184409608D01*
X91908207Y-184409608D02*
X91860588Y-184457228D01*
X91860588Y-184457228D02*
X91765350Y-184504847D01*
X91765350Y-184504847D02*
X91574874Y-184504847D01*
X91574874Y-184504847D02*
X91479636Y-184457228D01*
X92527255Y-184504847D02*
X92432017Y-184457228D01*
X92432017Y-184457228D02*
X92384398Y-184361989D01*
X92384398Y-184361989D02*
X92384398Y-183504847D01*
X92908208Y-184504847D02*
X92908208Y-183838180D01*
X92908208Y-183504847D02*
X92860589Y-183552466D01*
X92860589Y-183552466D02*
X92908208Y-183600085D01*
X92908208Y-183600085D02*
X92955827Y-183552466D01*
X92955827Y-183552466D02*
X92908208Y-183504847D01*
X92908208Y-183504847D02*
X92908208Y-183600085D01*
X93241541Y-183838180D02*
X93622493Y-183838180D01*
X93384398Y-183504847D02*
X93384398Y-184361989D01*
X93384398Y-184361989D02*
X93432017Y-184457228D01*
X93432017Y-184457228D02*
X93527255Y-184504847D01*
X93527255Y-184504847D02*
X93622493Y-184504847D01*
X95289160Y-184504847D02*
X94955827Y-184028656D01*
X94717732Y-184504847D02*
X94717732Y-183504847D01*
X94717732Y-183504847D02*
X95098684Y-183504847D01*
X95098684Y-183504847D02*
X95193922Y-183552466D01*
X95193922Y-183552466D02*
X95241541Y-183600085D01*
X95241541Y-183600085D02*
X95289160Y-183695323D01*
X95289160Y-183695323D02*
X95289160Y-183838180D01*
X95289160Y-183838180D02*
X95241541Y-183933418D01*
X95241541Y-183933418D02*
X95193922Y-183981037D01*
X95193922Y-183981037D02*
X95098684Y-184028656D01*
X95098684Y-184028656D02*
X94717732Y-184028656D01*
X96098684Y-184457228D02*
X96003446Y-184504847D01*
X96003446Y-184504847D02*
X95812970Y-184504847D01*
X95812970Y-184504847D02*
X95717732Y-184457228D01*
X95717732Y-184457228D02*
X95670113Y-184361989D01*
X95670113Y-184361989D02*
X95670113Y-183981037D01*
X95670113Y-183981037D02*
X95717732Y-183885799D01*
X95717732Y-183885799D02*
X95812970Y-183838180D01*
X95812970Y-183838180D02*
X96003446Y-183838180D01*
X96003446Y-183838180D02*
X96098684Y-183885799D01*
X96098684Y-183885799D02*
X96146303Y-183981037D01*
X96146303Y-183981037D02*
X96146303Y-184076275D01*
X96146303Y-184076275D02*
X95670113Y-184171513D01*
X96479637Y-183838180D02*
X96717732Y-184504847D01*
X96717732Y-184504847D02*
X96955827Y-183838180D01*
X97336780Y-184409608D02*
X97384399Y-184457228D01*
X97384399Y-184457228D02*
X97336780Y-184504847D01*
X97336780Y-184504847D02*
X97289161Y-184457228D01*
X97289161Y-184457228D02*
X97336780Y-184409608D01*
X97336780Y-184409608D02*
X97336780Y-184504847D01*
X98574875Y-184504847D02*
X98574875Y-183504847D01*
X98908208Y-183504847D02*
X99241541Y-184504847D01*
X99241541Y-184504847D02*
X99574874Y-183504847D01*
X88336779Y-186114791D02*
X88336779Y-185114791D01*
X88336779Y-185495743D02*
X88432017Y-185448124D01*
X88432017Y-185448124D02*
X88622493Y-185448124D01*
X88622493Y-185448124D02*
X88717731Y-185495743D01*
X88717731Y-185495743D02*
X88765350Y-185543362D01*
X88765350Y-185543362D02*
X88812969Y-185638600D01*
X88812969Y-185638600D02*
X88812969Y-185924314D01*
X88812969Y-185924314D02*
X88765350Y-186019552D01*
X88765350Y-186019552D02*
X88717731Y-186067172D01*
X88717731Y-186067172D02*
X88622493Y-186114791D01*
X88622493Y-186114791D02*
X88432017Y-186114791D01*
X88432017Y-186114791D02*
X88336779Y-186067172D01*
X89146303Y-185448124D02*
X89384398Y-186114791D01*
X89622493Y-185448124D02*
X89384398Y-186114791D01*
X89384398Y-186114791D02*
X89289160Y-186352886D01*
X89289160Y-186352886D02*
X89241541Y-186400505D01*
X89241541Y-186400505D02*
X89146303Y-186448124D01*
X90765351Y-186114791D02*
X90765351Y-185114791D01*
X90765351Y-185114791D02*
X91336779Y-186114791D01*
X91336779Y-186114791D02*
X91336779Y-185114791D01*
X91717732Y-185114791D02*
X91955827Y-186114791D01*
X91955827Y-186114791D02*
X92146303Y-185400505D01*
X92146303Y-185400505D02*
X92336779Y-186114791D01*
X92336779Y-186114791D02*
X92574875Y-185114791D01*
X92908208Y-186067172D02*
X93051065Y-186114791D01*
X93051065Y-186114791D02*
X93289160Y-186114791D01*
X93289160Y-186114791D02*
X93384398Y-186067172D01*
X93384398Y-186067172D02*
X93432017Y-186019552D01*
X93432017Y-186019552D02*
X93479636Y-185924314D01*
X93479636Y-185924314D02*
X93479636Y-185829076D01*
X93479636Y-185829076D02*
X93432017Y-185733838D01*
X93432017Y-185733838D02*
X93384398Y-185686219D01*
X93384398Y-185686219D02*
X93289160Y-185638600D01*
X93289160Y-185638600D02*
X93098684Y-185590981D01*
X93098684Y-185590981D02*
X93003446Y-185543362D01*
X93003446Y-185543362D02*
X92955827Y-185495743D01*
X92955827Y-185495743D02*
X92908208Y-185400505D01*
X92908208Y-185400505D02*
X92908208Y-185305267D01*
X92908208Y-185305267D02*
X92955827Y-185210029D01*
X92955827Y-185210029D02*
X93003446Y-185162410D01*
X93003446Y-185162410D02*
X93098684Y-185114791D01*
X93098684Y-185114791D02*
X93336779Y-185114791D01*
X93336779Y-185114791D02*
X93479636Y-185162410D01*
X93765351Y-185448124D02*
X94146303Y-185448124D01*
X93908208Y-185114791D02*
X93908208Y-185971933D01*
X93908208Y-185971933D02*
X93955827Y-186067172D01*
X93955827Y-186067172D02*
X94051065Y-186114791D01*
X94051065Y-186114791D02*
X94146303Y-186114791D01*
X94860589Y-186067172D02*
X94765351Y-186114791D01*
X94765351Y-186114791D02*
X94574875Y-186114791D01*
X94574875Y-186114791D02*
X94479637Y-186067172D01*
X94479637Y-186067172D02*
X94432018Y-185971933D01*
X94432018Y-185971933D02*
X94432018Y-185590981D01*
X94432018Y-185590981D02*
X94479637Y-185495743D01*
X94479637Y-185495743D02*
X94574875Y-185448124D01*
X94574875Y-185448124D02*
X94765351Y-185448124D01*
X94765351Y-185448124D02*
X94860589Y-185495743D01*
X94860589Y-185495743D02*
X94908208Y-185590981D01*
X94908208Y-185590981D02*
X94908208Y-185686219D01*
X94908208Y-185686219D02*
X94432018Y-185781457D01*
X95717732Y-186067172D02*
X95622494Y-186114791D01*
X95622494Y-186114791D02*
X95432018Y-186114791D01*
X95432018Y-186114791D02*
X95336780Y-186067172D01*
X95336780Y-186067172D02*
X95289161Y-185971933D01*
X95289161Y-185971933D02*
X95289161Y-185590981D01*
X95289161Y-185590981D02*
X95336780Y-185495743D01*
X95336780Y-185495743D02*
X95432018Y-185448124D01*
X95432018Y-185448124D02*
X95622494Y-185448124D01*
X95622494Y-185448124D02*
X95717732Y-185495743D01*
X95717732Y-185495743D02*
X95765351Y-185590981D01*
X95765351Y-185590981D02*
X95765351Y-185686219D01*
X95765351Y-185686219D02*
X95289161Y-185781457D01*
X96193923Y-185448124D02*
X96193923Y-186114791D01*
X96193923Y-185543362D02*
X96241542Y-185495743D01*
X96241542Y-185495743D02*
X96336780Y-185448124D01*
X96336780Y-185448124D02*
X96479637Y-185448124D01*
X96479637Y-185448124D02*
X96574875Y-185495743D01*
X96574875Y-185495743D02*
X96622494Y-185590981D01*
X96622494Y-185590981D02*
X96622494Y-186114791D01*
X97098685Y-186114791D02*
X97098685Y-185114791D01*
X97098685Y-185495743D02*
X97193923Y-185448124D01*
X97193923Y-185448124D02*
X97384399Y-185448124D01*
X97384399Y-185448124D02*
X97479637Y-185495743D01*
X97479637Y-185495743D02*
X97527256Y-185543362D01*
X97527256Y-185543362D02*
X97574875Y-185638600D01*
X97574875Y-185638600D02*
X97574875Y-185924314D01*
X97574875Y-185924314D02*
X97527256Y-186019552D01*
X97527256Y-186019552D02*
X97479637Y-186067172D01*
X97479637Y-186067172D02*
X97384399Y-186114791D01*
X97384399Y-186114791D02*
X97193923Y-186114791D01*
X97193923Y-186114791D02*
X97098685Y-186067172D01*
X98384399Y-186067172D02*
X98289161Y-186114791D01*
X98289161Y-186114791D02*
X98098685Y-186114791D01*
X98098685Y-186114791D02*
X98003447Y-186067172D01*
X98003447Y-186067172D02*
X97955828Y-185971933D01*
X97955828Y-185971933D02*
X97955828Y-185590981D01*
X97955828Y-185590981D02*
X98003447Y-185495743D01*
X98003447Y-185495743D02*
X98098685Y-185448124D01*
X98098685Y-185448124D02*
X98289161Y-185448124D01*
X98289161Y-185448124D02*
X98384399Y-185495743D01*
X98384399Y-185495743D02*
X98432018Y-185590981D01*
X98432018Y-185590981D02*
X98432018Y-185686219D01*
X98432018Y-185686219D02*
X97955828Y-185781457D01*
X98860590Y-186114791D02*
X98860590Y-185448124D01*
X98860590Y-185638600D02*
X98908209Y-185543362D01*
X98908209Y-185543362D02*
X98955828Y-185495743D01*
X98955828Y-185495743D02*
X99051066Y-185448124D01*
X99051066Y-185448124D02*
X99146304Y-185448124D01*
X99908209Y-185448124D02*
X99908209Y-186257648D01*
X99908209Y-186257648D02*
X99860590Y-186352886D01*
X99860590Y-186352886D02*
X99812971Y-186400505D01*
X99812971Y-186400505D02*
X99717733Y-186448124D01*
X99717733Y-186448124D02*
X99574876Y-186448124D01*
X99574876Y-186448124D02*
X99479638Y-186400505D01*
X99908209Y-186067172D02*
X99812971Y-186114791D01*
X99812971Y-186114791D02*
X99622495Y-186114791D01*
X99622495Y-186114791D02*
X99527257Y-186067172D01*
X99527257Y-186067172D02*
X99479638Y-186019552D01*
X99479638Y-186019552D02*
X99432019Y-185924314D01*
X99432019Y-185924314D02*
X99432019Y-185638600D01*
X99432019Y-185638600D02*
X99479638Y-185543362D01*
X99479638Y-185543362D02*
X99527257Y-185495743D01*
X99527257Y-185495743D02*
X99622495Y-185448124D01*
X99622495Y-185448124D02*
X99812971Y-185448124D01*
X99812971Y-185448124D02*
X99908209Y-185495743D01*
D11*
%TO.C,LOGO1*%
X106001231Y-184855000D02*
X106001231Y-187356231D01*
X103500000Y-187356231D01*
X100998770Y-187356231D01*
X100998770Y-185868088D01*
X100998770Y-185517827D01*
X101761645Y-185517827D01*
X101761645Y-185692957D01*
X101761645Y-185868088D01*
X103478115Y-185864917D01*
X105194584Y-185861746D01*
X105197905Y-185517827D01*
X105201225Y-185173907D01*
X105028910Y-185345867D01*
X104856594Y-185517827D01*
X103309120Y-185517827D01*
X101761645Y-185517827D01*
X100998770Y-185517827D01*
X100998770Y-185005074D01*
X102105899Y-185005074D01*
X102862522Y-185005074D01*
X103619144Y-185005074D01*
X103793895Y-184829988D01*
X103968646Y-184654902D01*
X103212024Y-184654902D01*
X102455401Y-184654902D01*
X102280650Y-184829988D01*
X102105899Y-185005074D01*
X100998770Y-185005074D01*
X100998770Y-184855000D01*
X100998770Y-183967063D01*
X101761645Y-183967063D01*
X101761645Y-184142150D01*
X103309455Y-184142150D01*
X104857266Y-184142150D01*
X105025751Y-184310983D01*
X105078342Y-184363517D01*
X105124575Y-184409386D01*
X105161679Y-184445867D01*
X105186885Y-184470237D01*
X105197422Y-184479774D01*
X105197537Y-184479816D01*
X105198399Y-184467842D01*
X105199177Y-184434048D01*
X105199840Y-184381628D01*
X105200359Y-184313775D01*
X105200701Y-184233680D01*
X105200836Y-184144537D01*
X105200837Y-184135897D01*
X105200837Y-183791977D01*
X103481241Y-183791977D01*
X101761645Y-183791977D01*
X101761645Y-183967063D01*
X100998770Y-183967063D01*
X100998770Y-183791977D01*
X100998770Y-182353770D01*
X103500000Y-182353770D01*
X106001231Y-182353770D01*
X106001231Y-184855000D01*
G36*
X106001231Y-184855000D02*
G01*
X106001231Y-187356231D01*
X103500000Y-187356231D01*
X100998770Y-187356231D01*
X100998770Y-185868088D01*
X100998770Y-185517827D01*
X101761645Y-185517827D01*
X101761645Y-185692957D01*
X101761645Y-185868088D01*
X103478115Y-185864917D01*
X105194584Y-185861746D01*
X105197905Y-185517827D01*
X105201225Y-185173907D01*
X105028910Y-185345867D01*
X104856594Y-185517827D01*
X103309120Y-185517827D01*
X101761645Y-185517827D01*
X100998770Y-185517827D01*
X100998770Y-185005074D01*
X102105899Y-185005074D01*
X102862522Y-185005074D01*
X103619144Y-185005074D01*
X103793895Y-184829988D01*
X103968646Y-184654902D01*
X103212024Y-184654902D01*
X102455401Y-184654902D01*
X102280650Y-184829988D01*
X102105899Y-185005074D01*
X100998770Y-185005074D01*
X100998770Y-184855000D01*
X100998770Y-183967063D01*
X101761645Y-183967063D01*
X101761645Y-184142150D01*
X103309455Y-184142150D01*
X104857266Y-184142150D01*
X105025751Y-184310983D01*
X105078342Y-184363517D01*
X105124575Y-184409386D01*
X105161679Y-184445867D01*
X105186885Y-184470237D01*
X105197422Y-184479774D01*
X105197537Y-184479816D01*
X105198399Y-184467842D01*
X105199177Y-184434048D01*
X105199840Y-184381628D01*
X105200359Y-184313775D01*
X105200701Y-184233680D01*
X105200836Y-184144537D01*
X105200837Y-184135897D01*
X105200837Y-183791977D01*
X103481241Y-183791977D01*
X101761645Y-183791977D01*
X101761645Y-183967063D01*
X100998770Y-183967063D01*
X100998770Y-183791977D01*
X100998770Y-182353770D01*
X103500000Y-182353770D01*
X106001231Y-182353770D01*
X106001231Y-184855000D01*
G37*
D12*
%TO.C,RP2040-Zero*%
X30660000Y-99050000D02*
X30660000Y-122550000D01*
X30660000Y-122550000D02*
X48660000Y-122550000D01*
X48660000Y-99050000D02*
X30660000Y-99050000D01*
X48660000Y-122550000D02*
X48660000Y-99050000D01*
%TD*%
M02*
