%TF.GenerationSoftware,KiCad,Pcbnew,9.0.6-1.fc43*%
%TF.CreationDate,2026-01-18T15:00:59+01:00*%
%TF.ProjectId,leftPCB,6c656674-5043-4422-9e6b-696361645f70,v1.0.0*%
%TF.SameCoordinates,Original*%
%TF.FileFunction,Soldermask,Bot*%
%TF.FilePolarity,Negative*%
%FSLAX46Y46*%
G04 Gerber Fmt 4.6, Leading zero omitted, Abs format (unit mm)*
G04 Created by KiCad (PCBNEW 9.0.6-1.fc43) date 2026-01-18 15:00:59*
%MOMM*%
%LPD*%
G01*
G04 APERTURE LIST*
G04 Aperture macros list*
%AMRoundRect*
0 Rectangle with rounded corners*
0 $1 Rounding radius*
0 $2 $3 $4 $5 $6 $7 $8 $9 X,Y pos of 4 corners*
0 Add a 4 corners polygon primitive as box body*
4,1,4,$2,$3,$4,$5,$6,$7,$8,$9,$2,$3,0*
0 Add four circle primitives for the rounded corners*
1,1,$1+$1,$2,$3*
1,1,$1+$1,$4,$5*
1,1,$1+$1,$6,$7*
1,1,$1+$1,$8,$9*
0 Add four rect primitives between the rounded corners*
20,1,$1+$1,$2,$3,$4,$5,0*
20,1,$1+$1,$4,$5,$6,$7,0*
20,1,$1+$1,$6,$7,$8,$9,0*
20,1,$1+$1,$8,$9,$2,$3,0*%
G04 Aperture macros list end*
%ADD10C,2.300000*%
%ADD11C,1.600000*%
%ADD12O,2.300000X1.700000*%
%ADD13RoundRect,0.425000X-0.925000X-0.425000X0.925000X-0.425000X0.925000X0.425000X-0.925000X0.425000X0*%
%ADD14RoundRect,0.425050X-0.924950X-0.425050X0.924950X-0.425050X0.924950X0.425050X-0.924950X0.425050X0*%
%ADD15RoundRect,0.425000X-0.425000X-0.925000X0.425000X-0.925000X0.425000X0.925000X-0.425000X0.925000X0*%
%ADD16RoundRect,0.418700X-0.418700X-0.931300X0.418700X-0.931300X0.418700X0.931300X-0.418700X0.931300X0*%
%ADD17C,3.100000*%
%ADD18C,5.100000*%
%ADD19RoundRect,0.050000X-1.300000X-1.300000X1.300000X-1.300000X1.300000X1.300000X-1.300000X1.300000X0*%
%ADD20RoundRect,0.050000X0.889000X0.889000X-0.889000X0.889000X-0.889000X-0.889000X0.889000X-0.889000X0*%
%ADD21RoundRect,0.050000X0.450000X0.600000X-0.450000X0.600000X-0.450000X-0.600000X0.450000X-0.600000X0*%
%ADD22C,2.005000*%
%ADD23C,2.000000*%
%ADD24C,4.200000*%
%ADD25RoundRect,0.050000X1.275000X1.250000X-1.275000X1.250000X-1.275000X-1.250000X1.275000X-1.250000X0*%
%ADD26RoundRect,0.050000X1.029867X0.721121X-0.721121X1.029867X-1.029867X-0.721121X0.721121X-1.029867X0*%
%ADD27RoundRect,0.050000X0.547352X0.512743X-0.338975X0.669026X-0.547352X-0.512743X0.338975X-0.669026X0*%
%ADD28RoundRect,0.050000X-1.666227X-0.776974X0.776974X-1.666227X1.666227X0.776974X-0.776974X1.666227X0*%
%ADD29RoundRect,0.050000X1.625633X0.738540X-0.770583X1.610691X-1.625633X-0.738540X0.770583X-1.610691X0*%
%ADD30RoundRect,0.050000X1.139443X0.531331X-0.531331X1.139443X-1.139443X-0.531331X0.531331X-1.139443X0*%
%ADD31RoundRect,0.050000X0.628074X0.409907X-0.217650X0.717725X-0.628074X-0.409907X0.217650X-0.717725X0*%
%ADD32RoundRect,0.050000X1.472690X1.009608X-1.038570X1.452411X-1.472690X-1.009608X1.038570X-1.452411X0*%
%ADD33RoundRect,0.050000X1.555079X0.877413X-0.908032X1.537402X-1.555079X-0.877413X0.908032X-1.537402X0*%
%ADD34RoundRect,0.050000X1.088798X0.628618X-0.628618X1.088798X-1.088798X-0.628618X0.628618X-1.088798X0*%
%ADD35RoundRect,0.050000X0.589958X0.463087X-0.279375X0.696024X-0.589958X-0.463087X0.279375X-0.696024X0*%
%ADD36RoundRect,0.050000X-1.505993X-1.054507X1.054507X-1.505993X1.505993X1.054507X-1.054507X1.505993X0*%
%ADD37RoundRect,0.050000X-1.592168X-0.919239X0.919239X-1.592168X1.592168X0.919239X-0.919239X1.592168X0*%
G04 APERTURE END LIST*
D10*
%TO.C,MH2*%
X142500000Y-169070000D03*
%TD*%
%TO.C,MH5*%
X32500000Y-142500000D03*
%TD*%
D11*
%TO.C,TRRS1*%
X149150000Y-107570000D03*
X142150000Y-107570000D03*
D12*
X147550000Y-109870000D03*
X144550000Y-109870000D03*
X140550000Y-109870000D03*
X139450000Y-105270000D03*
%TD*%
D10*
%TO.C,MH4*%
X32500000Y-180500000D03*
%TD*%
%TO.C,MH3*%
X142500000Y-131070000D03*
%TD*%
%TO.C,MH1*%
X139295233Y-213172751D03*
%TD*%
D13*
%TO.C,RP2040-Zero*%
X47880000Y-100640000D03*
X47880000Y-103180000D03*
X47880000Y-105720000D03*
X47880000Y-108260000D03*
X47880000Y-110800000D03*
D14*
X47880000Y-113340000D03*
X47880000Y-115880000D03*
X47880000Y-118420000D03*
X47880000Y-120960000D03*
D15*
X44740000Y-121770000D03*
D16*
X42200000Y-121770000D03*
X39660000Y-121770000D03*
X37120000Y-121770000D03*
X34580000Y-121770000D03*
D14*
X31440000Y-120960000D03*
X31440000Y-118420000D03*
X31440000Y-115880000D03*
X31440000Y-113340000D03*
X31440000Y-100640000D03*
X31440000Y-103180000D03*
X31440000Y-105720000D03*
X31440000Y-110800000D03*
X31440000Y-108260000D03*
%TD*%
D17*
%TO.C,S13*%
X97000000Y-166905000D03*
D18*
X97000000Y-172855000D03*
D17*
X102000000Y-169105000D03*
D19*
X93725000Y-166905000D03*
X105275000Y-169105000D03*
%TD*%
D17*
%TO.C,S5*%
X59000000Y-172620000D03*
D18*
X59000000Y-178570000D03*
D17*
X64000000Y-174820000D03*
D19*
X55725000Y-172620000D03*
X67275000Y-174820000D03*
%TD*%
D20*
%TO.C,D9*%
X81810000Y-184415000D03*
D21*
X79650000Y-184415000D03*
X76350000Y-184415000D03*
D22*
X74190000Y-184415000D03*
%TD*%
D23*
%TO.C,S29*%
X45080000Y-171000000D03*
D17*
X43810000Y-173540000D03*
D24*
X40000000Y-171000000D03*
D17*
X37460000Y-176080000D03*
D23*
X34920000Y-171000000D03*
D25*
X47085000Y-173540000D03*
X34158000Y-176080000D03*
%TD*%
D20*
%TO.C,D8*%
X62810000Y-129320000D03*
D21*
X60650000Y-129320000D03*
X57350000Y-129320000D03*
D22*
X55190000Y-129320000D03*
%TD*%
D20*
%TO.C,D1*%
X43810000Y-197750000D03*
D21*
X41650000Y-197750000D03*
X38350000Y-197750000D03*
D22*
X36190000Y-197750000D03*
%TD*%
D17*
%TO.C,S23*%
X135000000Y-134620000D03*
D18*
X135000000Y-140570000D03*
D17*
X140000000Y-136820000D03*
D19*
X131725000Y-134620000D03*
X143275000Y-136820000D03*
%TD*%
D17*
%TO.C,S16*%
X97000000Y-109905000D03*
D18*
X97000000Y-115855000D03*
D17*
X102000000Y-112105000D03*
D19*
X93725000Y-109905000D03*
X105275000Y-112105000D03*
%TD*%
D17*
%TO.C,S14*%
X97000000Y-147905000D03*
D18*
X97000000Y-153855000D03*
D17*
X102000000Y-150105000D03*
D19*
X93725000Y-147905000D03*
X105275000Y-150105000D03*
%TD*%
D23*
%TO.C,S45*%
X121080000Y-157665000D03*
D17*
X119810000Y-160205000D03*
D24*
X116000000Y-157665000D03*
D17*
X113460000Y-162745000D03*
D23*
X110920000Y-157665000D03*
D25*
X123085000Y-160205000D03*
X110158000Y-162745000D03*
%TD*%
D17*
%TO.C,S24*%
X135000000Y-115620000D03*
D18*
X135000000Y-121570000D03*
D17*
X140000000Y-117820000D03*
D19*
X131725000Y-115620000D03*
X143275000Y-117820000D03*
%TD*%
D23*
%TO.C,S30*%
X45080000Y-152000000D03*
D17*
X43810000Y-154540000D03*
D24*
X40000000Y-152000000D03*
D17*
X37460000Y-157080000D03*
D23*
X34920000Y-152000000D03*
D25*
X47085000Y-154540000D03*
X34158000Y-157080000D03*
%TD*%
D23*
%TO.C,S47*%
X121080000Y-119665000D03*
D17*
X119810000Y-122205000D03*
D24*
X116000000Y-119665000D03*
D17*
X113460000Y-124745000D03*
D23*
X110920000Y-119665000D03*
D25*
X123085000Y-122205000D03*
X110158000Y-124745000D03*
%TD*%
D20*
%TO.C,D2*%
X43810000Y-178750000D03*
D21*
X41650000Y-178750000D03*
X38350000Y-178750000D03*
D22*
X36190000Y-178750000D03*
%TD*%
D20*
%TO.C,D11*%
X81810000Y-146415000D03*
D21*
X79650000Y-146415000D03*
X76350000Y-146415000D03*
D22*
X74190000Y-146415000D03*
%TD*%
D17*
%TO.C,S11*%
X78000000Y-132715000D03*
D18*
X78000000Y-138665000D03*
D17*
X83000000Y-134915000D03*
D19*
X74725000Y-132715000D03*
X86275000Y-134915000D03*
%TD*%
D20*
%TO.C,D10*%
X81810000Y-165415000D03*
D21*
X79650000Y-165415000D03*
X76350000Y-165415000D03*
D22*
X74190000Y-165415000D03*
%TD*%
D23*
%TO.C,S35*%
X64080000Y-121570000D03*
D17*
X62810000Y-124110000D03*
D24*
X59000000Y-121570000D03*
D17*
X56460000Y-126650000D03*
D23*
X53920000Y-121570000D03*
D25*
X66085000Y-124110000D03*
X53158000Y-126650000D03*
%TD*%
D20*
%TO.C,D5*%
X62810000Y-186320000D03*
D21*
X60650000Y-186320000D03*
X57350000Y-186320000D03*
D22*
X55190000Y-186320000D03*
%TD*%
D20*
%TO.C,D7*%
X62810000Y-148320000D03*
D21*
X60650000Y-148320000D03*
X57350000Y-148320000D03*
D22*
X55190000Y-148320000D03*
%TD*%
D17*
%TO.C,S18*%
X116000000Y-151715000D03*
D18*
X116000000Y-157665000D03*
D17*
X121000000Y-153915000D03*
D19*
X112725000Y-151715000D03*
X124275000Y-153915000D03*
%TD*%
D20*
%TO.C,D15*%
X100810000Y-142605000D03*
D21*
X98650000Y-142605000D03*
X95350000Y-142605000D03*
D22*
X93190000Y-142605000D03*
%TD*%
D23*
%TO.C,S43*%
X102080000Y-115855000D03*
D17*
X100810000Y-118395000D03*
D24*
X97000000Y-115855000D03*
D17*
X94460000Y-120935000D03*
D23*
X91920000Y-115855000D03*
D25*
X104085000Y-118395000D03*
X91158000Y-120935000D03*
%TD*%
D23*
%TO.C,S34*%
X64080000Y-140570000D03*
D17*
X62810000Y-143110000D03*
D24*
X59000000Y-140570000D03*
D17*
X56460000Y-145650000D03*
D23*
X53920000Y-140570000D03*
D25*
X66085000Y-143110000D03*
X53158000Y-145650000D03*
%TD*%
D17*
%TO.C,S22*%
X135000000Y-153620000D03*
D18*
X135000000Y-159570000D03*
D17*
X140000000Y-155820000D03*
D19*
X131725000Y-153620000D03*
X143275000Y-155820000D03*
%TD*%
D20*
%TO.C,D24*%
X138810000Y-129320000D03*
D21*
X136650000Y-129320000D03*
X133350000Y-129320000D03*
D22*
X131190000Y-129320000D03*
%TD*%
D23*
%TO.C,S42*%
X102080000Y-134855000D03*
D17*
X100810000Y-137395000D03*
D24*
X97000000Y-134855000D03*
D17*
X94460000Y-139935000D03*
D23*
X91920000Y-134855000D03*
D25*
X104085000Y-137395000D03*
X91158000Y-139935000D03*
%TD*%
D23*
%TO.C,S38*%
X83080000Y-138665000D03*
D17*
X81810000Y-141205000D03*
D24*
X78000000Y-138665000D03*
D17*
X75460000Y-143745000D03*
D23*
X72920000Y-138665000D03*
D25*
X85085000Y-141205000D03*
X72158000Y-143745000D03*
%TD*%
D20*
%TO.C,D6*%
X62810000Y-167320000D03*
D21*
X60650000Y-167320000D03*
X57350000Y-167320000D03*
D22*
X55190000Y-167320000D03*
%TD*%
D17*
%TO.C,S8*%
X59000000Y-115620000D03*
D18*
X59000000Y-121570000D03*
D17*
X64000000Y-117820000D03*
D19*
X55725000Y-115620000D03*
X67275000Y-117820000D03*
%TD*%
D23*
%TO.C,S48*%
X140080000Y-178570000D03*
D17*
X138810000Y-181110000D03*
D24*
X135000000Y-178570000D03*
D17*
X132460000Y-183650000D03*
D23*
X129920000Y-178570000D03*
D25*
X142085000Y-181110000D03*
X129158000Y-183650000D03*
%TD*%
D17*
%TO.C,S21*%
X135000000Y-172620000D03*
D18*
X135000000Y-178570000D03*
D17*
X140000000Y-174820000D03*
D19*
X131725000Y-172620000D03*
X143275000Y-174820000D03*
%TD*%
D17*
%TO.C,S10*%
X78000000Y-151715000D03*
D18*
X78000000Y-157665000D03*
D17*
X83000000Y-153915000D03*
D19*
X74725000Y-151715000D03*
X86275000Y-153915000D03*
%TD*%
D26*
%TO.C,D25*%
X108104638Y-205807565D03*
D27*
X105977452Y-205432484D03*
X102727586Y-204859446D03*
D22*
X100600400Y-204484365D03*
%TD*%
D17*
%TO.C,S4*%
X40000000Y-127050000D03*
D18*
X40000000Y-133000000D03*
D17*
X45000000Y-129250000D03*
D19*
X36725000Y-127050000D03*
X48275000Y-129250000D03*
%TD*%
D17*
%TO.C,S3*%
X40000000Y-146050000D03*
D18*
X40000000Y-152000000D03*
D17*
X45000000Y-148250000D03*
D19*
X36725000Y-146050000D03*
X48275000Y-148250000D03*
%TD*%
D23*
%TO.C,S50*%
X140080000Y-140570000D03*
D17*
X138810000Y-143110000D03*
D24*
X135000000Y-140570000D03*
D17*
X132460000Y-145650000D03*
D23*
X129920000Y-140570000D03*
D25*
X142085000Y-143110000D03*
X129158000Y-145650000D03*
%TD*%
D23*
%TO.C,S46*%
X121080000Y-138665000D03*
D17*
X119810000Y-141205000D03*
D24*
X116000000Y-138665000D03*
D17*
X113460000Y-143745000D03*
D23*
X110920000Y-138665000D03*
D25*
X123085000Y-141205000D03*
X110158000Y-143745000D03*
%TD*%
D17*
%TO.C,S6*%
X59000000Y-153620000D03*
D18*
X59000000Y-159570000D03*
D17*
X64000000Y-155820000D03*
D19*
X55725000Y-153620000D03*
X67275000Y-155820000D03*
%TD*%
D20*
%TO.C,D20*%
X119810000Y-127415000D03*
D21*
X117650000Y-127415000D03*
X114350000Y-127415000D03*
D22*
X112190000Y-127415000D03*
%TD*%
D23*
%TO.C,S32*%
X64080000Y-178570000D03*
D17*
X62810000Y-181110000D03*
D24*
X59000000Y-178570000D03*
D17*
X56460000Y-183650000D03*
D23*
X53920000Y-178570000D03*
D25*
X66085000Y-181110000D03*
X53158000Y-183650000D03*
%TD*%
D20*
%TO.C,D23*%
X138810000Y-148320000D03*
D21*
X136650000Y-148320000D03*
X133350000Y-148320000D03*
D22*
X131190000Y-148320000D03*
%TD*%
D23*
%TO.C,S40*%
X102080000Y-172855000D03*
D17*
X100810000Y-175395000D03*
D24*
X97000000Y-172855000D03*
D17*
X94460000Y-177935000D03*
D23*
X91920000Y-172855000D03*
D25*
X104085000Y-175395000D03*
X91158000Y-177935000D03*
%TD*%
D17*
%TO.C,S27*%
X155171716Y-204638127D03*
D18*
X153136696Y-210229298D03*
D17*
X159117735Y-208415551D03*
D28*
X152094223Y-203518011D03*
X162195228Y-209535667D03*
%TD*%
D23*
%TO.C,S41*%
X102080000Y-153855000D03*
D17*
X100810000Y-156395000D03*
D24*
X97000000Y-153855000D03*
D17*
X94460000Y-158935000D03*
D23*
X91920000Y-153855000D03*
D25*
X104085000Y-156395000D03*
X91158000Y-158935000D03*
%TD*%
D20*
%TO.C,D3*%
X43810000Y-159750000D03*
D21*
X41650000Y-159750000D03*
X38350000Y-159750000D03*
D22*
X36190000Y-159750000D03*
%TD*%
D17*
%TO.C,S1*%
X40000000Y-184050000D03*
D18*
X40000000Y-190000000D03*
D17*
X45000000Y-186250000D03*
D19*
X36725000Y-184050000D03*
X48275000Y-186250000D03*
%TD*%
D23*
%TO.C,S54*%
X157910335Y-211966760D03*
D17*
X155848194Y-213919214D03*
D24*
X153136696Y-210229298D03*
D17*
X149012413Y-214134205D03*
D23*
X148363057Y-208491836D03*
D29*
X158925687Y-215039330D03*
X145909549Y-213004855D03*
%TD*%
D17*
%TO.C,S17*%
X116000000Y-170715000D03*
D18*
X116000000Y-176665000D03*
D17*
X121000000Y-172915000D03*
D19*
X112725000Y-170715000D03*
X124275000Y-172915000D03*
%TD*%
D23*
%TO.C,S36*%
X83080000Y-176665000D03*
D17*
X81810000Y-179205000D03*
D24*
X78000000Y-176665000D03*
D17*
X75460000Y-181745000D03*
D23*
X72920000Y-176665000D03*
D25*
X85085000Y-179205000D03*
X72158000Y-181745000D03*
%TD*%
D17*
%TO.C,S2*%
X40000000Y-165050000D03*
D18*
X40000000Y-171000000D03*
D17*
X45000000Y-167250000D03*
D19*
X36725000Y-165050000D03*
X48275000Y-167250000D03*
%TD*%
D23*
%TO.C,S39*%
X83080000Y-119665000D03*
D17*
X81810000Y-122205000D03*
D24*
X78000000Y-119665000D03*
D17*
X75460000Y-124745000D03*
D23*
X72920000Y-119665000D03*
D25*
X85085000Y-122205000D03*
X72158000Y-124745000D03*
%TD*%
D17*
%TO.C,S9*%
X78000000Y-170715000D03*
D18*
X78000000Y-176665000D03*
D17*
X83000000Y-172915000D03*
D19*
X74725000Y-170715000D03*
X86275000Y-172915000D03*
%TD*%
D30*
%TO.C,D27*%
X154066269Y-218815013D03*
D31*
X152036533Y-218076249D03*
X148935547Y-216947583D03*
D22*
X146905811Y-216208819D03*
%TD*%
D23*
%TO.C,S28*%
X45080000Y-190000000D03*
D17*
X43810000Y-192540000D03*
D24*
X40000000Y-190000000D03*
D17*
X37460000Y-195080000D03*
D23*
X34920000Y-190000000D03*
D25*
X47085000Y-192540000D03*
X34158000Y-195080000D03*
%TD*%
D17*
%TO.C,S12*%
X78000000Y-113715000D03*
D18*
X78000000Y-119665000D03*
D17*
X83000000Y-115915000D03*
D19*
X74725000Y-113715000D03*
X86275000Y-115915000D03*
%TD*%
D17*
%TO.C,S15*%
X97000000Y-128905000D03*
D18*
X97000000Y-134855000D03*
D17*
X102000000Y-131105000D03*
D19*
X93725000Y-128905000D03*
X105275000Y-131105000D03*
%TD*%
D23*
%TO.C,S33*%
X64080000Y-159570000D03*
D17*
X62810000Y-162110000D03*
D24*
X59000000Y-159570000D03*
D17*
X56460000Y-164650000D03*
D23*
X53920000Y-159570000D03*
D25*
X66085000Y-162110000D03*
X53158000Y-164650000D03*
%TD*%
D17*
%TO.C,S19*%
X116000000Y-132715000D03*
D18*
X116000000Y-138665000D03*
D17*
X121000000Y-134915000D03*
D19*
X112725000Y-132715000D03*
X124275000Y-134915000D03*
%TD*%
D20*
%TO.C,D19*%
X119810000Y-146415000D03*
D21*
X117650000Y-146415000D03*
X114350000Y-146415000D03*
D22*
X112190000Y-146415000D03*
%TD*%
D17*
%TO.C,S7*%
X59000000Y-134620000D03*
D18*
X59000000Y-140570000D03*
D17*
X64000000Y-136820000D03*
D19*
X55725000Y-134620000D03*
X67275000Y-136820000D03*
%TD*%
D23*
%TO.C,S44*%
X121080000Y-176665000D03*
D17*
X119810000Y-179205000D03*
D24*
X116000000Y-176665000D03*
D17*
X113460000Y-181745000D03*
D23*
X110920000Y-176665000D03*
D25*
X123085000Y-179205000D03*
X110158000Y-181745000D03*
%TD*%
D23*
%TO.C,S52*%
X110701116Y-198395838D03*
D17*
X109009344Y-200676716D03*
D24*
X105698293Y-197513705D03*
D17*
X102314749Y-202075462D03*
D23*
X100695470Y-196631572D03*
D32*
X112234590Y-201245414D03*
X99062913Y-201502076D03*
%TD*%
D20*
%TO.C,D16*%
X100810000Y-123605000D03*
D21*
X98650000Y-123605000D03*
X95350000Y-123605000D03*
D22*
X93190000Y-123605000D03*
%TD*%
D20*
%TO.C,D21*%
X138810000Y-186320000D03*
D21*
X136650000Y-186320000D03*
X133350000Y-186320000D03*
D22*
X131190000Y-186320000D03*
%TD*%
D23*
%TO.C,S37*%
X83080000Y-157665000D03*
D17*
X81810000Y-160205000D03*
D24*
X78000000Y-157665000D03*
D17*
X75460000Y-162745000D03*
D23*
X72920000Y-157665000D03*
D25*
X85085000Y-160205000D03*
X72158000Y-162745000D03*
%TD*%
D20*
%TO.C,D22*%
X138810000Y-167320000D03*
D21*
X136650000Y-167320000D03*
X133350000Y-167320000D03*
D22*
X131190000Y-167320000D03*
%TD*%
D23*
%TO.C,S31*%
X45080000Y-133000000D03*
D17*
X43810000Y-135540000D03*
D24*
X40000000Y-133000000D03*
D17*
X37460000Y-138080000D03*
D23*
X34920000Y-133000000D03*
D25*
X47085000Y-135540000D03*
X34158000Y-138080000D03*
%TD*%
D23*
%TO.C,S53*%
X134548167Y-204351550D03*
D17*
X132664041Y-206476301D03*
D24*
X129641264Y-203036749D03*
D17*
X125873012Y-207286252D03*
D23*
X124734361Y-201721948D03*
D33*
X135827448Y-207323934D03*
X122683525Y-206431631D03*
%TD*%
D34*
%TO.C,D26*%
X131315593Y-211508776D03*
D35*
X129229194Y-210949724D03*
X126041638Y-210095624D03*
D22*
X123955239Y-209536572D03*
%TD*%
D20*
%TO.C,D17*%
X119810000Y-184415000D03*
D21*
X117650000Y-184415000D03*
X114350000Y-184415000D03*
D22*
X112190000Y-184415000D03*
%TD*%
D20*
%TO.C,D4*%
X43810000Y-140750000D03*
D21*
X41650000Y-140750000D03*
X38350000Y-140750000D03*
D22*
X36190000Y-140750000D03*
%TD*%
D17*
%TO.C,S20*%
X116000000Y-113715000D03*
D18*
X116000000Y-119665000D03*
D17*
X121000000Y-115915000D03*
D19*
X112725000Y-113715000D03*
X124275000Y-115915000D03*
%TD*%
D20*
%TO.C,D18*%
X119810000Y-165415000D03*
D21*
X117650000Y-165415000D03*
X114350000Y-165415000D03*
D22*
X112190000Y-165415000D03*
%TD*%
D20*
%TO.C,D13*%
X100810000Y-180605000D03*
D21*
X98650000Y-180605000D03*
X95350000Y-180605000D03*
D22*
X93190000Y-180605000D03*
%TD*%
D23*
%TO.C,S51*%
X140080000Y-121570000D03*
D17*
X138810000Y-124110000D03*
D24*
X135000000Y-121570000D03*
D17*
X132460000Y-126650000D03*
D23*
X129920000Y-121570000D03*
D25*
X142085000Y-124110000D03*
X129158000Y-126650000D03*
%TD*%
D17*
%TO.C,S25*%
X106731500Y-191654099D03*
D18*
X105698293Y-197513705D03*
D17*
X111273512Y-194688917D03*
D36*
X103506254Y-191085401D03*
X114498758Y-195257615D03*
%TD*%
D23*
%TO.C,S49*%
X140080000Y-159570000D03*
D17*
X138810000Y-162110000D03*
D24*
X135000000Y-159570000D03*
D17*
X132460000Y-164650000D03*
D23*
X129920000Y-159570000D03*
D25*
X142085000Y-162110000D03*
X129158000Y-164650000D03*
%TD*%
D17*
%TO.C,S26*%
X131181237Y-197289490D03*
D18*
X129641264Y-203036749D03*
D17*
X135441465Y-200708622D03*
D37*
X128017830Y-196441858D03*
X138604872Y-201556255D03*
%TD*%
D20*
%TO.C,D12*%
X81810000Y-127415000D03*
D21*
X79650000Y-127415000D03*
X76350000Y-127415000D03*
D22*
X74190000Y-127415000D03*
%TD*%
D20*
%TO.C,D14*%
X100810000Y-161605000D03*
D21*
X98650000Y-161605000D03*
X95350000Y-161605000D03*
D22*
X93190000Y-161605000D03*
%TD*%
M02*
