M48
; DRILL file {KiCad 9.0.6-1.fc43} date 2026-01-18T15:00:50+0100
; FORMAT={-:-/ absolute / metric / decimal}
; #@! TF.CreationDate,2026-01-18T15:00:50+01:00
; #@! TF.GenerationSoftware,Kicad,Pcbnew,9.0.6-1.fc43
; #@! TF.FileFunction,Plated,1,2,PTH
FMAT,2
METRIC
; #@! TA.AperFunction,Plated,PTH,ViaDrill
T1C0.300
; #@! TA.AperFunction,Plated,PTH,ComponentDrill
T2C0.900
; #@! TA.AperFunction,Plated,PTH,ComponentDrill
T3C0.991
; #@! TA.AperFunction,Plated,PTH,ComponentDrill
T4C1.092
%
G90
G05
T1
X28.0Y-125.0
X28.0Y-126.5
X28.0Y-128.0
X28.0Y-129.5
X28.0Y-131.0
X50.0Y-122.5
X51.0Y-122.5
T3
X36.19Y-140.75
X36.19Y-159.75
X36.19Y-178.75
X36.19Y-197.75
X43.81Y-140.75
X43.81Y-159.75
X43.81Y-178.75
X43.81Y-197.75
X55.19Y-129.32
X55.19Y-148.32
X55.19Y-167.32
X55.19Y-186.32
X62.81Y-129.32
X62.81Y-148.32
X62.81Y-167.32
X62.81Y-186.32
X74.19Y-127.415
X74.19Y-146.415
X74.19Y-165.415
X74.19Y-184.415
X81.81Y-127.415
X81.81Y-146.415
X81.81Y-165.415
X81.81Y-184.415
X93.19Y-123.605
X93.19Y-142.605
X93.19Y-161.605
X93.19Y-180.605
X100.6Y-204.484
X100.81Y-123.605
X100.81Y-142.605
X100.81Y-161.605
X100.81Y-180.605
X108.105Y-205.808
X112.19Y-127.415
X112.19Y-146.415
X112.19Y-165.415
X112.19Y-184.415
X119.81Y-127.415
X119.81Y-146.415
X119.81Y-165.415
X119.81Y-184.415
X123.955Y-209.537
X131.19Y-129.32
X131.19Y-148.32
X131.19Y-167.32
X131.19Y-186.32
X131.316Y-211.509
X138.81Y-129.32
X138.81Y-148.32
X138.81Y-167.32
X138.81Y-186.32
X146.906Y-216.209
X154.066Y-218.815
T4
X32.04Y-100.64
X32.04Y-103.18
X32.04Y-105.72
X32.04Y-108.26
X32.04Y-110.8
X32.04Y-113.34
X32.04Y-115.88
X32.04Y-118.42
X32.04Y-120.96
X34.58Y-121.17
X37.12Y-121.17
X39.66Y-121.17
X42.2Y-121.17
X44.74Y-121.17
X47.28Y-100.64
X47.28Y-103.18
X47.28Y-105.72
X47.28Y-108.26
X47.28Y-110.8
X47.28Y-113.34
X47.28Y-115.88
X47.28Y-118.42
X47.28Y-120.96
T2
G00X139.75Y-105.27
M15
G01X139.15Y-105.27
M16
G05
G00X140.85Y-109.87
M15
G01X140.25Y-109.87
M16
G05
G00X144.85Y-109.87
M15
G01X144.25Y-109.87
M16
G05
G00X147.85Y-109.87
M15
G01X147.25Y-109.87
M16
G05
M30
