%TF.GenerationSoftware,KiCad,Pcbnew,9.0.6-1.fc43*%
%TF.CreationDate,2026-01-18T15:00:58+01:00*%
%TF.ProjectId,leftPCB,6c656674-5043-4422-9e6b-696361645f70,v1.0.0*%
%TF.SameCoordinates,Original*%
%TF.FileFunction,Legend,Bot*%
%TF.FilePolarity,Positive*%
%FSLAX46Y46*%
G04 Gerber Fmt 4.6, Leading zero omitted, Abs format (unit mm)*
G04 Created by KiCad (PCBNEW 9.0.6-1.fc43) date 2026-01-18 15:00:58*
%MOMM*%
%LPD*%
G01*
G04 APERTURE LIST*
%ADD10C,0.150000*%
%ADD11C,0.100000*%
%ADD12C,0.400000*%
G04 APERTURE END LIST*
D10*
%TO.C,S13*%
X95500000Y-164655000D02*
X95000000Y-165155000D01*
X95500000Y-169155000D02*
X95000000Y-168655000D01*
X97800000Y-169155000D02*
X95500000Y-169155000D01*
X98500000Y-164655000D02*
X95500000Y-164655000D01*
X99000000Y-165155000D02*
X98500000Y-164655000D01*
X99000000Y-165155000D02*
X99000000Y-166075000D01*
X99500000Y-171355000D02*
X99500000Y-170655000D01*
X99520000Y-166655000D02*
X104000000Y-166655000D01*
X104000000Y-166655000D02*
X104000000Y-167255000D01*
X104000000Y-170855000D02*
X104000000Y-171355000D01*
X104000000Y-171355000D02*
X99500000Y-171355000D01*
X97800000Y-169155000D02*
G75*
G02*
X99500000Y-170635000I110000J-1590000D01*
G01*
X99520000Y-166655000D02*
G75*
G02*
X99000000Y-166075000I30000J550000D01*
G01*
%TO.C,S5*%
X57500000Y-170370000D02*
X57000000Y-170870000D01*
X57500000Y-174870000D02*
X57000000Y-174370000D01*
X59800000Y-174870000D02*
X57500000Y-174870000D01*
X60500000Y-170370000D02*
X57500000Y-170370000D01*
X61000000Y-170870000D02*
X60500000Y-170370000D01*
X61000000Y-170870000D02*
X61000000Y-171790000D01*
X61500000Y-177070000D02*
X61500000Y-176370000D01*
X61520000Y-172370000D02*
X66000000Y-172370000D01*
X66000000Y-172370000D02*
X66000000Y-172970000D01*
X66000000Y-176570000D02*
X66000000Y-177070000D01*
X66000000Y-177070000D02*
X61500000Y-177070000D01*
X59800000Y-174870000D02*
G75*
G02*
X61500000Y-176350000I110000J-1590000D01*
G01*
X61520000Y-172370000D02*
G75*
G02*
X61000000Y-171790000I30000J550000D01*
G01*
D11*
%TO.C,D9*%
X77750000Y-184015000D02*
X78350000Y-184415000D01*
X77750000Y-184415000D02*
X77250000Y-184415000D01*
X77750000Y-184815000D02*
X77750000Y-184015000D01*
X78350000Y-184415000D02*
X77750000Y-184815000D01*
X78350000Y-184415000D02*
X78350000Y-183865000D01*
X78350000Y-184415000D02*
X78350000Y-184965000D01*
X78750000Y-184415000D02*
X78350000Y-184415000D01*
D12*
%TO.C,S29*%
X41550000Y-174050000D02*
X41750000Y-174600000D01*
X42150000Y-175150000D01*
X42450000Y-175400000D01*
X42950000Y-175700000D01*
X43550000Y-175850000D01*
X44050000Y-175850000D01*
X44500000Y-175750000D01*
X44750000Y-175650000D01*
X45200000Y-175400000D01*
X45350000Y-175500000D01*
X45500000Y-175600000D01*
X45500000Y-176000000D01*
X45400000Y-176400000D01*
X45250000Y-176650000D01*
X45100000Y-176850000D01*
X44950000Y-177000000D01*
X44750000Y-177150000D01*
X44600000Y-177250000D01*
X44400000Y-177350000D01*
X44100000Y-177450000D01*
X43800000Y-177500000D01*
X43600000Y-177500000D01*
X39250000Y-177500000D01*
X39550000Y-177050000D01*
X39700000Y-176650000D01*
X39750000Y-176400000D01*
X39750000Y-176050000D01*
X39750000Y-175750000D01*
X39650000Y-175350000D01*
X39500000Y-175000000D01*
X39350000Y-174750000D01*
X39050000Y-174400000D01*
X38800000Y-174200000D01*
X38350000Y-173950000D01*
X40400000Y-173950000D01*
X40900000Y-173900000D01*
X41250000Y-173800000D01*
X41500000Y-173600000D01*
X41550000Y-174050000D01*
G36*
X41550000Y-174050000D02*
G01*
X41750000Y-174600000D01*
X42150000Y-175150000D01*
X42450000Y-175400000D01*
X42950000Y-175700000D01*
X43550000Y-175850000D01*
X44050000Y-175850000D01*
X44500000Y-175750000D01*
X44750000Y-175650000D01*
X45200000Y-175400000D01*
X45350000Y-175500000D01*
X45500000Y-175600000D01*
X45500000Y-176000000D01*
X45400000Y-176400000D01*
X45250000Y-176650000D01*
X45100000Y-176850000D01*
X44950000Y-177000000D01*
X44750000Y-177150000D01*
X44600000Y-177250000D01*
X44400000Y-177350000D01*
X44100000Y-177450000D01*
X43800000Y-177500000D01*
X43600000Y-177500000D01*
X39250000Y-177500000D01*
X39550000Y-177050000D01*
X39700000Y-176650000D01*
X39750000Y-176400000D01*
X39750000Y-176050000D01*
X39750000Y-175750000D01*
X39650000Y-175350000D01*
X39500000Y-175000000D01*
X39350000Y-174750000D01*
X39050000Y-174400000D01*
X38800000Y-174200000D01*
X38350000Y-173950000D01*
X40400000Y-173950000D01*
X40900000Y-173900000D01*
X41250000Y-173800000D01*
X41500000Y-173600000D01*
X41550000Y-174050000D01*
G37*
D11*
%TO.C,D8*%
X58750000Y-128920000D02*
X59350000Y-129320000D01*
X58750000Y-129320000D02*
X58250000Y-129320000D01*
X58750000Y-129720000D02*
X58750000Y-128920000D01*
X59350000Y-129320000D02*
X58750000Y-129720000D01*
X59350000Y-129320000D02*
X59350000Y-128770000D01*
X59350000Y-129320000D02*
X59350000Y-129870000D01*
X59750000Y-129320000D02*
X59350000Y-129320000D01*
%TO.C,D1*%
X39750000Y-197350000D02*
X40350000Y-197750000D01*
X39750000Y-197750000D02*
X39250000Y-197750000D01*
X39750000Y-198150000D02*
X39750000Y-197350000D01*
X40350000Y-197750000D02*
X39750000Y-198150000D01*
X40350000Y-197750000D02*
X40350000Y-197200000D01*
X40350000Y-197750000D02*
X40350000Y-198300000D01*
X40750000Y-197750000D02*
X40350000Y-197750000D01*
D10*
%TO.C,S23*%
X133500000Y-132370000D02*
X133000000Y-132870000D01*
X133500000Y-136870000D02*
X133000000Y-136370000D01*
X135800000Y-136870000D02*
X133500000Y-136870000D01*
X136500000Y-132370000D02*
X133500000Y-132370000D01*
X137000000Y-132870000D02*
X136500000Y-132370000D01*
X137000000Y-132870000D02*
X137000000Y-133790000D01*
X137500000Y-139070000D02*
X137500000Y-138370000D01*
X137520000Y-134370000D02*
X142000000Y-134370000D01*
X142000000Y-134370000D02*
X142000000Y-134970000D01*
X142000000Y-138570000D02*
X142000000Y-139070000D01*
X142000000Y-139070000D02*
X137500000Y-139070000D01*
X135800000Y-136870000D02*
G75*
G02*
X137500000Y-138350000I110000J-1590000D01*
G01*
X137520000Y-134370000D02*
G75*
G02*
X137000000Y-133790000I30000J550000D01*
G01*
%TO.C,S16*%
X95500000Y-107655000D02*
X95000000Y-108155000D01*
X95500000Y-112155000D02*
X95000000Y-111655000D01*
X97800000Y-112155000D02*
X95500000Y-112155000D01*
X98500000Y-107655000D02*
X95500000Y-107655000D01*
X99000000Y-108155000D02*
X98500000Y-107655000D01*
X99000000Y-108155000D02*
X99000000Y-109075000D01*
X99500000Y-114355000D02*
X99500000Y-113655000D01*
X99520000Y-109655000D02*
X104000000Y-109655000D01*
X104000000Y-109655000D02*
X104000000Y-110255000D01*
X104000000Y-113855000D02*
X104000000Y-114355000D01*
X104000000Y-114355000D02*
X99500000Y-114355000D01*
X97800000Y-112155000D02*
G75*
G02*
X99500000Y-113635000I110000J-1590000D01*
G01*
X99520000Y-109655000D02*
G75*
G02*
X99000000Y-109075000I30000J550000D01*
G01*
%TO.C,S14*%
X95500000Y-145655000D02*
X95000000Y-146155000D01*
X95500000Y-150155000D02*
X95000000Y-149655000D01*
X97800000Y-150155000D02*
X95500000Y-150155000D01*
X98500000Y-145655000D02*
X95500000Y-145655000D01*
X99000000Y-146155000D02*
X98500000Y-145655000D01*
X99000000Y-146155000D02*
X99000000Y-147075000D01*
X99500000Y-152355000D02*
X99500000Y-151655000D01*
X99520000Y-147655000D02*
X104000000Y-147655000D01*
X104000000Y-147655000D02*
X104000000Y-148255000D01*
X104000000Y-151855000D02*
X104000000Y-152355000D01*
X104000000Y-152355000D02*
X99500000Y-152355000D01*
X97800000Y-150155000D02*
G75*
G02*
X99500000Y-151635000I110000J-1590000D01*
G01*
X99520000Y-147655000D02*
G75*
G02*
X99000000Y-147075000I30000J550000D01*
G01*
D12*
%TO.C,S45*%
X117550000Y-160715000D02*
X117750000Y-161265000D01*
X118150000Y-161815000D01*
X118450000Y-162065000D01*
X118950000Y-162365000D01*
X119550000Y-162515000D01*
X120050000Y-162515000D01*
X120500000Y-162415000D01*
X120750000Y-162315000D01*
X121200000Y-162065000D01*
X121350000Y-162165000D01*
X121500000Y-162265000D01*
X121500000Y-162665000D01*
X121400000Y-163065000D01*
X121250000Y-163315000D01*
X121100000Y-163515000D01*
X120950000Y-163665000D01*
X120750000Y-163815000D01*
X120600000Y-163915000D01*
X120400000Y-164015000D01*
X120100000Y-164115000D01*
X119800000Y-164165000D01*
X119600000Y-164165000D01*
X115250000Y-164165000D01*
X115550000Y-163715000D01*
X115700000Y-163315000D01*
X115750000Y-163065000D01*
X115750000Y-162715000D01*
X115750000Y-162415000D01*
X115650000Y-162015000D01*
X115500000Y-161665000D01*
X115350000Y-161415000D01*
X115050000Y-161065000D01*
X114800000Y-160865000D01*
X114350000Y-160615000D01*
X116400000Y-160615000D01*
X116900000Y-160565000D01*
X117250000Y-160465000D01*
X117500000Y-160265000D01*
X117550000Y-160715000D01*
G36*
X117550000Y-160715000D02*
G01*
X117750000Y-161265000D01*
X118150000Y-161815000D01*
X118450000Y-162065000D01*
X118950000Y-162365000D01*
X119550000Y-162515000D01*
X120050000Y-162515000D01*
X120500000Y-162415000D01*
X120750000Y-162315000D01*
X121200000Y-162065000D01*
X121350000Y-162165000D01*
X121500000Y-162265000D01*
X121500000Y-162665000D01*
X121400000Y-163065000D01*
X121250000Y-163315000D01*
X121100000Y-163515000D01*
X120950000Y-163665000D01*
X120750000Y-163815000D01*
X120600000Y-163915000D01*
X120400000Y-164015000D01*
X120100000Y-164115000D01*
X119800000Y-164165000D01*
X119600000Y-164165000D01*
X115250000Y-164165000D01*
X115550000Y-163715000D01*
X115700000Y-163315000D01*
X115750000Y-163065000D01*
X115750000Y-162715000D01*
X115750000Y-162415000D01*
X115650000Y-162015000D01*
X115500000Y-161665000D01*
X115350000Y-161415000D01*
X115050000Y-161065000D01*
X114800000Y-160865000D01*
X114350000Y-160615000D01*
X116400000Y-160615000D01*
X116900000Y-160565000D01*
X117250000Y-160465000D01*
X117500000Y-160265000D01*
X117550000Y-160715000D01*
G37*
D10*
%TO.C,S24*%
X133500000Y-113370000D02*
X133000000Y-113870000D01*
X133500000Y-117870000D02*
X133000000Y-117370000D01*
X135800000Y-117870000D02*
X133500000Y-117870000D01*
X136500000Y-113370000D02*
X133500000Y-113370000D01*
X137000000Y-113870000D02*
X136500000Y-113370000D01*
X137000000Y-113870000D02*
X137000000Y-114790000D01*
X137500000Y-120070000D02*
X137500000Y-119370000D01*
X137520000Y-115370000D02*
X142000000Y-115370000D01*
X142000000Y-115370000D02*
X142000000Y-115970000D01*
X142000000Y-119570000D02*
X142000000Y-120070000D01*
X142000000Y-120070000D02*
X137500000Y-120070000D01*
X135800000Y-117870000D02*
G75*
G02*
X137500000Y-119350000I110000J-1590000D01*
G01*
X137520000Y-115370000D02*
G75*
G02*
X137000000Y-114790000I30000J550000D01*
G01*
D12*
%TO.C,S30*%
X41550000Y-155050000D02*
X41750000Y-155600000D01*
X42150000Y-156150000D01*
X42450000Y-156400000D01*
X42950000Y-156700000D01*
X43550000Y-156850000D01*
X44050000Y-156850000D01*
X44500000Y-156750000D01*
X44750000Y-156650000D01*
X45200000Y-156400000D01*
X45350000Y-156500000D01*
X45500000Y-156600000D01*
X45500000Y-157000000D01*
X45400000Y-157400000D01*
X45250000Y-157650000D01*
X45100000Y-157850000D01*
X44950000Y-158000000D01*
X44750000Y-158150000D01*
X44600000Y-158250000D01*
X44400000Y-158350000D01*
X44100000Y-158450000D01*
X43800000Y-158500000D01*
X43600000Y-158500000D01*
X39250000Y-158500000D01*
X39550000Y-158050000D01*
X39700000Y-157650000D01*
X39750000Y-157400000D01*
X39750000Y-157050000D01*
X39750000Y-156750000D01*
X39650000Y-156350000D01*
X39500000Y-156000000D01*
X39350000Y-155750000D01*
X39050000Y-155400000D01*
X38800000Y-155200000D01*
X38350000Y-154950000D01*
X40400000Y-154950000D01*
X40900000Y-154900000D01*
X41250000Y-154800000D01*
X41500000Y-154600000D01*
X41550000Y-155050000D01*
G36*
X41550000Y-155050000D02*
G01*
X41750000Y-155600000D01*
X42150000Y-156150000D01*
X42450000Y-156400000D01*
X42950000Y-156700000D01*
X43550000Y-156850000D01*
X44050000Y-156850000D01*
X44500000Y-156750000D01*
X44750000Y-156650000D01*
X45200000Y-156400000D01*
X45350000Y-156500000D01*
X45500000Y-156600000D01*
X45500000Y-157000000D01*
X45400000Y-157400000D01*
X45250000Y-157650000D01*
X45100000Y-157850000D01*
X44950000Y-158000000D01*
X44750000Y-158150000D01*
X44600000Y-158250000D01*
X44400000Y-158350000D01*
X44100000Y-158450000D01*
X43800000Y-158500000D01*
X43600000Y-158500000D01*
X39250000Y-158500000D01*
X39550000Y-158050000D01*
X39700000Y-157650000D01*
X39750000Y-157400000D01*
X39750000Y-157050000D01*
X39750000Y-156750000D01*
X39650000Y-156350000D01*
X39500000Y-156000000D01*
X39350000Y-155750000D01*
X39050000Y-155400000D01*
X38800000Y-155200000D01*
X38350000Y-154950000D01*
X40400000Y-154950000D01*
X40900000Y-154900000D01*
X41250000Y-154800000D01*
X41500000Y-154600000D01*
X41550000Y-155050000D01*
G37*
%TO.C,S47*%
X117550000Y-122715000D02*
X117750000Y-123265000D01*
X118150000Y-123815000D01*
X118450000Y-124065000D01*
X118950000Y-124365000D01*
X119550000Y-124515000D01*
X120050000Y-124515000D01*
X120500000Y-124415000D01*
X120750000Y-124315000D01*
X121200000Y-124065000D01*
X121350000Y-124165000D01*
X121500000Y-124265000D01*
X121500000Y-124665000D01*
X121400000Y-125065000D01*
X121250000Y-125315000D01*
X121100000Y-125515000D01*
X120950000Y-125665000D01*
X120750000Y-125815000D01*
X120600000Y-125915000D01*
X120400000Y-126015000D01*
X120100000Y-126115000D01*
X119800000Y-126165000D01*
X119600000Y-126165000D01*
X115250000Y-126165000D01*
X115550000Y-125715000D01*
X115700000Y-125315000D01*
X115750000Y-125065000D01*
X115750000Y-124715000D01*
X115750000Y-124415000D01*
X115650000Y-124015000D01*
X115500000Y-123665000D01*
X115350000Y-123415000D01*
X115050000Y-123065000D01*
X114800000Y-122865000D01*
X114350000Y-122615000D01*
X116400000Y-122615000D01*
X116900000Y-122565000D01*
X117250000Y-122465000D01*
X117500000Y-122265000D01*
X117550000Y-122715000D01*
G36*
X117550000Y-122715000D02*
G01*
X117750000Y-123265000D01*
X118150000Y-123815000D01*
X118450000Y-124065000D01*
X118950000Y-124365000D01*
X119550000Y-124515000D01*
X120050000Y-124515000D01*
X120500000Y-124415000D01*
X120750000Y-124315000D01*
X121200000Y-124065000D01*
X121350000Y-124165000D01*
X121500000Y-124265000D01*
X121500000Y-124665000D01*
X121400000Y-125065000D01*
X121250000Y-125315000D01*
X121100000Y-125515000D01*
X120950000Y-125665000D01*
X120750000Y-125815000D01*
X120600000Y-125915000D01*
X120400000Y-126015000D01*
X120100000Y-126115000D01*
X119800000Y-126165000D01*
X119600000Y-126165000D01*
X115250000Y-126165000D01*
X115550000Y-125715000D01*
X115700000Y-125315000D01*
X115750000Y-125065000D01*
X115750000Y-124715000D01*
X115750000Y-124415000D01*
X115650000Y-124015000D01*
X115500000Y-123665000D01*
X115350000Y-123415000D01*
X115050000Y-123065000D01*
X114800000Y-122865000D01*
X114350000Y-122615000D01*
X116400000Y-122615000D01*
X116900000Y-122565000D01*
X117250000Y-122465000D01*
X117500000Y-122265000D01*
X117550000Y-122715000D01*
G37*
D11*
%TO.C,D2*%
X39750000Y-178350000D02*
X40350000Y-178750000D01*
X39750000Y-178750000D02*
X39250000Y-178750000D01*
X39750000Y-179150000D02*
X39750000Y-178350000D01*
X40350000Y-178750000D02*
X39750000Y-179150000D01*
X40350000Y-178750000D02*
X40350000Y-178200000D01*
X40350000Y-178750000D02*
X40350000Y-179300000D01*
X40750000Y-178750000D02*
X40350000Y-178750000D01*
%TO.C,D11*%
X77750000Y-146015000D02*
X78350000Y-146415000D01*
X77750000Y-146415000D02*
X77250000Y-146415000D01*
X77750000Y-146815000D02*
X77750000Y-146015000D01*
X78350000Y-146415000D02*
X77750000Y-146815000D01*
X78350000Y-146415000D02*
X78350000Y-145865000D01*
X78350000Y-146415000D02*
X78350000Y-146965000D01*
X78750000Y-146415000D02*
X78350000Y-146415000D01*
D10*
%TO.C,S11*%
X76500000Y-130465000D02*
X76000000Y-130965000D01*
X76500000Y-134965000D02*
X76000000Y-134465000D01*
X78800000Y-134965000D02*
X76500000Y-134965000D01*
X79500000Y-130465000D02*
X76500000Y-130465000D01*
X80000000Y-130965000D02*
X79500000Y-130465000D01*
X80000000Y-130965000D02*
X80000000Y-131885000D01*
X80500000Y-137165000D02*
X80500000Y-136465000D01*
X80520000Y-132465000D02*
X85000000Y-132465000D01*
X85000000Y-132465000D02*
X85000000Y-133065000D01*
X85000000Y-136665000D02*
X85000000Y-137165000D01*
X85000000Y-137165000D02*
X80500000Y-137165000D01*
X78800000Y-134965000D02*
G75*
G02*
X80500000Y-136445000I110000J-1590000D01*
G01*
X80520000Y-132465000D02*
G75*
G02*
X80000000Y-131885000I30000J550000D01*
G01*
D11*
%TO.C,D10*%
X77750000Y-165015000D02*
X78350000Y-165415000D01*
X77750000Y-165415000D02*
X77250000Y-165415000D01*
X77750000Y-165815000D02*
X77750000Y-165015000D01*
X78350000Y-165415000D02*
X77750000Y-165815000D01*
X78350000Y-165415000D02*
X78350000Y-164865000D01*
X78350000Y-165415000D02*
X78350000Y-165965000D01*
X78750000Y-165415000D02*
X78350000Y-165415000D01*
D12*
%TO.C,S35*%
X60550000Y-124620000D02*
X60750000Y-125170000D01*
X61150000Y-125720000D01*
X61450000Y-125970000D01*
X61950000Y-126270000D01*
X62550000Y-126420000D01*
X63050000Y-126420000D01*
X63500000Y-126320000D01*
X63750000Y-126220000D01*
X64200000Y-125970000D01*
X64350000Y-126070000D01*
X64500000Y-126170000D01*
X64500000Y-126570000D01*
X64400000Y-126970000D01*
X64250000Y-127220000D01*
X64100000Y-127420000D01*
X63950000Y-127570000D01*
X63750000Y-127720000D01*
X63600000Y-127820000D01*
X63400000Y-127920000D01*
X63100000Y-128020000D01*
X62800000Y-128070000D01*
X62600000Y-128070000D01*
X58250000Y-128070000D01*
X58550000Y-127620000D01*
X58700000Y-127220000D01*
X58750000Y-126970000D01*
X58750000Y-126620000D01*
X58750000Y-126320000D01*
X58650000Y-125920000D01*
X58500000Y-125570000D01*
X58350000Y-125320000D01*
X58050000Y-124970000D01*
X57800000Y-124770000D01*
X57350000Y-124520000D01*
X59400000Y-124520000D01*
X59900000Y-124470000D01*
X60250000Y-124370000D01*
X60500000Y-124170000D01*
X60550000Y-124620000D01*
G36*
X60550000Y-124620000D02*
G01*
X60750000Y-125170000D01*
X61150000Y-125720000D01*
X61450000Y-125970000D01*
X61950000Y-126270000D01*
X62550000Y-126420000D01*
X63050000Y-126420000D01*
X63500000Y-126320000D01*
X63750000Y-126220000D01*
X64200000Y-125970000D01*
X64350000Y-126070000D01*
X64500000Y-126170000D01*
X64500000Y-126570000D01*
X64400000Y-126970000D01*
X64250000Y-127220000D01*
X64100000Y-127420000D01*
X63950000Y-127570000D01*
X63750000Y-127720000D01*
X63600000Y-127820000D01*
X63400000Y-127920000D01*
X63100000Y-128020000D01*
X62800000Y-128070000D01*
X62600000Y-128070000D01*
X58250000Y-128070000D01*
X58550000Y-127620000D01*
X58700000Y-127220000D01*
X58750000Y-126970000D01*
X58750000Y-126620000D01*
X58750000Y-126320000D01*
X58650000Y-125920000D01*
X58500000Y-125570000D01*
X58350000Y-125320000D01*
X58050000Y-124970000D01*
X57800000Y-124770000D01*
X57350000Y-124520000D01*
X59400000Y-124520000D01*
X59900000Y-124470000D01*
X60250000Y-124370000D01*
X60500000Y-124170000D01*
X60550000Y-124620000D01*
G37*
D11*
%TO.C,D5*%
X58750000Y-185920000D02*
X59350000Y-186320000D01*
X58750000Y-186320000D02*
X58250000Y-186320000D01*
X58750000Y-186720000D02*
X58750000Y-185920000D01*
X59350000Y-186320000D02*
X58750000Y-186720000D01*
X59350000Y-186320000D02*
X59350000Y-185770000D01*
X59350000Y-186320000D02*
X59350000Y-186870000D01*
X59750000Y-186320000D02*
X59350000Y-186320000D01*
%TO.C,D7*%
X58750000Y-147920000D02*
X59350000Y-148320000D01*
X58750000Y-148320000D02*
X58250000Y-148320000D01*
X58750000Y-148720000D02*
X58750000Y-147920000D01*
X59350000Y-148320000D02*
X58750000Y-148720000D01*
X59350000Y-148320000D02*
X59350000Y-147770000D01*
X59350000Y-148320000D02*
X59350000Y-148870000D01*
X59750000Y-148320000D02*
X59350000Y-148320000D01*
D10*
%TO.C,S18*%
X114500000Y-149465000D02*
X114000000Y-149965000D01*
X114500000Y-153965000D02*
X114000000Y-153465000D01*
X116800000Y-153965000D02*
X114500000Y-153965000D01*
X117500000Y-149465000D02*
X114500000Y-149465000D01*
X118000000Y-149965000D02*
X117500000Y-149465000D01*
X118000000Y-149965000D02*
X118000000Y-150885000D01*
X118500000Y-156165000D02*
X118500000Y-155465000D01*
X118520000Y-151465000D02*
X123000000Y-151465000D01*
X123000000Y-151465000D02*
X123000000Y-152065000D01*
X123000000Y-155665000D02*
X123000000Y-156165000D01*
X123000000Y-156165000D02*
X118500000Y-156165000D01*
X116800000Y-153965000D02*
G75*
G02*
X118500000Y-155445000I110000J-1590000D01*
G01*
X118520000Y-151465000D02*
G75*
G02*
X118000000Y-150885000I30000J550000D01*
G01*
D11*
%TO.C,D15*%
X96750000Y-142205000D02*
X97350000Y-142605000D01*
X96750000Y-142605000D02*
X96250000Y-142605000D01*
X96750000Y-143005000D02*
X96750000Y-142205000D01*
X97350000Y-142605000D02*
X96750000Y-143005000D01*
X97350000Y-142605000D02*
X97350000Y-142055000D01*
X97350000Y-142605000D02*
X97350000Y-143155000D01*
X97750000Y-142605000D02*
X97350000Y-142605000D01*
D12*
%TO.C,S43*%
X98550000Y-118905000D02*
X98750000Y-119455000D01*
X99150000Y-120005000D01*
X99450000Y-120255000D01*
X99950000Y-120555000D01*
X100550000Y-120705000D01*
X101050000Y-120705000D01*
X101500000Y-120605000D01*
X101750000Y-120505000D01*
X102200000Y-120255000D01*
X102350000Y-120355000D01*
X102500000Y-120455000D01*
X102500000Y-120855000D01*
X102400000Y-121255000D01*
X102250000Y-121505000D01*
X102100000Y-121705000D01*
X101950000Y-121855000D01*
X101750000Y-122005000D01*
X101600000Y-122105000D01*
X101400000Y-122205000D01*
X101100000Y-122305000D01*
X100800000Y-122355000D01*
X100600000Y-122355000D01*
X96250000Y-122355000D01*
X96550000Y-121905000D01*
X96700000Y-121505000D01*
X96750000Y-121255000D01*
X96750000Y-120905000D01*
X96750000Y-120605000D01*
X96650000Y-120205000D01*
X96500000Y-119855000D01*
X96350000Y-119605000D01*
X96050000Y-119255000D01*
X95800000Y-119055000D01*
X95350000Y-118805000D01*
X97400000Y-118805000D01*
X97900000Y-118755000D01*
X98250000Y-118655000D01*
X98500000Y-118455000D01*
X98550000Y-118905000D01*
G36*
X98550000Y-118905000D02*
G01*
X98750000Y-119455000D01*
X99150000Y-120005000D01*
X99450000Y-120255000D01*
X99950000Y-120555000D01*
X100550000Y-120705000D01*
X101050000Y-120705000D01*
X101500000Y-120605000D01*
X101750000Y-120505000D01*
X102200000Y-120255000D01*
X102350000Y-120355000D01*
X102500000Y-120455000D01*
X102500000Y-120855000D01*
X102400000Y-121255000D01*
X102250000Y-121505000D01*
X102100000Y-121705000D01*
X101950000Y-121855000D01*
X101750000Y-122005000D01*
X101600000Y-122105000D01*
X101400000Y-122205000D01*
X101100000Y-122305000D01*
X100800000Y-122355000D01*
X100600000Y-122355000D01*
X96250000Y-122355000D01*
X96550000Y-121905000D01*
X96700000Y-121505000D01*
X96750000Y-121255000D01*
X96750000Y-120905000D01*
X96750000Y-120605000D01*
X96650000Y-120205000D01*
X96500000Y-119855000D01*
X96350000Y-119605000D01*
X96050000Y-119255000D01*
X95800000Y-119055000D01*
X95350000Y-118805000D01*
X97400000Y-118805000D01*
X97900000Y-118755000D01*
X98250000Y-118655000D01*
X98500000Y-118455000D01*
X98550000Y-118905000D01*
G37*
%TO.C,S34*%
X60550000Y-143620000D02*
X60750000Y-144170000D01*
X61150000Y-144720000D01*
X61450000Y-144970000D01*
X61950000Y-145270000D01*
X62550000Y-145420000D01*
X63050000Y-145420000D01*
X63500000Y-145320000D01*
X63750000Y-145220000D01*
X64200000Y-144970000D01*
X64350000Y-145070000D01*
X64500000Y-145170000D01*
X64500000Y-145570000D01*
X64400000Y-145970000D01*
X64250000Y-146220000D01*
X64100000Y-146420000D01*
X63950000Y-146570000D01*
X63750000Y-146720000D01*
X63600000Y-146820000D01*
X63400000Y-146920000D01*
X63100000Y-147020000D01*
X62800000Y-147070000D01*
X62600000Y-147070000D01*
X58250000Y-147070000D01*
X58550000Y-146620000D01*
X58700000Y-146220000D01*
X58750000Y-145970000D01*
X58750000Y-145620000D01*
X58750000Y-145320000D01*
X58650000Y-144920000D01*
X58500000Y-144570000D01*
X58350000Y-144320000D01*
X58050000Y-143970000D01*
X57800000Y-143770000D01*
X57350000Y-143520000D01*
X59400000Y-143520000D01*
X59900000Y-143470000D01*
X60250000Y-143370000D01*
X60500000Y-143170000D01*
X60550000Y-143620000D01*
G36*
X60550000Y-143620000D02*
G01*
X60750000Y-144170000D01*
X61150000Y-144720000D01*
X61450000Y-144970000D01*
X61950000Y-145270000D01*
X62550000Y-145420000D01*
X63050000Y-145420000D01*
X63500000Y-145320000D01*
X63750000Y-145220000D01*
X64200000Y-144970000D01*
X64350000Y-145070000D01*
X64500000Y-145170000D01*
X64500000Y-145570000D01*
X64400000Y-145970000D01*
X64250000Y-146220000D01*
X64100000Y-146420000D01*
X63950000Y-146570000D01*
X63750000Y-146720000D01*
X63600000Y-146820000D01*
X63400000Y-146920000D01*
X63100000Y-147020000D01*
X62800000Y-147070000D01*
X62600000Y-147070000D01*
X58250000Y-147070000D01*
X58550000Y-146620000D01*
X58700000Y-146220000D01*
X58750000Y-145970000D01*
X58750000Y-145620000D01*
X58750000Y-145320000D01*
X58650000Y-144920000D01*
X58500000Y-144570000D01*
X58350000Y-144320000D01*
X58050000Y-143970000D01*
X57800000Y-143770000D01*
X57350000Y-143520000D01*
X59400000Y-143520000D01*
X59900000Y-143470000D01*
X60250000Y-143370000D01*
X60500000Y-143170000D01*
X60550000Y-143620000D01*
G37*
D10*
%TO.C,S22*%
X133500000Y-151370000D02*
X133000000Y-151870000D01*
X133500000Y-155870000D02*
X133000000Y-155370000D01*
X135800000Y-155870000D02*
X133500000Y-155870000D01*
X136500000Y-151370000D02*
X133500000Y-151370000D01*
X137000000Y-151870000D02*
X136500000Y-151370000D01*
X137000000Y-151870000D02*
X137000000Y-152790000D01*
X137500000Y-158070000D02*
X137500000Y-157370000D01*
X137520000Y-153370000D02*
X142000000Y-153370000D01*
X142000000Y-153370000D02*
X142000000Y-153970000D01*
X142000000Y-157570000D02*
X142000000Y-158070000D01*
X142000000Y-158070000D02*
X137500000Y-158070000D01*
X135800000Y-155870000D02*
G75*
G02*
X137500000Y-157350000I110000J-1590000D01*
G01*
X137520000Y-153370000D02*
G75*
G02*
X137000000Y-152790000I30000J550000D01*
G01*
D11*
%TO.C,D24*%
X134750000Y-128920000D02*
X135350000Y-129320000D01*
X134750000Y-129320000D02*
X134250000Y-129320000D01*
X134750000Y-129720000D02*
X134750000Y-128920000D01*
X135350000Y-129320000D02*
X134750000Y-129720000D01*
X135350000Y-129320000D02*
X135350000Y-128770000D01*
X135350000Y-129320000D02*
X135350000Y-129870000D01*
X135750000Y-129320000D02*
X135350000Y-129320000D01*
D12*
%TO.C,S42*%
X98550000Y-137905000D02*
X98750000Y-138455000D01*
X99150000Y-139005000D01*
X99450000Y-139255000D01*
X99950000Y-139555000D01*
X100550000Y-139705000D01*
X101050000Y-139705000D01*
X101500000Y-139605000D01*
X101750000Y-139505000D01*
X102200000Y-139255000D01*
X102350000Y-139355000D01*
X102500000Y-139455000D01*
X102500000Y-139855000D01*
X102400000Y-140255000D01*
X102250000Y-140505000D01*
X102100000Y-140705000D01*
X101950000Y-140855000D01*
X101750000Y-141005000D01*
X101600000Y-141105000D01*
X101400000Y-141205000D01*
X101100000Y-141305000D01*
X100800000Y-141355000D01*
X100600000Y-141355000D01*
X96250000Y-141355000D01*
X96550000Y-140905000D01*
X96700000Y-140505000D01*
X96750000Y-140255000D01*
X96750000Y-139905000D01*
X96750000Y-139605000D01*
X96650000Y-139205000D01*
X96500000Y-138855000D01*
X96350000Y-138605000D01*
X96050000Y-138255000D01*
X95800000Y-138055000D01*
X95350000Y-137805000D01*
X97400000Y-137805000D01*
X97900000Y-137755000D01*
X98250000Y-137655000D01*
X98500000Y-137455000D01*
X98550000Y-137905000D01*
G36*
X98550000Y-137905000D02*
G01*
X98750000Y-138455000D01*
X99150000Y-139005000D01*
X99450000Y-139255000D01*
X99950000Y-139555000D01*
X100550000Y-139705000D01*
X101050000Y-139705000D01*
X101500000Y-139605000D01*
X101750000Y-139505000D01*
X102200000Y-139255000D01*
X102350000Y-139355000D01*
X102500000Y-139455000D01*
X102500000Y-139855000D01*
X102400000Y-140255000D01*
X102250000Y-140505000D01*
X102100000Y-140705000D01*
X101950000Y-140855000D01*
X101750000Y-141005000D01*
X101600000Y-141105000D01*
X101400000Y-141205000D01*
X101100000Y-141305000D01*
X100800000Y-141355000D01*
X100600000Y-141355000D01*
X96250000Y-141355000D01*
X96550000Y-140905000D01*
X96700000Y-140505000D01*
X96750000Y-140255000D01*
X96750000Y-139905000D01*
X96750000Y-139605000D01*
X96650000Y-139205000D01*
X96500000Y-138855000D01*
X96350000Y-138605000D01*
X96050000Y-138255000D01*
X95800000Y-138055000D01*
X95350000Y-137805000D01*
X97400000Y-137805000D01*
X97900000Y-137755000D01*
X98250000Y-137655000D01*
X98500000Y-137455000D01*
X98550000Y-137905000D01*
G37*
%TO.C,S38*%
X79550000Y-141715000D02*
X79750000Y-142265000D01*
X80150000Y-142815000D01*
X80450000Y-143065000D01*
X80950000Y-143365000D01*
X81550000Y-143515000D01*
X82050000Y-143515000D01*
X82500000Y-143415000D01*
X82750000Y-143315000D01*
X83200000Y-143065000D01*
X83350000Y-143165000D01*
X83500000Y-143265000D01*
X83500000Y-143665000D01*
X83400000Y-144065000D01*
X83250000Y-144315000D01*
X83100000Y-144515000D01*
X82950000Y-144665000D01*
X82750000Y-144815000D01*
X82600000Y-144915000D01*
X82400000Y-145015000D01*
X82100000Y-145115000D01*
X81800000Y-145165000D01*
X81600000Y-145165000D01*
X77250000Y-145165000D01*
X77550000Y-144715000D01*
X77700000Y-144315000D01*
X77750000Y-144065000D01*
X77750000Y-143715000D01*
X77750000Y-143415000D01*
X77650000Y-143015000D01*
X77500000Y-142665000D01*
X77350000Y-142415000D01*
X77050000Y-142065000D01*
X76800000Y-141865000D01*
X76350000Y-141615000D01*
X78400000Y-141615000D01*
X78900000Y-141565000D01*
X79250000Y-141465000D01*
X79500000Y-141265000D01*
X79550000Y-141715000D01*
G36*
X79550000Y-141715000D02*
G01*
X79750000Y-142265000D01*
X80150000Y-142815000D01*
X80450000Y-143065000D01*
X80950000Y-143365000D01*
X81550000Y-143515000D01*
X82050000Y-143515000D01*
X82500000Y-143415000D01*
X82750000Y-143315000D01*
X83200000Y-143065000D01*
X83350000Y-143165000D01*
X83500000Y-143265000D01*
X83500000Y-143665000D01*
X83400000Y-144065000D01*
X83250000Y-144315000D01*
X83100000Y-144515000D01*
X82950000Y-144665000D01*
X82750000Y-144815000D01*
X82600000Y-144915000D01*
X82400000Y-145015000D01*
X82100000Y-145115000D01*
X81800000Y-145165000D01*
X81600000Y-145165000D01*
X77250000Y-145165000D01*
X77550000Y-144715000D01*
X77700000Y-144315000D01*
X77750000Y-144065000D01*
X77750000Y-143715000D01*
X77750000Y-143415000D01*
X77650000Y-143015000D01*
X77500000Y-142665000D01*
X77350000Y-142415000D01*
X77050000Y-142065000D01*
X76800000Y-141865000D01*
X76350000Y-141615000D01*
X78400000Y-141615000D01*
X78900000Y-141565000D01*
X79250000Y-141465000D01*
X79500000Y-141265000D01*
X79550000Y-141715000D01*
G37*
D11*
%TO.C,D6*%
X58750000Y-166920000D02*
X59350000Y-167320000D01*
X58750000Y-167320000D02*
X58250000Y-167320000D01*
X58750000Y-167720000D02*
X58750000Y-166920000D01*
X59350000Y-167320000D02*
X58750000Y-167720000D01*
X59350000Y-167320000D02*
X59350000Y-166770000D01*
X59350000Y-167320000D02*
X59350000Y-167870000D01*
X59750000Y-167320000D02*
X59350000Y-167320000D01*
D10*
%TO.C,S8*%
X57500000Y-113370000D02*
X57000000Y-113870000D01*
X57500000Y-117870000D02*
X57000000Y-117370000D01*
X59800000Y-117870000D02*
X57500000Y-117870000D01*
X60500000Y-113370000D02*
X57500000Y-113370000D01*
X61000000Y-113870000D02*
X60500000Y-113370000D01*
X61000000Y-113870000D02*
X61000000Y-114790000D01*
X61500000Y-120070000D02*
X61500000Y-119370000D01*
X61520000Y-115370000D02*
X66000000Y-115370000D01*
X66000000Y-115370000D02*
X66000000Y-115970000D01*
X66000000Y-119570000D02*
X66000000Y-120070000D01*
X66000000Y-120070000D02*
X61500000Y-120070000D01*
X59800000Y-117870000D02*
G75*
G02*
X61500000Y-119350000I110000J-1590000D01*
G01*
X61520000Y-115370000D02*
G75*
G02*
X61000000Y-114790000I30000J550000D01*
G01*
D12*
%TO.C,S48*%
X136550000Y-181620000D02*
X136750000Y-182170000D01*
X137150000Y-182720000D01*
X137450000Y-182970000D01*
X137950000Y-183270000D01*
X138550000Y-183420000D01*
X139050000Y-183420000D01*
X139500000Y-183320000D01*
X139750000Y-183220000D01*
X140200000Y-182970000D01*
X140350000Y-183070000D01*
X140500000Y-183170000D01*
X140500000Y-183570000D01*
X140400000Y-183970000D01*
X140250000Y-184220000D01*
X140100000Y-184420000D01*
X139950000Y-184570000D01*
X139750000Y-184720000D01*
X139600000Y-184820000D01*
X139400000Y-184920000D01*
X139100000Y-185020000D01*
X138800000Y-185070000D01*
X138600000Y-185070000D01*
X134250000Y-185070000D01*
X134550000Y-184620000D01*
X134700000Y-184220000D01*
X134750000Y-183970000D01*
X134750000Y-183620000D01*
X134750000Y-183320000D01*
X134650000Y-182920000D01*
X134500000Y-182570000D01*
X134350000Y-182320000D01*
X134050000Y-181970000D01*
X133800000Y-181770000D01*
X133350000Y-181520000D01*
X135400000Y-181520000D01*
X135900000Y-181470000D01*
X136250000Y-181370000D01*
X136500000Y-181170000D01*
X136550000Y-181620000D01*
G36*
X136550000Y-181620000D02*
G01*
X136750000Y-182170000D01*
X137150000Y-182720000D01*
X137450000Y-182970000D01*
X137950000Y-183270000D01*
X138550000Y-183420000D01*
X139050000Y-183420000D01*
X139500000Y-183320000D01*
X139750000Y-183220000D01*
X140200000Y-182970000D01*
X140350000Y-183070000D01*
X140500000Y-183170000D01*
X140500000Y-183570000D01*
X140400000Y-183970000D01*
X140250000Y-184220000D01*
X140100000Y-184420000D01*
X139950000Y-184570000D01*
X139750000Y-184720000D01*
X139600000Y-184820000D01*
X139400000Y-184920000D01*
X139100000Y-185020000D01*
X138800000Y-185070000D01*
X138600000Y-185070000D01*
X134250000Y-185070000D01*
X134550000Y-184620000D01*
X134700000Y-184220000D01*
X134750000Y-183970000D01*
X134750000Y-183620000D01*
X134750000Y-183320000D01*
X134650000Y-182920000D01*
X134500000Y-182570000D01*
X134350000Y-182320000D01*
X134050000Y-181970000D01*
X133800000Y-181770000D01*
X133350000Y-181520000D01*
X135400000Y-181520000D01*
X135900000Y-181470000D01*
X136250000Y-181370000D01*
X136500000Y-181170000D01*
X136550000Y-181620000D01*
G37*
D10*
%TO.C,S21*%
X133500000Y-170370000D02*
X133000000Y-170870000D01*
X133500000Y-174870000D02*
X133000000Y-174370000D01*
X135800000Y-174870000D02*
X133500000Y-174870000D01*
X136500000Y-170370000D02*
X133500000Y-170370000D01*
X137000000Y-170870000D02*
X136500000Y-170370000D01*
X137000000Y-170870000D02*
X137000000Y-171790000D01*
X137500000Y-177070000D02*
X137500000Y-176370000D01*
X137520000Y-172370000D02*
X142000000Y-172370000D01*
X142000000Y-172370000D02*
X142000000Y-172970000D01*
X142000000Y-176570000D02*
X142000000Y-177070000D01*
X142000000Y-177070000D02*
X137500000Y-177070000D01*
X135800000Y-174870000D02*
G75*
G02*
X137500000Y-176350000I110000J-1590000D01*
G01*
X137520000Y-172370000D02*
G75*
G02*
X137000000Y-171790000I30000J550000D01*
G01*
%TO.C,S10*%
X76500000Y-149465000D02*
X76000000Y-149965000D01*
X76500000Y-153965000D02*
X76000000Y-153465000D01*
X78800000Y-153965000D02*
X76500000Y-153965000D01*
X79500000Y-149465000D02*
X76500000Y-149465000D01*
X80000000Y-149965000D02*
X79500000Y-149465000D01*
X80000000Y-149965000D02*
X80000000Y-150885000D01*
X80500000Y-156165000D02*
X80500000Y-155465000D01*
X80520000Y-151465000D02*
X85000000Y-151465000D01*
X85000000Y-151465000D02*
X85000000Y-152065000D01*
X85000000Y-155665000D02*
X85000000Y-156165000D01*
X85000000Y-156165000D02*
X80500000Y-156165000D01*
X78800000Y-153965000D02*
G75*
G02*
X80500000Y-155445000I110000J-1590000D01*
G01*
X80520000Y-151465000D02*
G75*
G02*
X80000000Y-150885000I30000J550000D01*
G01*
D11*
%TO.C,D25*%
X104036858Y-205496476D02*
X104175776Y-204708630D01*
X104106317Y-205102553D02*
X103613913Y-205015729D01*
X104175776Y-204708630D02*
X104697202Y-205206742D01*
X104697202Y-205206742D02*
X104036858Y-205496476D01*
X104697202Y-205206742D02*
X104601695Y-205748386D01*
X104697202Y-205206742D02*
X104792708Y-204665098D01*
X105091125Y-205276201D02*
X104697202Y-205206742D01*
D10*
%TO.C,S4*%
X38500000Y-124800000D02*
X38000000Y-125300000D01*
X38500000Y-129300000D02*
X38000000Y-128800000D01*
X40800000Y-129300000D02*
X38500000Y-129300000D01*
X41500000Y-124800000D02*
X38500000Y-124800000D01*
X42000000Y-125300000D02*
X41500000Y-124800000D01*
X42000000Y-125300000D02*
X42000000Y-126220000D01*
X42500000Y-131500000D02*
X42500000Y-130800000D01*
X42520000Y-126800000D02*
X47000000Y-126800000D01*
X47000000Y-126800000D02*
X47000000Y-127400000D01*
X47000000Y-131000000D02*
X47000000Y-131500000D01*
X47000000Y-131500000D02*
X42500000Y-131500000D01*
X40800000Y-129300000D02*
G75*
G02*
X42500000Y-130780000I110000J-1590000D01*
G01*
X42520000Y-126800000D02*
G75*
G02*
X42000000Y-126220000I30000J550000D01*
G01*
%TO.C,S3*%
X38500000Y-143800000D02*
X38000000Y-144300000D01*
X38500000Y-148300000D02*
X38000000Y-147800000D01*
X40800000Y-148300000D02*
X38500000Y-148300000D01*
X41500000Y-143800000D02*
X38500000Y-143800000D01*
X42000000Y-144300000D02*
X41500000Y-143800000D01*
X42000000Y-144300000D02*
X42000000Y-145220000D01*
X42500000Y-150500000D02*
X42500000Y-149800000D01*
X42520000Y-145800000D02*
X47000000Y-145800000D01*
X47000000Y-145800000D02*
X47000000Y-146400000D01*
X47000000Y-150000000D02*
X47000000Y-150500000D01*
X47000000Y-150500000D02*
X42500000Y-150500000D01*
X40800000Y-148300000D02*
G75*
G02*
X42500000Y-149780000I110000J-1590000D01*
G01*
X42520000Y-145800000D02*
G75*
G02*
X42000000Y-145220000I30000J550000D01*
G01*
D12*
%TO.C,S50*%
X136550000Y-143620000D02*
X136750000Y-144170000D01*
X137150000Y-144720000D01*
X137450000Y-144970000D01*
X137950000Y-145270000D01*
X138550000Y-145420000D01*
X139050000Y-145420000D01*
X139500000Y-145320000D01*
X139750000Y-145220000D01*
X140200000Y-144970000D01*
X140350000Y-145070000D01*
X140500000Y-145170000D01*
X140500000Y-145570000D01*
X140400000Y-145970000D01*
X140250000Y-146220000D01*
X140100000Y-146420000D01*
X139950000Y-146570000D01*
X139750000Y-146720000D01*
X139600000Y-146820000D01*
X139400000Y-146920000D01*
X139100000Y-147020000D01*
X138800000Y-147070000D01*
X138600000Y-147070000D01*
X134250000Y-147070000D01*
X134550000Y-146620000D01*
X134700000Y-146220000D01*
X134750000Y-145970000D01*
X134750000Y-145620000D01*
X134750000Y-145320000D01*
X134650000Y-144920000D01*
X134500000Y-144570000D01*
X134350000Y-144320000D01*
X134050000Y-143970000D01*
X133800000Y-143770000D01*
X133350000Y-143520000D01*
X135400000Y-143520000D01*
X135900000Y-143470000D01*
X136250000Y-143370000D01*
X136500000Y-143170000D01*
X136550000Y-143620000D01*
G36*
X136550000Y-143620000D02*
G01*
X136750000Y-144170000D01*
X137150000Y-144720000D01*
X137450000Y-144970000D01*
X137950000Y-145270000D01*
X138550000Y-145420000D01*
X139050000Y-145420000D01*
X139500000Y-145320000D01*
X139750000Y-145220000D01*
X140200000Y-144970000D01*
X140350000Y-145070000D01*
X140500000Y-145170000D01*
X140500000Y-145570000D01*
X140400000Y-145970000D01*
X140250000Y-146220000D01*
X140100000Y-146420000D01*
X139950000Y-146570000D01*
X139750000Y-146720000D01*
X139600000Y-146820000D01*
X139400000Y-146920000D01*
X139100000Y-147020000D01*
X138800000Y-147070000D01*
X138600000Y-147070000D01*
X134250000Y-147070000D01*
X134550000Y-146620000D01*
X134700000Y-146220000D01*
X134750000Y-145970000D01*
X134750000Y-145620000D01*
X134750000Y-145320000D01*
X134650000Y-144920000D01*
X134500000Y-144570000D01*
X134350000Y-144320000D01*
X134050000Y-143970000D01*
X133800000Y-143770000D01*
X133350000Y-143520000D01*
X135400000Y-143520000D01*
X135900000Y-143470000D01*
X136250000Y-143370000D01*
X136500000Y-143170000D01*
X136550000Y-143620000D01*
G37*
%TO.C,S46*%
X117550000Y-141715000D02*
X117750000Y-142265000D01*
X118150000Y-142815000D01*
X118450000Y-143065000D01*
X118950000Y-143365000D01*
X119550000Y-143515000D01*
X120050000Y-143515000D01*
X120500000Y-143415000D01*
X120750000Y-143315000D01*
X121200000Y-143065000D01*
X121350000Y-143165000D01*
X121500000Y-143265000D01*
X121500000Y-143665000D01*
X121400000Y-144065000D01*
X121250000Y-144315000D01*
X121100000Y-144515000D01*
X120950000Y-144665000D01*
X120750000Y-144815000D01*
X120600000Y-144915000D01*
X120400000Y-145015000D01*
X120100000Y-145115000D01*
X119800000Y-145165000D01*
X119600000Y-145165000D01*
X115250000Y-145165000D01*
X115550000Y-144715000D01*
X115700000Y-144315000D01*
X115750000Y-144065000D01*
X115750000Y-143715000D01*
X115750000Y-143415000D01*
X115650000Y-143015000D01*
X115500000Y-142665000D01*
X115350000Y-142415000D01*
X115050000Y-142065000D01*
X114800000Y-141865000D01*
X114350000Y-141615000D01*
X116400000Y-141615000D01*
X116900000Y-141565000D01*
X117250000Y-141465000D01*
X117500000Y-141265000D01*
X117550000Y-141715000D01*
G36*
X117550000Y-141715000D02*
G01*
X117750000Y-142265000D01*
X118150000Y-142815000D01*
X118450000Y-143065000D01*
X118950000Y-143365000D01*
X119550000Y-143515000D01*
X120050000Y-143515000D01*
X120500000Y-143415000D01*
X120750000Y-143315000D01*
X121200000Y-143065000D01*
X121350000Y-143165000D01*
X121500000Y-143265000D01*
X121500000Y-143665000D01*
X121400000Y-144065000D01*
X121250000Y-144315000D01*
X121100000Y-144515000D01*
X120950000Y-144665000D01*
X120750000Y-144815000D01*
X120600000Y-144915000D01*
X120400000Y-145015000D01*
X120100000Y-145115000D01*
X119800000Y-145165000D01*
X119600000Y-145165000D01*
X115250000Y-145165000D01*
X115550000Y-144715000D01*
X115700000Y-144315000D01*
X115750000Y-144065000D01*
X115750000Y-143715000D01*
X115750000Y-143415000D01*
X115650000Y-143015000D01*
X115500000Y-142665000D01*
X115350000Y-142415000D01*
X115050000Y-142065000D01*
X114800000Y-141865000D01*
X114350000Y-141615000D01*
X116400000Y-141615000D01*
X116900000Y-141565000D01*
X117250000Y-141465000D01*
X117500000Y-141265000D01*
X117550000Y-141715000D01*
G37*
D10*
%TO.C,S6*%
X57500000Y-151370000D02*
X57000000Y-151870000D01*
X57500000Y-155870000D02*
X57000000Y-155370000D01*
X59800000Y-155870000D02*
X57500000Y-155870000D01*
X60500000Y-151370000D02*
X57500000Y-151370000D01*
X61000000Y-151870000D02*
X60500000Y-151370000D01*
X61000000Y-151870000D02*
X61000000Y-152790000D01*
X61500000Y-158070000D02*
X61500000Y-157370000D01*
X61520000Y-153370000D02*
X66000000Y-153370000D01*
X66000000Y-153370000D02*
X66000000Y-153970000D01*
X66000000Y-157570000D02*
X66000000Y-158070000D01*
X66000000Y-158070000D02*
X61500000Y-158070000D01*
X59800000Y-155870000D02*
G75*
G02*
X61500000Y-157350000I110000J-1590000D01*
G01*
X61520000Y-153370000D02*
G75*
G02*
X61000000Y-152790000I30000J550000D01*
G01*
D11*
%TO.C,D20*%
X115750000Y-127015000D02*
X116350000Y-127415000D01*
X115750000Y-127415000D02*
X115250000Y-127415000D01*
X115750000Y-127815000D02*
X115750000Y-127015000D01*
X116350000Y-127415000D02*
X115750000Y-127815000D01*
X116350000Y-127415000D02*
X116350000Y-126865000D01*
X116350000Y-127415000D02*
X116350000Y-127965000D01*
X116750000Y-127415000D02*
X116350000Y-127415000D01*
D12*
%TO.C,S32*%
X60550000Y-181620000D02*
X60750000Y-182170000D01*
X61150000Y-182720000D01*
X61450000Y-182970000D01*
X61950000Y-183270000D01*
X62550000Y-183420000D01*
X63050000Y-183420000D01*
X63500000Y-183320000D01*
X63750000Y-183220000D01*
X64200000Y-182970000D01*
X64350000Y-183070000D01*
X64500000Y-183170000D01*
X64500000Y-183570000D01*
X64400000Y-183970000D01*
X64250000Y-184220000D01*
X64100000Y-184420000D01*
X63950000Y-184570000D01*
X63750000Y-184720000D01*
X63600000Y-184820000D01*
X63400000Y-184920000D01*
X63100000Y-185020000D01*
X62800000Y-185070000D01*
X62600000Y-185070000D01*
X58250000Y-185070000D01*
X58550000Y-184620000D01*
X58700000Y-184220000D01*
X58750000Y-183970000D01*
X58750000Y-183620000D01*
X58750000Y-183320000D01*
X58650000Y-182920000D01*
X58500000Y-182570000D01*
X58350000Y-182320000D01*
X58050000Y-181970000D01*
X57800000Y-181770000D01*
X57350000Y-181520000D01*
X59400000Y-181520000D01*
X59900000Y-181470000D01*
X60250000Y-181370000D01*
X60500000Y-181170000D01*
X60550000Y-181620000D01*
G36*
X60550000Y-181620000D02*
G01*
X60750000Y-182170000D01*
X61150000Y-182720000D01*
X61450000Y-182970000D01*
X61950000Y-183270000D01*
X62550000Y-183420000D01*
X63050000Y-183420000D01*
X63500000Y-183320000D01*
X63750000Y-183220000D01*
X64200000Y-182970000D01*
X64350000Y-183070000D01*
X64500000Y-183170000D01*
X64500000Y-183570000D01*
X64400000Y-183970000D01*
X64250000Y-184220000D01*
X64100000Y-184420000D01*
X63950000Y-184570000D01*
X63750000Y-184720000D01*
X63600000Y-184820000D01*
X63400000Y-184920000D01*
X63100000Y-185020000D01*
X62800000Y-185070000D01*
X62600000Y-185070000D01*
X58250000Y-185070000D01*
X58550000Y-184620000D01*
X58700000Y-184220000D01*
X58750000Y-183970000D01*
X58750000Y-183620000D01*
X58750000Y-183320000D01*
X58650000Y-182920000D01*
X58500000Y-182570000D01*
X58350000Y-182320000D01*
X58050000Y-181970000D01*
X57800000Y-181770000D01*
X57350000Y-181520000D01*
X59400000Y-181520000D01*
X59900000Y-181470000D01*
X60250000Y-181370000D01*
X60500000Y-181170000D01*
X60550000Y-181620000D01*
G37*
D11*
%TO.C,D23*%
X134750000Y-147920000D02*
X135350000Y-148320000D01*
X134750000Y-148320000D02*
X134250000Y-148320000D01*
X134750000Y-148720000D02*
X134750000Y-147920000D01*
X135350000Y-148320000D02*
X134750000Y-148720000D01*
X135350000Y-148320000D02*
X135350000Y-147770000D01*
X135350000Y-148320000D02*
X135350000Y-148870000D01*
X135750000Y-148320000D02*
X135350000Y-148320000D01*
D12*
%TO.C,S40*%
X98550000Y-175905000D02*
X98750000Y-176455000D01*
X99150000Y-177005000D01*
X99450000Y-177255000D01*
X99950000Y-177555000D01*
X100550000Y-177705000D01*
X101050000Y-177705000D01*
X101500000Y-177605000D01*
X101750000Y-177505000D01*
X102200000Y-177255000D01*
X102350000Y-177355000D01*
X102500000Y-177455000D01*
X102500000Y-177855000D01*
X102400000Y-178255000D01*
X102250000Y-178505000D01*
X102100000Y-178705000D01*
X101950000Y-178855000D01*
X101750000Y-179005000D01*
X101600000Y-179105000D01*
X101400000Y-179205000D01*
X101100000Y-179305000D01*
X100800000Y-179355000D01*
X100600000Y-179355000D01*
X96250000Y-179355000D01*
X96550000Y-178905000D01*
X96700000Y-178505000D01*
X96750000Y-178255000D01*
X96750000Y-177905000D01*
X96750000Y-177605000D01*
X96650000Y-177205000D01*
X96500000Y-176855000D01*
X96350000Y-176605000D01*
X96050000Y-176255000D01*
X95800000Y-176055000D01*
X95350000Y-175805000D01*
X97400000Y-175805000D01*
X97900000Y-175755000D01*
X98250000Y-175655000D01*
X98500000Y-175455000D01*
X98550000Y-175905000D01*
G36*
X98550000Y-175905000D02*
G01*
X98750000Y-176455000D01*
X99150000Y-177005000D01*
X99450000Y-177255000D01*
X99950000Y-177555000D01*
X100550000Y-177705000D01*
X101050000Y-177705000D01*
X101500000Y-177605000D01*
X101750000Y-177505000D01*
X102200000Y-177255000D01*
X102350000Y-177355000D01*
X102500000Y-177455000D01*
X102500000Y-177855000D01*
X102400000Y-178255000D01*
X102250000Y-178505000D01*
X102100000Y-178705000D01*
X101950000Y-178855000D01*
X101750000Y-179005000D01*
X101600000Y-179105000D01*
X101400000Y-179205000D01*
X101100000Y-179305000D01*
X100800000Y-179355000D01*
X100600000Y-179355000D01*
X96250000Y-179355000D01*
X96550000Y-178905000D01*
X96700000Y-178505000D01*
X96750000Y-178255000D01*
X96750000Y-177905000D01*
X96750000Y-177605000D01*
X96650000Y-177205000D01*
X96500000Y-176855000D01*
X96350000Y-176605000D01*
X96050000Y-176255000D01*
X95800000Y-176055000D01*
X95350000Y-175805000D01*
X97400000Y-175805000D01*
X97900000Y-175755000D01*
X98250000Y-175655000D01*
X98500000Y-175455000D01*
X98550000Y-175905000D01*
G37*
D10*
%TO.C,S27*%
X152992632Y-206239405D02*
X152693795Y-205598549D01*
X154531722Y-202010788D02*
X153890866Y-202309625D01*
X155153925Y-207026050D02*
X152992632Y-206239405D01*
X155998958Y-209674809D02*
X156238372Y-209017025D01*
X157350800Y-203036849D02*
X154531722Y-202010788D01*
X157625246Y-205265095D02*
X161835069Y-206797345D01*
X157649636Y-203677705D02*
X157334978Y-204542222D01*
X157649636Y-203677705D02*
X157350800Y-203036849D01*
X160227575Y-211213900D02*
X155998958Y-209674809D01*
X160398585Y-210744054D02*
X160227575Y-211213900D01*
X161835069Y-206797345D02*
X161629857Y-207361160D01*
X155153925Y-207026050D02*
G75*
G02*
X156245212Y-208998231I-440450J-1531736D01*
G01*
X157625246Y-205265095D02*
G75*
G02*
X157334977Y-204542222I216302J506571D01*
G01*
D12*
%TO.C,S41*%
X98550000Y-156905000D02*
X98750000Y-157455000D01*
X99150000Y-158005000D01*
X99450000Y-158255000D01*
X99950000Y-158555000D01*
X100550000Y-158705000D01*
X101050000Y-158705000D01*
X101500000Y-158605000D01*
X101750000Y-158505000D01*
X102200000Y-158255000D01*
X102350000Y-158355000D01*
X102500000Y-158455000D01*
X102500000Y-158855000D01*
X102400000Y-159255000D01*
X102250000Y-159505000D01*
X102100000Y-159705000D01*
X101950000Y-159855000D01*
X101750000Y-160005000D01*
X101600000Y-160105000D01*
X101400000Y-160205000D01*
X101100000Y-160305000D01*
X100800000Y-160355000D01*
X100600000Y-160355000D01*
X96250000Y-160355000D01*
X96550000Y-159905000D01*
X96700000Y-159505000D01*
X96750000Y-159255000D01*
X96750000Y-158905000D01*
X96750000Y-158605000D01*
X96650000Y-158205000D01*
X96500000Y-157855000D01*
X96350000Y-157605000D01*
X96050000Y-157255000D01*
X95800000Y-157055000D01*
X95350000Y-156805000D01*
X97400000Y-156805000D01*
X97900000Y-156755000D01*
X98250000Y-156655000D01*
X98500000Y-156455000D01*
X98550000Y-156905000D01*
G36*
X98550000Y-156905000D02*
G01*
X98750000Y-157455000D01*
X99150000Y-158005000D01*
X99450000Y-158255000D01*
X99950000Y-158555000D01*
X100550000Y-158705000D01*
X101050000Y-158705000D01*
X101500000Y-158605000D01*
X101750000Y-158505000D01*
X102200000Y-158255000D01*
X102350000Y-158355000D01*
X102500000Y-158455000D01*
X102500000Y-158855000D01*
X102400000Y-159255000D01*
X102250000Y-159505000D01*
X102100000Y-159705000D01*
X101950000Y-159855000D01*
X101750000Y-160005000D01*
X101600000Y-160105000D01*
X101400000Y-160205000D01*
X101100000Y-160305000D01*
X100800000Y-160355000D01*
X100600000Y-160355000D01*
X96250000Y-160355000D01*
X96550000Y-159905000D01*
X96700000Y-159505000D01*
X96750000Y-159255000D01*
X96750000Y-158905000D01*
X96750000Y-158605000D01*
X96650000Y-158205000D01*
X96500000Y-157855000D01*
X96350000Y-157605000D01*
X96050000Y-157255000D01*
X95800000Y-157055000D01*
X95350000Y-156805000D01*
X97400000Y-156805000D01*
X97900000Y-156755000D01*
X98250000Y-156655000D01*
X98500000Y-156455000D01*
X98550000Y-156905000D01*
G37*
D11*
%TO.C,D3*%
X39750000Y-159350000D02*
X40350000Y-159750000D01*
X39750000Y-159750000D02*
X39250000Y-159750000D01*
X39750000Y-160150000D02*
X39750000Y-159350000D01*
X40350000Y-159750000D02*
X39750000Y-160150000D01*
X40350000Y-159750000D02*
X40350000Y-159200000D01*
X40350000Y-159750000D02*
X40350000Y-160300000D01*
X40750000Y-159750000D02*
X40350000Y-159750000D01*
D10*
%TO.C,S1*%
X38500000Y-181800000D02*
X38000000Y-182300000D01*
X38500000Y-186300000D02*
X38000000Y-185800000D01*
X40800000Y-186300000D02*
X38500000Y-186300000D01*
X41500000Y-181800000D02*
X38500000Y-181800000D01*
X42000000Y-182300000D02*
X41500000Y-181800000D01*
X42000000Y-182300000D02*
X42000000Y-183220000D01*
X42500000Y-188500000D02*
X42500000Y-187800000D01*
X42520000Y-183800000D02*
X47000000Y-183800000D01*
X47000000Y-183800000D02*
X47000000Y-184400000D01*
X47000000Y-188000000D02*
X47000000Y-188500000D01*
X47000000Y-188500000D02*
X42500000Y-188500000D01*
X40800000Y-186300000D02*
G75*
G02*
X42500000Y-187780000I110000J-1590000D01*
G01*
X42520000Y-183800000D02*
G75*
G02*
X42000000Y-183220000I30000J550000D01*
G01*
D12*
%TO.C,S54*%
X152503614Y-213138199D02*
X152990561Y-213262225D01*
X153353655Y-213287963D01*
X153656983Y-213185529D01*
X153550058Y-213625492D01*
X153549887Y-214210727D01*
X153737652Y-214864366D01*
X153934054Y-215201895D01*
X154301295Y-215654813D01*
X154813807Y-216000979D01*
X155283653Y-216171989D01*
X155740717Y-216231929D01*
X156009842Y-216223464D01*
X156518209Y-216142450D01*
X156624961Y-216287723D01*
X156731713Y-216432995D01*
X156594905Y-216808872D01*
X156364127Y-217150547D01*
X156137668Y-217334167D01*
X155928311Y-217470803D01*
X155736054Y-217560452D01*
X155496812Y-217633003D01*
X155321656Y-217675670D01*
X155099516Y-217701235D01*
X154783406Y-217692598D01*
X154484397Y-217636977D01*
X154296459Y-217568573D01*
X150208796Y-216080785D01*
X150644612Y-215760529D01*
X150922374Y-215435955D01*
X151054864Y-215218133D01*
X151174571Y-214889241D01*
X151277177Y-214607333D01*
X151320016Y-214197254D01*
X151298769Y-213817058D01*
X151243320Y-213530832D01*
X151081120Y-213099334D01*
X150914600Y-212825890D01*
X150577244Y-212437058D01*
X152503614Y-213138199D01*
G36*
X152503614Y-213138199D02*
G01*
X152990561Y-213262225D01*
X153353655Y-213287963D01*
X153656983Y-213185529D01*
X153550058Y-213625492D01*
X153549887Y-214210727D01*
X153737652Y-214864366D01*
X153934054Y-215201895D01*
X154301295Y-215654813D01*
X154813807Y-216000979D01*
X155283653Y-216171989D01*
X155740717Y-216231929D01*
X156009842Y-216223464D01*
X156518209Y-216142450D01*
X156624961Y-216287723D01*
X156731713Y-216432995D01*
X156594905Y-216808872D01*
X156364127Y-217150547D01*
X156137668Y-217334167D01*
X155928311Y-217470803D01*
X155736054Y-217560452D01*
X155496812Y-217633003D01*
X155321656Y-217675670D01*
X155099516Y-217701235D01*
X154783406Y-217692598D01*
X154484397Y-217636977D01*
X154296459Y-217568573D01*
X150208796Y-216080785D01*
X150644612Y-215760529D01*
X150922374Y-215435955D01*
X151054864Y-215218133D01*
X151174571Y-214889241D01*
X151277177Y-214607333D01*
X151320016Y-214197254D01*
X151298769Y-213817058D01*
X151243320Y-213530832D01*
X151081120Y-213099334D01*
X150914600Y-212825890D01*
X150577244Y-212437058D01*
X152503614Y-213138199D01*
G37*
D10*
%TO.C,S17*%
X114500000Y-168465000D02*
X114000000Y-168965000D01*
X114500000Y-172965000D02*
X114000000Y-172465000D01*
X116800000Y-172965000D02*
X114500000Y-172965000D01*
X117500000Y-168465000D02*
X114500000Y-168465000D01*
X118000000Y-168965000D02*
X117500000Y-168465000D01*
X118000000Y-168965000D02*
X118000000Y-169885000D01*
X118500000Y-175165000D02*
X118500000Y-174465000D01*
X118520000Y-170465000D02*
X123000000Y-170465000D01*
X123000000Y-170465000D02*
X123000000Y-171065000D01*
X123000000Y-174665000D02*
X123000000Y-175165000D01*
X123000000Y-175165000D02*
X118500000Y-175165000D01*
X116800000Y-172965000D02*
G75*
G02*
X118500000Y-174445000I110000J-1590000D01*
G01*
X118520000Y-170465000D02*
G75*
G02*
X118000000Y-169885000I30000J550000D01*
G01*
D12*
%TO.C,S36*%
X79550000Y-179715000D02*
X79750000Y-180265000D01*
X80150000Y-180815000D01*
X80450000Y-181065000D01*
X80950000Y-181365000D01*
X81550000Y-181515000D01*
X82050000Y-181515000D01*
X82500000Y-181415000D01*
X82750000Y-181315000D01*
X83200000Y-181065000D01*
X83350000Y-181165000D01*
X83500000Y-181265000D01*
X83500000Y-181665000D01*
X83400000Y-182065000D01*
X83250000Y-182315000D01*
X83100000Y-182515000D01*
X82950000Y-182665000D01*
X82750000Y-182815000D01*
X82600000Y-182915000D01*
X82400000Y-183015000D01*
X82100000Y-183115000D01*
X81800000Y-183165000D01*
X81600000Y-183165000D01*
X77250000Y-183165000D01*
X77550000Y-182715000D01*
X77700000Y-182315000D01*
X77750000Y-182065000D01*
X77750000Y-181715000D01*
X77750000Y-181415000D01*
X77650000Y-181015000D01*
X77500000Y-180665000D01*
X77350000Y-180415000D01*
X77050000Y-180065000D01*
X76800000Y-179865000D01*
X76350000Y-179615000D01*
X78400000Y-179615000D01*
X78900000Y-179565000D01*
X79250000Y-179465000D01*
X79500000Y-179265000D01*
X79550000Y-179715000D01*
G36*
X79550000Y-179715000D02*
G01*
X79750000Y-180265000D01*
X80150000Y-180815000D01*
X80450000Y-181065000D01*
X80950000Y-181365000D01*
X81550000Y-181515000D01*
X82050000Y-181515000D01*
X82500000Y-181415000D01*
X82750000Y-181315000D01*
X83200000Y-181065000D01*
X83350000Y-181165000D01*
X83500000Y-181265000D01*
X83500000Y-181665000D01*
X83400000Y-182065000D01*
X83250000Y-182315000D01*
X83100000Y-182515000D01*
X82950000Y-182665000D01*
X82750000Y-182815000D01*
X82600000Y-182915000D01*
X82400000Y-183015000D01*
X82100000Y-183115000D01*
X81800000Y-183165000D01*
X81600000Y-183165000D01*
X77250000Y-183165000D01*
X77550000Y-182715000D01*
X77700000Y-182315000D01*
X77750000Y-182065000D01*
X77750000Y-181715000D01*
X77750000Y-181415000D01*
X77650000Y-181015000D01*
X77500000Y-180665000D01*
X77350000Y-180415000D01*
X77050000Y-180065000D01*
X76800000Y-179865000D01*
X76350000Y-179615000D01*
X78400000Y-179615000D01*
X78900000Y-179565000D01*
X79250000Y-179465000D01*
X79500000Y-179265000D01*
X79550000Y-179715000D01*
G37*
D10*
%TO.C,S2*%
X38500000Y-162800000D02*
X38000000Y-163300000D01*
X38500000Y-167300000D02*
X38000000Y-166800000D01*
X40800000Y-167300000D02*
X38500000Y-167300000D01*
X41500000Y-162800000D02*
X38500000Y-162800000D01*
X42000000Y-163300000D02*
X41500000Y-162800000D01*
X42000000Y-163300000D02*
X42000000Y-164220000D01*
X42500000Y-169500000D02*
X42500000Y-168800000D01*
X42520000Y-164800000D02*
X47000000Y-164800000D01*
X47000000Y-164800000D02*
X47000000Y-165400000D01*
X47000000Y-169000000D02*
X47000000Y-169500000D01*
X47000000Y-169500000D02*
X42500000Y-169500000D01*
X40800000Y-167300000D02*
G75*
G02*
X42500000Y-168780000I110000J-1590000D01*
G01*
X42520000Y-164800000D02*
G75*
G02*
X42000000Y-164220000I30000J550000D01*
G01*
D12*
%TO.C,S39*%
X79550000Y-122715000D02*
X79750000Y-123265000D01*
X80150000Y-123815000D01*
X80450000Y-124065000D01*
X80950000Y-124365000D01*
X81550000Y-124515000D01*
X82050000Y-124515000D01*
X82500000Y-124415000D01*
X82750000Y-124315000D01*
X83200000Y-124065000D01*
X83350000Y-124165000D01*
X83500000Y-124265000D01*
X83500000Y-124665000D01*
X83400000Y-125065000D01*
X83250000Y-125315000D01*
X83100000Y-125515000D01*
X82950000Y-125665000D01*
X82750000Y-125815000D01*
X82600000Y-125915000D01*
X82400000Y-126015000D01*
X82100000Y-126115000D01*
X81800000Y-126165000D01*
X81600000Y-126165000D01*
X77250000Y-126165000D01*
X77550000Y-125715000D01*
X77700000Y-125315000D01*
X77750000Y-125065000D01*
X77750000Y-124715000D01*
X77750000Y-124415000D01*
X77650000Y-124015000D01*
X77500000Y-123665000D01*
X77350000Y-123415000D01*
X77050000Y-123065000D01*
X76800000Y-122865000D01*
X76350000Y-122615000D01*
X78400000Y-122615000D01*
X78900000Y-122565000D01*
X79250000Y-122465000D01*
X79500000Y-122265000D01*
X79550000Y-122715000D01*
G36*
X79550000Y-122715000D02*
G01*
X79750000Y-123265000D01*
X80150000Y-123815000D01*
X80450000Y-124065000D01*
X80950000Y-124365000D01*
X81550000Y-124515000D01*
X82050000Y-124515000D01*
X82500000Y-124415000D01*
X82750000Y-124315000D01*
X83200000Y-124065000D01*
X83350000Y-124165000D01*
X83500000Y-124265000D01*
X83500000Y-124665000D01*
X83400000Y-125065000D01*
X83250000Y-125315000D01*
X83100000Y-125515000D01*
X82950000Y-125665000D01*
X82750000Y-125815000D01*
X82600000Y-125915000D01*
X82400000Y-126015000D01*
X82100000Y-126115000D01*
X81800000Y-126165000D01*
X81600000Y-126165000D01*
X77250000Y-126165000D01*
X77550000Y-125715000D01*
X77700000Y-125315000D01*
X77750000Y-125065000D01*
X77750000Y-124715000D01*
X77750000Y-124415000D01*
X77650000Y-124015000D01*
X77500000Y-123665000D01*
X77350000Y-123415000D01*
X77050000Y-123065000D01*
X76800000Y-122865000D01*
X76350000Y-122615000D01*
X78400000Y-122615000D01*
X78900000Y-122565000D01*
X79250000Y-122465000D01*
X79500000Y-122265000D01*
X79550000Y-122715000D01*
G37*
D10*
%TO.C,S9*%
X76500000Y-168465000D02*
X76000000Y-168965000D01*
X76500000Y-172965000D02*
X76000000Y-172465000D01*
X78800000Y-172965000D02*
X76500000Y-172965000D01*
X79500000Y-168465000D02*
X76500000Y-168465000D01*
X80000000Y-168965000D02*
X79500000Y-168465000D01*
X80000000Y-168965000D02*
X80000000Y-169885000D01*
X80500000Y-175165000D02*
X80500000Y-174465000D01*
X80520000Y-170465000D02*
X85000000Y-170465000D01*
X85000000Y-170465000D02*
X85000000Y-171065000D01*
X85000000Y-174665000D02*
X85000000Y-175165000D01*
X85000000Y-175165000D02*
X80500000Y-175165000D01*
X78800000Y-172965000D02*
G75*
G02*
X80500000Y-174445000I110000J-1590000D01*
G01*
X80520000Y-170465000D02*
G75*
G02*
X80000000Y-169885000I30000J550000D01*
G01*
D11*
%TO.C,D27*%
X150114309Y-217802288D02*
X150387925Y-217050534D01*
X150251117Y-217426411D02*
X149781271Y-217255401D01*
X150387925Y-217050534D02*
X150814932Y-217631623D01*
X150814932Y-217631623D02*
X150114309Y-217802288D01*
X150814932Y-217631623D02*
X150626821Y-218148454D01*
X150814932Y-217631623D02*
X151003043Y-217114792D01*
X151190809Y-217768431D02*
X150814932Y-217631623D01*
D12*
%TO.C,S28*%
X41550000Y-193050000D02*
X41750000Y-193600000D01*
X42150000Y-194150000D01*
X42450000Y-194400000D01*
X42950000Y-194700000D01*
X43550000Y-194850000D01*
X44050000Y-194850000D01*
X44500000Y-194750000D01*
X44750000Y-194650000D01*
X45200000Y-194400000D01*
X45350000Y-194500000D01*
X45500000Y-194600000D01*
X45500000Y-195000000D01*
X45400000Y-195400000D01*
X45250000Y-195650000D01*
X45100000Y-195850000D01*
X44950000Y-196000000D01*
X44750000Y-196150000D01*
X44600000Y-196250000D01*
X44400000Y-196350000D01*
X44100000Y-196450000D01*
X43800000Y-196500000D01*
X43600000Y-196500000D01*
X39250000Y-196500000D01*
X39550000Y-196050000D01*
X39700000Y-195650000D01*
X39750000Y-195400000D01*
X39750000Y-195050000D01*
X39750000Y-194750000D01*
X39650000Y-194350000D01*
X39500000Y-194000000D01*
X39350000Y-193750000D01*
X39050000Y-193400000D01*
X38800000Y-193200000D01*
X38350000Y-192950000D01*
X40400000Y-192950000D01*
X40900000Y-192900000D01*
X41250000Y-192800000D01*
X41500000Y-192600000D01*
X41550000Y-193050000D01*
G36*
X41550000Y-193050000D02*
G01*
X41750000Y-193600000D01*
X42150000Y-194150000D01*
X42450000Y-194400000D01*
X42950000Y-194700000D01*
X43550000Y-194850000D01*
X44050000Y-194850000D01*
X44500000Y-194750000D01*
X44750000Y-194650000D01*
X45200000Y-194400000D01*
X45350000Y-194500000D01*
X45500000Y-194600000D01*
X45500000Y-195000000D01*
X45400000Y-195400000D01*
X45250000Y-195650000D01*
X45100000Y-195850000D01*
X44950000Y-196000000D01*
X44750000Y-196150000D01*
X44600000Y-196250000D01*
X44400000Y-196350000D01*
X44100000Y-196450000D01*
X43800000Y-196500000D01*
X43600000Y-196500000D01*
X39250000Y-196500000D01*
X39550000Y-196050000D01*
X39700000Y-195650000D01*
X39750000Y-195400000D01*
X39750000Y-195050000D01*
X39750000Y-194750000D01*
X39650000Y-194350000D01*
X39500000Y-194000000D01*
X39350000Y-193750000D01*
X39050000Y-193400000D01*
X38800000Y-193200000D01*
X38350000Y-192950000D01*
X40400000Y-192950000D01*
X40900000Y-192900000D01*
X41250000Y-192800000D01*
X41500000Y-192600000D01*
X41550000Y-193050000D01*
G37*
D10*
%TO.C,S12*%
X76500000Y-111465000D02*
X76000000Y-111965000D01*
X76500000Y-115965000D02*
X76000000Y-115465000D01*
X78800000Y-115965000D02*
X76500000Y-115965000D01*
X79500000Y-111465000D02*
X76500000Y-111465000D01*
X80000000Y-111965000D02*
X79500000Y-111465000D01*
X80000000Y-111965000D02*
X80000000Y-112885000D01*
X80500000Y-118165000D02*
X80500000Y-117465000D01*
X80520000Y-113465000D02*
X85000000Y-113465000D01*
X85000000Y-113465000D02*
X85000000Y-114065000D01*
X85000000Y-117665000D02*
X85000000Y-118165000D01*
X85000000Y-118165000D02*
X80500000Y-118165000D01*
X78800000Y-115965000D02*
G75*
G02*
X80500000Y-117445000I110000J-1590000D01*
G01*
X80520000Y-113465000D02*
G75*
G02*
X80000000Y-112885000I30000J550000D01*
G01*
%TO.C,S15*%
X95500000Y-126655000D02*
X95000000Y-127155000D01*
X95500000Y-131155000D02*
X95000000Y-130655000D01*
X97800000Y-131155000D02*
X95500000Y-131155000D01*
X98500000Y-126655000D02*
X95500000Y-126655000D01*
X99000000Y-127155000D02*
X98500000Y-126655000D01*
X99000000Y-127155000D02*
X99000000Y-128075000D01*
X99500000Y-133355000D02*
X99500000Y-132655000D01*
X99520000Y-128655000D02*
X104000000Y-128655000D01*
X104000000Y-128655000D02*
X104000000Y-129255000D01*
X104000000Y-132855000D02*
X104000000Y-133355000D01*
X104000000Y-133355000D02*
X99500000Y-133355000D01*
X97800000Y-131155000D02*
G75*
G02*
X99500000Y-132635000I110000J-1590000D01*
G01*
X99520000Y-128655000D02*
G75*
G02*
X99000000Y-128075000I30000J550000D01*
G01*
D12*
%TO.C,S33*%
X60550000Y-162620000D02*
X60750000Y-163170000D01*
X61150000Y-163720000D01*
X61450000Y-163970000D01*
X61950000Y-164270000D01*
X62550000Y-164420000D01*
X63050000Y-164420000D01*
X63500000Y-164320000D01*
X63750000Y-164220000D01*
X64200000Y-163970000D01*
X64350000Y-164070000D01*
X64500000Y-164170000D01*
X64500000Y-164570000D01*
X64400000Y-164970000D01*
X64250000Y-165220000D01*
X64100000Y-165420000D01*
X63950000Y-165570000D01*
X63750000Y-165720000D01*
X63600000Y-165820000D01*
X63400000Y-165920000D01*
X63100000Y-166020000D01*
X62800000Y-166070000D01*
X62600000Y-166070000D01*
X58250000Y-166070000D01*
X58550000Y-165620000D01*
X58700000Y-165220000D01*
X58750000Y-164970000D01*
X58750000Y-164620000D01*
X58750000Y-164320000D01*
X58650000Y-163920000D01*
X58500000Y-163570000D01*
X58350000Y-163320000D01*
X58050000Y-162970000D01*
X57800000Y-162770000D01*
X57350000Y-162520000D01*
X59400000Y-162520000D01*
X59900000Y-162470000D01*
X60250000Y-162370000D01*
X60500000Y-162170000D01*
X60550000Y-162620000D01*
G36*
X60550000Y-162620000D02*
G01*
X60750000Y-163170000D01*
X61150000Y-163720000D01*
X61450000Y-163970000D01*
X61950000Y-164270000D01*
X62550000Y-164420000D01*
X63050000Y-164420000D01*
X63500000Y-164320000D01*
X63750000Y-164220000D01*
X64200000Y-163970000D01*
X64350000Y-164070000D01*
X64500000Y-164170000D01*
X64500000Y-164570000D01*
X64400000Y-164970000D01*
X64250000Y-165220000D01*
X64100000Y-165420000D01*
X63950000Y-165570000D01*
X63750000Y-165720000D01*
X63600000Y-165820000D01*
X63400000Y-165920000D01*
X63100000Y-166020000D01*
X62800000Y-166070000D01*
X62600000Y-166070000D01*
X58250000Y-166070000D01*
X58550000Y-165620000D01*
X58700000Y-165220000D01*
X58750000Y-164970000D01*
X58750000Y-164620000D01*
X58750000Y-164320000D01*
X58650000Y-163920000D01*
X58500000Y-163570000D01*
X58350000Y-163320000D01*
X58050000Y-162970000D01*
X57800000Y-162770000D01*
X57350000Y-162520000D01*
X59400000Y-162520000D01*
X59900000Y-162470000D01*
X60250000Y-162370000D01*
X60500000Y-162170000D01*
X60550000Y-162620000D01*
G37*
D10*
%TO.C,S19*%
X114500000Y-130465000D02*
X114000000Y-130965000D01*
X114500000Y-134965000D02*
X114000000Y-134465000D01*
X116800000Y-134965000D02*
X114500000Y-134965000D01*
X117500000Y-130465000D02*
X114500000Y-130465000D01*
X118000000Y-130965000D02*
X117500000Y-130465000D01*
X118000000Y-130965000D02*
X118000000Y-131885000D01*
X118500000Y-137165000D02*
X118500000Y-136465000D01*
X118520000Y-132465000D02*
X123000000Y-132465000D01*
X123000000Y-132465000D02*
X123000000Y-133065000D01*
X123000000Y-136665000D02*
X123000000Y-137165000D01*
X123000000Y-137165000D02*
X118500000Y-137165000D01*
X116800000Y-134965000D02*
G75*
G02*
X118500000Y-136445000I110000J-1590000D01*
G01*
X118520000Y-132465000D02*
G75*
G02*
X118000000Y-131885000I30000J550000D01*
G01*
D11*
%TO.C,D19*%
X115750000Y-146015000D02*
X116350000Y-146415000D01*
X115750000Y-146415000D02*
X115250000Y-146415000D01*
X115750000Y-146815000D02*
X115750000Y-146015000D01*
X116350000Y-146415000D02*
X115750000Y-146815000D01*
X116350000Y-146415000D02*
X116350000Y-145865000D01*
X116350000Y-146415000D02*
X116350000Y-146965000D01*
X116750000Y-146415000D02*
X116350000Y-146415000D01*
D10*
%TO.C,S7*%
X57500000Y-132370000D02*
X57000000Y-132870000D01*
X57500000Y-136870000D02*
X57000000Y-136370000D01*
X59800000Y-136870000D02*
X57500000Y-136870000D01*
X60500000Y-132370000D02*
X57500000Y-132370000D01*
X61000000Y-132870000D02*
X60500000Y-132370000D01*
X61000000Y-132870000D02*
X61000000Y-133790000D01*
X61500000Y-139070000D02*
X61500000Y-138370000D01*
X61520000Y-134370000D02*
X66000000Y-134370000D01*
X66000000Y-134370000D02*
X66000000Y-134970000D01*
X66000000Y-138570000D02*
X66000000Y-139070000D01*
X66000000Y-139070000D02*
X61500000Y-139070000D01*
X59800000Y-136870000D02*
G75*
G02*
X61500000Y-138350000I110000J-1590000D01*
G01*
X61520000Y-134370000D02*
G75*
G02*
X61000000Y-133790000I30000J550000D01*
G01*
D12*
%TO.C,S44*%
X117550000Y-179715000D02*
X117750000Y-180265000D01*
X118150000Y-180815000D01*
X118450000Y-181065000D01*
X118950000Y-181365000D01*
X119550000Y-181515000D01*
X120050000Y-181515000D01*
X120500000Y-181415000D01*
X120750000Y-181315000D01*
X121200000Y-181065000D01*
X121350000Y-181165000D01*
X121500000Y-181265000D01*
X121500000Y-181665000D01*
X121400000Y-182065000D01*
X121250000Y-182315000D01*
X121100000Y-182515000D01*
X120950000Y-182665000D01*
X120750000Y-182815000D01*
X120600000Y-182915000D01*
X120400000Y-183015000D01*
X120100000Y-183115000D01*
X119800000Y-183165000D01*
X119600000Y-183165000D01*
X115250000Y-183165000D01*
X115550000Y-182715000D01*
X115700000Y-182315000D01*
X115750000Y-182065000D01*
X115750000Y-181715000D01*
X115750000Y-181415000D01*
X115650000Y-181015000D01*
X115500000Y-180665000D01*
X115350000Y-180415000D01*
X115050000Y-180065000D01*
X114800000Y-179865000D01*
X114350000Y-179615000D01*
X116400000Y-179615000D01*
X116900000Y-179565000D01*
X117250000Y-179465000D01*
X117500000Y-179265000D01*
X117550000Y-179715000D01*
G36*
X117550000Y-179715000D02*
G01*
X117750000Y-180265000D01*
X118150000Y-180815000D01*
X118450000Y-181065000D01*
X118950000Y-181365000D01*
X119550000Y-181515000D01*
X120050000Y-181515000D01*
X120500000Y-181415000D01*
X120750000Y-181315000D01*
X121200000Y-181065000D01*
X121350000Y-181165000D01*
X121500000Y-181265000D01*
X121500000Y-181665000D01*
X121400000Y-182065000D01*
X121250000Y-182315000D01*
X121100000Y-182515000D01*
X120950000Y-182665000D01*
X120750000Y-182815000D01*
X120600000Y-182915000D01*
X120400000Y-183015000D01*
X120100000Y-183115000D01*
X119800000Y-183165000D01*
X119600000Y-183165000D01*
X115250000Y-183165000D01*
X115550000Y-182715000D01*
X115700000Y-182315000D01*
X115750000Y-182065000D01*
X115750000Y-181715000D01*
X115750000Y-181415000D01*
X115650000Y-181015000D01*
X115500000Y-180665000D01*
X115350000Y-180415000D01*
X115050000Y-180065000D01*
X114800000Y-179865000D01*
X114350000Y-179615000D01*
X116400000Y-179615000D01*
X116900000Y-179565000D01*
X117250000Y-179465000D01*
X117500000Y-179265000D01*
X117550000Y-179715000D01*
G37*
%TO.C,S52*%
X105579954Y-200488347D02*
X106081040Y-200525931D01*
X106443088Y-200488227D01*
X106724019Y-200334677D01*
X106695118Y-200786523D01*
X106796573Y-201362897D01*
X107094990Y-201974001D01*
X107347020Y-202272297D01*
X107787329Y-202654565D01*
X108352167Y-202906474D01*
X108844571Y-202993298D01*
X109305099Y-202972959D01*
X109568666Y-202917890D01*
X110055241Y-202749830D01*
X110185598Y-202874358D01*
X110315954Y-202998886D01*
X110246495Y-203392809D01*
X110078555Y-203769367D01*
X109887421Y-203989522D01*
X109704971Y-204160436D01*
X109531202Y-204282110D01*
X109308195Y-204395102D01*
X109143108Y-204467535D01*
X108928781Y-204531286D01*
X108615974Y-204577673D01*
X108311849Y-204574818D01*
X108114888Y-204540089D01*
X103830974Y-203784719D01*
X104204558Y-203393650D01*
X104421737Y-203025774D01*
X104514391Y-202788255D01*
X104575168Y-202443572D01*
X104627262Y-202148130D01*
X104598241Y-201736842D01*
X104511296Y-201366112D01*
X104406987Y-201093863D01*
X104172322Y-200697086D01*
X103960850Y-200456712D01*
X103561098Y-200132368D01*
X105579954Y-200488347D01*
G36*
X105579954Y-200488347D02*
G01*
X106081040Y-200525931D01*
X106443088Y-200488227D01*
X106724019Y-200334677D01*
X106695118Y-200786523D01*
X106796573Y-201362897D01*
X107094990Y-201974001D01*
X107347020Y-202272297D01*
X107787329Y-202654565D01*
X108352167Y-202906474D01*
X108844571Y-202993298D01*
X109305099Y-202972959D01*
X109568666Y-202917890D01*
X110055241Y-202749830D01*
X110185598Y-202874358D01*
X110315954Y-202998886D01*
X110246495Y-203392809D01*
X110078555Y-203769367D01*
X109887421Y-203989522D01*
X109704971Y-204160436D01*
X109531202Y-204282110D01*
X109308195Y-204395102D01*
X109143108Y-204467535D01*
X108928781Y-204531286D01*
X108615974Y-204577673D01*
X108311849Y-204574818D01*
X108114888Y-204540089D01*
X103830974Y-203784719D01*
X104204558Y-203393650D01*
X104421737Y-203025774D01*
X104514391Y-202788255D01*
X104575168Y-202443572D01*
X104627262Y-202148130D01*
X104598241Y-201736842D01*
X104511296Y-201366112D01*
X104406987Y-201093863D01*
X104172322Y-200697086D01*
X103960850Y-200456712D01*
X103561098Y-200132368D01*
X105579954Y-200488347D01*
G37*
D11*
%TO.C,D16*%
X96750000Y-123205000D02*
X97350000Y-123605000D01*
X96750000Y-123605000D02*
X96250000Y-123605000D01*
X96750000Y-124005000D02*
X96750000Y-123205000D01*
X97350000Y-123605000D02*
X96750000Y-124005000D01*
X97350000Y-123605000D02*
X97350000Y-123055000D01*
X97350000Y-123605000D02*
X97350000Y-124155000D01*
X97750000Y-123605000D02*
X97350000Y-123605000D01*
%TO.C,D21*%
X134750000Y-185920000D02*
X135350000Y-186320000D01*
X134750000Y-186320000D02*
X134250000Y-186320000D01*
X134750000Y-186720000D02*
X134750000Y-185920000D01*
X135350000Y-186320000D02*
X134750000Y-186720000D01*
X135350000Y-186320000D02*
X135350000Y-185770000D01*
X135350000Y-186320000D02*
X135350000Y-186870000D01*
X135750000Y-186320000D02*
X135350000Y-186320000D01*
D12*
%TO.C,S37*%
X79550000Y-160715000D02*
X79750000Y-161265000D01*
X80150000Y-161815000D01*
X80450000Y-162065000D01*
X80950000Y-162365000D01*
X81550000Y-162515000D01*
X82050000Y-162515000D01*
X82500000Y-162415000D01*
X82750000Y-162315000D01*
X83200000Y-162065000D01*
X83350000Y-162165000D01*
X83500000Y-162265000D01*
X83500000Y-162665000D01*
X83400000Y-163065000D01*
X83250000Y-163315000D01*
X83100000Y-163515000D01*
X82950000Y-163665000D01*
X82750000Y-163815000D01*
X82600000Y-163915000D01*
X82400000Y-164015000D01*
X82100000Y-164115000D01*
X81800000Y-164165000D01*
X81600000Y-164165000D01*
X77250000Y-164165000D01*
X77550000Y-163715000D01*
X77700000Y-163315000D01*
X77750000Y-163065000D01*
X77750000Y-162715000D01*
X77750000Y-162415000D01*
X77650000Y-162015000D01*
X77500000Y-161665000D01*
X77350000Y-161415000D01*
X77050000Y-161065000D01*
X76800000Y-160865000D01*
X76350000Y-160615000D01*
X78400000Y-160615000D01*
X78900000Y-160565000D01*
X79250000Y-160465000D01*
X79500000Y-160265000D01*
X79550000Y-160715000D01*
G36*
X79550000Y-160715000D02*
G01*
X79750000Y-161265000D01*
X80150000Y-161815000D01*
X80450000Y-162065000D01*
X80950000Y-162365000D01*
X81550000Y-162515000D01*
X82050000Y-162515000D01*
X82500000Y-162415000D01*
X82750000Y-162315000D01*
X83200000Y-162065000D01*
X83350000Y-162165000D01*
X83500000Y-162265000D01*
X83500000Y-162665000D01*
X83400000Y-163065000D01*
X83250000Y-163315000D01*
X83100000Y-163515000D01*
X82950000Y-163665000D01*
X82750000Y-163815000D01*
X82600000Y-163915000D01*
X82400000Y-164015000D01*
X82100000Y-164115000D01*
X81800000Y-164165000D01*
X81600000Y-164165000D01*
X77250000Y-164165000D01*
X77550000Y-163715000D01*
X77700000Y-163315000D01*
X77750000Y-163065000D01*
X77750000Y-162715000D01*
X77750000Y-162415000D01*
X77650000Y-162015000D01*
X77500000Y-161665000D01*
X77350000Y-161415000D01*
X77050000Y-161065000D01*
X76800000Y-160865000D01*
X76350000Y-160615000D01*
X78400000Y-160615000D01*
X78900000Y-160565000D01*
X79250000Y-160465000D01*
X79500000Y-160265000D01*
X79550000Y-160715000D01*
G37*
D11*
%TO.C,D22*%
X134750000Y-166920000D02*
X135350000Y-167320000D01*
X134750000Y-167320000D02*
X134250000Y-167320000D01*
X134750000Y-167720000D02*
X134750000Y-166920000D01*
X135350000Y-167320000D02*
X134750000Y-167720000D01*
X135350000Y-167320000D02*
X135350000Y-166770000D01*
X135350000Y-167320000D02*
X135350000Y-167870000D01*
X135750000Y-167320000D02*
X135350000Y-167320000D01*
D12*
%TO.C,S31*%
X41550000Y-136050000D02*
X41750000Y-136600000D01*
X42150000Y-137150000D01*
X42450000Y-137400000D01*
X42950000Y-137700000D01*
X43550000Y-137850000D01*
X44050000Y-137850000D01*
X44500000Y-137750000D01*
X44750000Y-137650000D01*
X45200000Y-137400000D01*
X45350000Y-137500000D01*
X45500000Y-137600000D01*
X45500000Y-138000000D01*
X45400000Y-138400000D01*
X45250000Y-138650000D01*
X45100000Y-138850000D01*
X44950000Y-139000000D01*
X44750000Y-139150000D01*
X44600000Y-139250000D01*
X44400000Y-139350000D01*
X44100000Y-139450000D01*
X43800000Y-139500000D01*
X43600000Y-139500000D01*
X39250000Y-139500000D01*
X39550000Y-139050000D01*
X39700000Y-138650000D01*
X39750000Y-138400000D01*
X39750000Y-138050000D01*
X39750000Y-137750000D01*
X39650000Y-137350000D01*
X39500000Y-137000000D01*
X39350000Y-136750000D01*
X39050000Y-136400000D01*
X38800000Y-136200000D01*
X38350000Y-135950000D01*
X40400000Y-135950000D01*
X40900000Y-135900000D01*
X41250000Y-135800000D01*
X41500000Y-135600000D01*
X41550000Y-136050000D01*
G36*
X41550000Y-136050000D02*
G01*
X41750000Y-136600000D01*
X42150000Y-137150000D01*
X42450000Y-137400000D01*
X42950000Y-137700000D01*
X43550000Y-137850000D01*
X44050000Y-137850000D01*
X44500000Y-137750000D01*
X44750000Y-137650000D01*
X45200000Y-137400000D01*
X45350000Y-137500000D01*
X45500000Y-137600000D01*
X45500000Y-138000000D01*
X45400000Y-138400000D01*
X45250000Y-138650000D01*
X45100000Y-138850000D01*
X44950000Y-139000000D01*
X44750000Y-139150000D01*
X44600000Y-139250000D01*
X44400000Y-139350000D01*
X44100000Y-139450000D01*
X43800000Y-139500000D01*
X43600000Y-139500000D01*
X39250000Y-139500000D01*
X39550000Y-139050000D01*
X39700000Y-138650000D01*
X39750000Y-138400000D01*
X39750000Y-138050000D01*
X39750000Y-137750000D01*
X39650000Y-137350000D01*
X39500000Y-137000000D01*
X39350000Y-136750000D01*
X39050000Y-136400000D01*
X38800000Y-136200000D01*
X38350000Y-135950000D01*
X40400000Y-135950000D01*
X40900000Y-135900000D01*
X41250000Y-135800000D01*
X41500000Y-135600000D01*
X41550000Y-136050000D01*
G37*
%TO.C,S53*%
X129264118Y-205989758D02*
X129760022Y-206070871D01*
X130123978Y-206064865D01*
X130417223Y-205936385D01*
X130349051Y-206383992D01*
X130399886Y-206967015D01*
X130643905Y-207601802D01*
X130868978Y-207920929D01*
X131274296Y-208340117D01*
X131815028Y-208640297D01*
X132297991Y-208769706D01*
X132758540Y-208789582D01*
X133025903Y-208757695D01*
X133525274Y-208632682D01*
X133644281Y-208768097D01*
X133763288Y-208903514D01*
X133659761Y-209289883D01*
X133459641Y-209650371D01*
X133250047Y-209853030D01*
X133053394Y-210007392D01*
X132869683Y-210113458D01*
X132637675Y-210206583D01*
X132466904Y-210264353D01*
X132247837Y-210309182D01*
X131932177Y-210328129D01*
X131629458Y-210298779D01*
X131436273Y-210247015D01*
X127234496Y-209121153D01*
X127640742Y-208764132D01*
X127889159Y-208416584D01*
X128002160Y-208188044D01*
X128092746Y-207849970D01*
X128170392Y-207560192D01*
X128177327Y-207147940D01*
X128123025Y-206771043D01*
X128042841Y-206490738D01*
X127843650Y-206075019D01*
X127653932Y-205817129D01*
X127283970Y-205459179D01*
X129264118Y-205989758D01*
G36*
X129264118Y-205989758D02*
G01*
X129760022Y-206070871D01*
X130123978Y-206064865D01*
X130417223Y-205936385D01*
X130349051Y-206383992D01*
X130399886Y-206967015D01*
X130643905Y-207601802D01*
X130868978Y-207920929D01*
X131274296Y-208340117D01*
X131815028Y-208640297D01*
X132297991Y-208769706D01*
X132758540Y-208789582D01*
X133025903Y-208757695D01*
X133525274Y-208632682D01*
X133644281Y-208768097D01*
X133763288Y-208903514D01*
X133659761Y-209289883D01*
X133459641Y-209650371D01*
X133250047Y-209853030D01*
X133053394Y-210007392D01*
X132869683Y-210113458D01*
X132637675Y-210206583D01*
X132466904Y-210264353D01*
X132247837Y-210309182D01*
X131932177Y-210328129D01*
X131629458Y-210298779D01*
X131436273Y-210247015D01*
X127234496Y-209121153D01*
X127640742Y-208764132D01*
X127889159Y-208416584D01*
X128002160Y-208188044D01*
X128092746Y-207849970D01*
X128170392Y-207560192D01*
X128177327Y-207147940D01*
X128123025Y-206771043D01*
X128042841Y-206490738D01*
X127843650Y-206075019D01*
X127653932Y-205817129D01*
X127283970Y-205459179D01*
X129264118Y-205989758D01*
G37*
D11*
%TO.C,D26*%
X127290407Y-210844340D02*
X127497462Y-210071599D01*
X127393935Y-210457969D02*
X126910972Y-210328560D01*
X127497462Y-210071599D02*
X127973490Y-210613261D01*
X127973490Y-210613261D02*
X127290407Y-210844340D01*
X127973490Y-210613261D02*
X127831140Y-211144520D01*
X127973490Y-210613261D02*
X128115841Y-210082000D01*
X128359860Y-210716788D02*
X127973490Y-210613261D01*
%TO.C,D17*%
X115750000Y-184015000D02*
X116350000Y-184415000D01*
X115750000Y-184415000D02*
X115250000Y-184415000D01*
X115750000Y-184815000D02*
X115750000Y-184015000D01*
X116350000Y-184415000D02*
X115750000Y-184815000D01*
X116350000Y-184415000D02*
X116350000Y-183865000D01*
X116350000Y-184415000D02*
X116350000Y-184965000D01*
X116750000Y-184415000D02*
X116350000Y-184415000D01*
%TO.C,D4*%
X39750000Y-140350000D02*
X40350000Y-140750000D01*
X39750000Y-140750000D02*
X39250000Y-140750000D01*
X39750000Y-141150000D02*
X39750000Y-140350000D01*
X40350000Y-140750000D02*
X39750000Y-141150000D01*
X40350000Y-140750000D02*
X40350000Y-140200000D01*
X40350000Y-140750000D02*
X40350000Y-141300000D01*
X40750000Y-140750000D02*
X40350000Y-140750000D01*
D10*
%TO.C,S20*%
X114500000Y-111465000D02*
X114000000Y-111965000D01*
X114500000Y-115965000D02*
X114000000Y-115465000D01*
X116800000Y-115965000D02*
X114500000Y-115965000D01*
X117500000Y-111465000D02*
X114500000Y-111465000D01*
X118000000Y-111965000D02*
X117500000Y-111465000D01*
X118000000Y-111965000D02*
X118000000Y-112885000D01*
X118500000Y-118165000D02*
X118500000Y-117465000D01*
X118520000Y-113465000D02*
X123000000Y-113465000D01*
X123000000Y-113465000D02*
X123000000Y-114065000D01*
X123000000Y-117665000D02*
X123000000Y-118165000D01*
X123000000Y-118165000D02*
X118500000Y-118165000D01*
X116800000Y-115965000D02*
G75*
G02*
X118500000Y-117445000I110000J-1590000D01*
G01*
X118520000Y-113465000D02*
G75*
G02*
X118000000Y-112885000I30000J550000D01*
G01*
D11*
%TO.C,D18*%
X115750000Y-165015000D02*
X116350000Y-165415000D01*
X115750000Y-165415000D02*
X115250000Y-165415000D01*
X115750000Y-165815000D02*
X115750000Y-165015000D01*
X116350000Y-165415000D02*
X115750000Y-165815000D01*
X116350000Y-165415000D02*
X116350000Y-164865000D01*
X116350000Y-165415000D02*
X116350000Y-165965000D01*
X116750000Y-165415000D02*
X116350000Y-165415000D01*
%TO.C,D13*%
X96750000Y-180205000D02*
X97350000Y-180605000D01*
X96750000Y-180605000D02*
X96250000Y-180605000D01*
X96750000Y-181005000D02*
X96750000Y-180205000D01*
X97350000Y-180605000D02*
X96750000Y-181005000D01*
X97350000Y-180605000D02*
X97350000Y-180055000D01*
X97350000Y-180605000D02*
X97350000Y-181155000D01*
X97750000Y-180605000D02*
X97350000Y-180605000D01*
D12*
%TO.C,S51*%
X136550000Y-124620000D02*
X136750000Y-125170000D01*
X137150000Y-125720000D01*
X137450000Y-125970000D01*
X137950000Y-126270000D01*
X138550000Y-126420000D01*
X139050000Y-126420000D01*
X139500000Y-126320000D01*
X139750000Y-126220000D01*
X140200000Y-125970000D01*
X140350000Y-126070000D01*
X140500000Y-126170000D01*
X140500000Y-126570000D01*
X140400000Y-126970000D01*
X140250000Y-127220000D01*
X140100000Y-127420000D01*
X139950000Y-127570000D01*
X139750000Y-127720000D01*
X139600000Y-127820000D01*
X139400000Y-127920000D01*
X139100000Y-128020000D01*
X138800000Y-128070000D01*
X138600000Y-128070000D01*
X134250000Y-128070000D01*
X134550000Y-127620000D01*
X134700000Y-127220000D01*
X134750000Y-126970000D01*
X134750000Y-126620000D01*
X134750000Y-126320000D01*
X134650000Y-125920000D01*
X134500000Y-125570000D01*
X134350000Y-125320000D01*
X134050000Y-124970000D01*
X133800000Y-124770000D01*
X133350000Y-124520000D01*
X135400000Y-124520000D01*
X135900000Y-124470000D01*
X136250000Y-124370000D01*
X136500000Y-124170000D01*
X136550000Y-124620000D01*
G36*
X136550000Y-124620000D02*
G01*
X136750000Y-125170000D01*
X137150000Y-125720000D01*
X137450000Y-125970000D01*
X137950000Y-126270000D01*
X138550000Y-126420000D01*
X139050000Y-126420000D01*
X139500000Y-126320000D01*
X139750000Y-126220000D01*
X140200000Y-125970000D01*
X140350000Y-126070000D01*
X140500000Y-126170000D01*
X140500000Y-126570000D01*
X140400000Y-126970000D01*
X140250000Y-127220000D01*
X140100000Y-127420000D01*
X139950000Y-127570000D01*
X139750000Y-127720000D01*
X139600000Y-127820000D01*
X139400000Y-127920000D01*
X139100000Y-128020000D01*
X138800000Y-128070000D01*
X138600000Y-128070000D01*
X134250000Y-128070000D01*
X134550000Y-127620000D01*
X134700000Y-127220000D01*
X134750000Y-126970000D01*
X134750000Y-126620000D01*
X134750000Y-126320000D01*
X134650000Y-125920000D01*
X134500000Y-125570000D01*
X134350000Y-125320000D01*
X134050000Y-124970000D01*
X133800000Y-124770000D01*
X133350000Y-124520000D01*
X135400000Y-124520000D01*
X135900000Y-124470000D01*
X136250000Y-124370000D01*
X136500000Y-124170000D01*
X136550000Y-124620000D01*
G37*
D10*
%TO.C,S25*%
X104863580Y-193609444D02*
X104458000Y-193030216D01*
X105644996Y-189177809D02*
X105065768Y-189583389D01*
X107128637Y-194008835D02*
X104863580Y-193609444D01*
X108420785Y-196470614D02*
X108542338Y-195781248D01*
X108599420Y-189698754D02*
X105644996Y-189177809D01*
X109004999Y-190277982D02*
X108599420Y-189698754D01*
X109004999Y-190277982D02*
X108845243Y-191184005D01*
X109256627Y-191845490D02*
X113668566Y-192623434D01*
X112852421Y-197252031D02*
X108420785Y-196470614D01*
X112939244Y-196759627D02*
X112852421Y-197252031D01*
X113668566Y-192623434D02*
X113564377Y-193214319D01*
X107128637Y-194008835D02*
G75*
G02*
X108545811Y-195761552I-167771J-1584945D01*
G01*
X109256627Y-191845490D02*
G75*
G02*
X108845244Y-191184005I125051J536434D01*
G01*
D12*
%TO.C,S49*%
X136550000Y-162620000D02*
X136750000Y-163170000D01*
X137150000Y-163720000D01*
X137450000Y-163970000D01*
X137950000Y-164270000D01*
X138550000Y-164420000D01*
X139050000Y-164420000D01*
X139500000Y-164320000D01*
X139750000Y-164220000D01*
X140200000Y-163970000D01*
X140350000Y-164070000D01*
X140500000Y-164170000D01*
X140500000Y-164570000D01*
X140400000Y-164970000D01*
X140250000Y-165220000D01*
X140100000Y-165420000D01*
X139950000Y-165570000D01*
X139750000Y-165720000D01*
X139600000Y-165820000D01*
X139400000Y-165920000D01*
X139100000Y-166020000D01*
X138800000Y-166070000D01*
X138600000Y-166070000D01*
X134250000Y-166070000D01*
X134550000Y-165620000D01*
X134700000Y-165220000D01*
X134750000Y-164970000D01*
X134750000Y-164620000D01*
X134750000Y-164320000D01*
X134650000Y-163920000D01*
X134500000Y-163570000D01*
X134350000Y-163320000D01*
X134050000Y-162970000D01*
X133800000Y-162770000D01*
X133350000Y-162520000D01*
X135400000Y-162520000D01*
X135900000Y-162470000D01*
X136250000Y-162370000D01*
X136500000Y-162170000D01*
X136550000Y-162620000D01*
G36*
X136550000Y-162620000D02*
G01*
X136750000Y-163170000D01*
X137150000Y-163720000D01*
X137450000Y-163970000D01*
X137950000Y-164270000D01*
X138550000Y-164420000D01*
X139050000Y-164420000D01*
X139500000Y-164320000D01*
X139750000Y-164220000D01*
X140200000Y-163970000D01*
X140350000Y-164070000D01*
X140500000Y-164170000D01*
X140500000Y-164570000D01*
X140400000Y-164970000D01*
X140250000Y-165220000D01*
X140100000Y-165420000D01*
X139950000Y-165570000D01*
X139750000Y-165720000D01*
X139600000Y-165820000D01*
X139400000Y-165920000D01*
X139100000Y-166020000D01*
X138800000Y-166070000D01*
X138600000Y-166070000D01*
X134250000Y-166070000D01*
X134550000Y-165620000D01*
X134700000Y-165220000D01*
X134750000Y-164970000D01*
X134750000Y-164620000D01*
X134750000Y-164320000D01*
X134650000Y-163920000D01*
X134500000Y-163570000D01*
X134350000Y-163320000D01*
X134050000Y-162970000D01*
X133800000Y-162770000D01*
X133350000Y-162520000D01*
X135400000Y-162520000D01*
X135900000Y-162470000D01*
X136250000Y-162370000D01*
X136500000Y-162170000D01*
X136550000Y-162620000D01*
G37*
D10*
%TO.C,S26*%
X129150006Y-199074595D02*
X128796452Y-198462222D01*
X130314691Y-194727929D02*
X129702319Y-195081482D01*
X131371635Y-199669879D02*
X129150006Y-199074595D01*
X132444307Y-202234908D02*
X132625480Y-201558760D01*
X133212469Y-195504386D02*
X130314691Y-194727929D01*
X133566022Y-196116758D02*
X133212469Y-195504386D01*
X133566022Y-196116758D02*
X133327909Y-197005410D01*
X133680075Y-197700233D02*
X138007423Y-198859742D01*
X136790973Y-203399595D02*
X132444307Y-202234908D01*
X136920383Y-202916631D02*
X136790973Y-203399595D01*
X138007423Y-198859742D02*
X137852131Y-199439298D01*
X131371635Y-199669879D02*
G75*
G02*
X132630657Y-201539441I-305270J-1564292D01*
G01*
X133680075Y-197700233D02*
G75*
G02*
X133327908Y-197005410I171328J523495D01*
G01*
D11*
%TO.C,D12*%
X77750000Y-127015000D02*
X78350000Y-127415000D01*
X77750000Y-127415000D02*
X77250000Y-127415000D01*
X77750000Y-127815000D02*
X77750000Y-127015000D01*
X78350000Y-127415000D02*
X77750000Y-127815000D01*
X78350000Y-127415000D02*
X78350000Y-126865000D01*
X78350000Y-127415000D02*
X78350000Y-127965000D01*
X78750000Y-127415000D02*
X78350000Y-127415000D01*
%TO.C,D14*%
X96750000Y-161205000D02*
X97350000Y-161605000D01*
X96750000Y-161605000D02*
X96250000Y-161605000D01*
X96750000Y-162005000D02*
X96750000Y-161205000D01*
X97350000Y-161605000D02*
X96750000Y-162005000D01*
X97350000Y-161605000D02*
X97350000Y-161055000D01*
X97350000Y-161605000D02*
X97350000Y-162155000D01*
X97750000Y-161605000D02*
X97350000Y-161605000D01*
%TD*%
M02*
